<ttFont>
    <TTGlyph name=".notdef" xMin="95" yMin="-220" xMax="673" yMax="1030">
      <contour>
        <pt x="95" y="1030" on="1"/>
        <pt x="673" y="1030" on="1"/>
        <pt x="673" y="-220" on="1"/>
        <pt x="95" y="-220" on="1"/>
      </contour>
      <contour>
        <pt x="595" y="-146" on="1"/>
        <pt x="595" y="957" on="1"/>
        <pt x="172" y="957" on="1"/>
        <pt x="172" y="-146" on="1"/>
      </contour>
    </TTGlyph>
    <TTGlyph name="A" xMin="7" yMin="0" xMax="674" yMax="740">
      <contour>
        <pt x="7" y="7" on="1"/>
        <pt x="273" y="740" on="1"/>
        <pt x="408" y="740" on="1"/>
        <pt x="674" y="7" on="1"/>
        <pt x="674" y="0" on="1"/>
        <pt x="586" y="0" on="1"/>
        <pt x="505" y="220" on="1"/>
        <pt x="174" y="220" on="1"/>
        <pt x="95" y="0" on="1"/>
        <pt x="7" y="0" on="1"/>
      </contour>
      <contour>
        <pt x="481" y="295" on="1"/>
        <pt x="390" y="545" on="1"/>
        <pt x="344" y="674" on="1"/>
        <pt x="336" y="674" on="1"/>
        <pt x="290" y="545" on="1"/>
        <pt x="199" y="295" on="1"/>
      </contour>
    </TTGlyph>
    <TTGlyph name="A.sc" xMin="12" yMin="0" xMax="603" yMax="577">
      <contour>
        <pt x="12" y="6" on="1"/>
        <pt x="244" y="577" on="1"/>
        <pt x="373" y="577" on="1"/>
        <pt x="603" y="6" on="1"/>
        <pt x="603" y="0" on="1"/>
        <pt x="519" y="0" on="1"/>
        <pt x="452" y="162" on="1"/>
        <pt x="164" y="162" on="1"/>
        <pt x="97" y="0" on="1"/>
        <pt x="12" y="0" on="1"/>
      </contour>
      <contour>
        <pt x="431" y="225" on="1"/>
        <pt x="312" y="516" on="1"/>
        <pt x="303" y="516" on="1"/>
        <pt x="184" y="225" on="1"/>
      </contour>
    </TTGlyph>
    <TTGlyph name="AE" xMin="6" yMin="0" xMax="840" yMax="740">
      <contour>
        <pt x="6" y="7" on="1"/>
        <pt x="306" y="740" on="1"/>
        <pt x="829" y="740" on="1"/>
        <pt x="829" y="666" on="1"/>
        <pt x="498" y="666" on="1"/>
        <pt x="511" y="412" on="1"/>
        <pt x="803" y="412" on="1"/>
        <pt x="803" y="337" on="1"/>
        <pt x="515" y="337" on="1"/>
        <pt x="528" y="74" on="1"/>
        <pt x="840" y="74" on="1"/>
        <pt x="840" y="0" on="1"/>
        <pt x="439" y="0" on="1"/>
        <pt x="430" y="219" on="1"/>
        <pt x="183" y="219" on="1"/>
        <pt x="93" y="0" on="1"/>
        <pt x="6" y="0" on="1"/>
      </contour>
      <contour>
        <pt x="215" y="296" on="1"/>
        <pt x="427" y="296" on="1"/>
        <pt x="412" y="670" on="1"/>
        <pt x="369" y="670" on="1"/>
      </contour>
    </TTGlyph>
    <TTGlyph name="AE.sc" xMin="14" yMin="0" xMax="755" yMax="577">
      <contour>
        <pt x="14" y="6" on="1"/>
        <pt x="277" y="577" on="1"/>
        <pt x="744" y="577" on="1"/>
        <pt x="744" y="509" on="1"/>
        <pt x="456" y="509" on="1"/>
        <pt x="465" y="323" on="1"/>
        <pt x="722" y="323" on="1"/>
        <pt x="722" y="261" on="1"/>
        <pt x="471" y="261" on="1"/>
        <pt x="482" y="68" on="1"/>
        <pt x="755" y="68" on="1"/>
        <pt x="755" y="0" on="1"/>
        <pt x="396" y="0" on="1"/>
        <pt x="389" y="162" on="1"/>
        <pt x="173" y="162" on="1"/>
        <pt x="98" y="0" on="1"/>
        <pt x="14" y="0" on="1"/>
      </contour>
      <contour>
        <pt x="203" y="224" on="1"/>
        <pt x="386" y="224" on="1"/>
        <pt x="373" y="513" on="1"/>
        <pt x="337" y="513" on="1"/>
      </contour>
    </TTGlyph>
    <TTGlyph name="AEacute" xMin="6" yMin="0" xMax="840" yMax="947">
      <contour>
        <pt x="481" y="807" on="1"/>
        <pt x="555" y="947" on="1"/>
        <pt x="647" y="947" on="1"/>
        <pt x="549" y="800" on="1"/>
      </contour>
      <contour>
        <pt x="6" y="7" on="1"/>
        <pt x="306" y="740" on="1"/>
        <pt x="829" y="740" on="1"/>
        <pt x="829" y="666" on="1"/>
        <pt x="498" y="666" on="1"/>
        <pt x="511" y="412" on="1"/>
        <pt x="803" y="412" on="1"/>
        <pt x="803" y="337" on="1"/>
        <pt x="515" y="337" on="1"/>
        <pt x="528" y="74" on="1"/>
        <pt x="840" y="74" on="1"/>
        <pt x="840" y="0" on="1"/>
        <pt x="439" y="0" on="1"/>
        <pt x="430" y="219" on="1"/>
        <pt x="183" y="219" on="1"/>
        <pt x="93" y="0" on="1"/>
        <pt x="6" y="0" on="1"/>
      </contour>
      <contour>
        <pt x="215" y="296" on="1"/>
        <pt x="427" y="296" on="1"/>
        <pt x="412" y="670" on="1"/>
        <pt x="369" y="670" on="1"/>
      </contour>
    </TTGlyph>
    <TTGlyph name="AEacute.sc" xMin="14" yMin="0" xMax="755" yMax="746">
      <contour>
        <pt x="14" y="6" on="1"/>
        <pt x="277" y="577" on="1"/>
        <pt x="744" y="577" on="1"/>
        <pt x="744" y="509" on="1"/>
        <pt x="456" y="509" on="1"/>
        <pt x="465" y="323" on="1"/>
        <pt x="722" y="323" on="1"/>
        <pt x="722" y="261" on="1"/>
        <pt x="471" y="261" on="1"/>
        <pt x="482" y="68" on="1"/>
        <pt x="755" y="68" on="1"/>
        <pt x="755" y="0" on="1"/>
        <pt x="396" y="0" on="1"/>
        <pt x="389" y="162" on="1"/>
        <pt x="173" y="162" on="1"/>
        <pt x="98" y="0" on="1"/>
        <pt x="14" y="0" on="1"/>
      </contour>
      <contour>
        <pt x="386" y="224" on="1"/>
        <pt x="373" y="513" on="1"/>
        <pt x="337" y="513" on="1"/>
        <pt x="203" y="224" on="1"/>
      </contour>
      <contour>
        <pt x="428" y="631" on="1"/>
        <pt x="492" y="746" on="1"/>
        <pt x="580" y="746" on="1"/>
        <pt x="493" y="625" on="1"/>
      </contour>
    </TTGlyph>
    <TTGlyph name="Aacute" xMin="7" yMin="0" xMax="674" yMax="947">
      <contour>
        <pt x="7" y="7" on="1"/>
        <pt x="273" y="740" on="1"/>
        <pt x="408" y="740" on="1"/>
        <pt x="674" y="7" on="1"/>
        <pt x="674" y="0" on="1"/>
        <pt x="586" y="0" on="1"/>
        <pt x="505" y="220" on="1"/>
        <pt x="174" y="220" on="1"/>
        <pt x="95" y="0" on="1"/>
        <pt x="7" y="0" on="1"/>
      </contour>
      <contour>
        <pt x="481" y="295" on="1"/>
        <pt x="390" y="545" on="1"/>
        <pt x="344" y="674" on="1"/>
        <pt x="336" y="674" on="1"/>
        <pt x="290" y="545" on="1"/>
        <pt x="199" y="295" on="1"/>
      </contour>
      <contour>
        <pt x="302" y="807" on="1"/>
        <pt x="376" y="947" on="1"/>
        <pt x="468" y="947" on="1"/>
        <pt x="370" y="800" on="1"/>
      </contour>
    </TTGlyph>
    <TTGlyph name="Aacute.sc" xMin="12" yMin="0" xMax="603" yMax="746">
      <contour>
        <pt x="12" y="6" on="1"/>
        <pt x="244" y="577" on="1"/>
        <pt x="373" y="577" on="1"/>
        <pt x="603" y="6" on="1"/>
        <pt x="603" y="0" on="1"/>
        <pt x="519" y="0" on="1"/>
        <pt x="452" y="162" on="1"/>
        <pt x="164" y="162" on="1"/>
        <pt x="97" y="0" on="1"/>
        <pt x="12" y="0" on="1"/>
      </contour>
      <contour>
        <pt x="431" y="227" on="1"/>
        <pt x="351" y="419" on="1"/>
        <pt x="311" y="516" on="1"/>
        <pt x="304" y="516" on="1"/>
        <pt x="265" y="418" on="1"/>
        <pt x="185" y="227" on="1"/>
      </contour>
      <contour>
        <pt x="271" y="631" on="1"/>
        <pt x="335" y="746" on="1"/>
        <pt x="423" y="746" on="1"/>
        <pt x="336" y="625" on="1"/>
      </contour>
    </TTGlyph>
    <TTGlyph name="Abreve" xMin="7" yMin="0" xMax="674" yMax="962">
      <contour>
        <pt x="7" y="7" on="1"/>
        <pt x="273" y="740" on="1"/>
        <pt x="408" y="740" on="1"/>
        <pt x="674" y="7" on="1"/>
        <pt x="674" y="0" on="1"/>
        <pt x="586" y="0" on="1"/>
        <pt x="505" y="220" on="1"/>
        <pt x="174" y="220" on="1"/>
        <pt x="95" y="0" on="1"/>
        <pt x="7" y="0" on="1"/>
      </contour>
      <contour>
        <pt x="481" y="295" on="1"/>
        <pt x="390" y="545" on="1"/>
        <pt x="344" y="674" on="1"/>
        <pt x="336" y="674" on="1"/>
        <pt x="290" y="545" on="1"/>
        <pt x="199" y="295" on="1"/>
      </contour>
      <contour>
        <pt x="341" y="813" on="1"/>
        <pt x="250" y="813" on="0"/>
        <pt x="160" y="895" on="0"/>
        <pt x="160" y="962" on="1"/>
        <pt x="226" y="962" on="1"/>
        <pt x="226" y="917" on="0"/>
        <pt x="284" y="866" on="0"/>
        <pt x="341" y="866" on="1"/>
        <pt x="399" y="866" on="0"/>
        <pt x="457" y="917" on="0"/>
        <pt x="457" y="962" on="1"/>
        <pt x="523" y="962" on="1"/>
        <pt x="523" y="894" on="0"/>
        <pt x="432" y="813" on="0"/>
      </contour>
    </TTGlyph>
    <TTGlyph name="Abreve.sc" xMin="12" yMin="0" xMax="603" yMax="756">
      <contour>
        <pt x="309" y="633" on="1"/>
        <pt x="225" y="633" on="0"/>
        <pt x="146" y="701" on="0"/>
        <pt x="146" y="756" on="1"/>
        <pt x="208" y="756" on="1"/>
        <pt x="208" y="720" on="0"/>
        <pt x="258" y="681" on="0"/>
        <pt x="309" y="681" on="1"/>
        <pt x="360" y="681" on="0"/>
        <pt x="409" y="720" on="0"/>
        <pt x="409" y="756" on="1"/>
        <pt x="471" y="756" on="1"/>
        <pt x="471" y="701" on="0"/>
        <pt x="392" y="633" on="0"/>
      </contour>
      <contour>
        <pt x="12" y="6" on="1"/>
        <pt x="244" y="577" on="1"/>
        <pt x="373" y="577" on="1"/>
        <pt x="603" y="6" on="1"/>
        <pt x="603" y="0" on="1"/>
        <pt x="519" y="0" on="1"/>
        <pt x="452" y="162" on="1"/>
        <pt x="164" y="162" on="1"/>
        <pt x="97" y="0" on="1"/>
        <pt x="12" y="0" on="1"/>
      </contour>
      <contour>
        <pt x="431" y="227" on="1"/>
        <pt x="351" y="419" on="1"/>
        <pt x="311" y="516" on="1"/>
        <pt x="304" y="516" on="1"/>
        <pt x="265" y="418" on="1"/>
        <pt x="185" y="227" on="1"/>
      </contour>
    </TTGlyph>
    <TTGlyph name="Acircumflex" xMin="7" yMin="0" xMax="674" yMax="957">
      <contour>
        <pt x="7" y="7" on="1"/>
        <pt x="273" y="740" on="1"/>
        <pt x="408" y="740" on="1"/>
        <pt x="674" y="7" on="1"/>
        <pt x="674" y="0" on="1"/>
        <pt x="586" y="0" on="1"/>
        <pt x="505" y="220" on="1"/>
        <pt x="174" y="220" on="1"/>
        <pt x="95" y="0" on="1"/>
        <pt x="7" y="0" on="1"/>
      </contour>
      <contour>
        <pt x="481" y="295" on="1"/>
        <pt x="390" y="545" on="1"/>
        <pt x="344" y="674" on="1"/>
        <pt x="336" y="674" on="1"/>
        <pt x="290" y="545" on="1"/>
        <pt x="199" y="295" on="1"/>
      </contour>
      <contour>
        <pt x="176" y="882" on="1"/>
        <pt x="341" y="957" on="1"/>
        <pt x="507" y="882" on="1"/>
        <pt x="507" y="812" on="1"/>
        <pt x="341" y="886" on="1"/>
        <pt x="176" y="812" on="1"/>
      </contour>
    </TTGlyph>
    <TTGlyph name="Acircumflex.sc" xMin="12" yMin="0" xMax="603" yMax="753">
      <contour>
        <pt x="12" y="6" on="1"/>
        <pt x="244" y="577" on="1"/>
        <pt x="373" y="577" on="1"/>
        <pt x="603" y="6" on="1"/>
        <pt x="603" y="0" on="1"/>
        <pt x="519" y="0" on="1"/>
        <pt x="452" y="162" on="1"/>
        <pt x="164" y="162" on="1"/>
        <pt x="97" y="0" on="1"/>
        <pt x="12" y="0" on="1"/>
      </contour>
      <contour>
        <pt x="431" y="227" on="1"/>
        <pt x="351" y="419" on="1"/>
        <pt x="311" y="516" on="1"/>
        <pt x="304" y="516" on="1"/>
        <pt x="265" y="418" on="1"/>
        <pt x="185" y="227" on="1"/>
      </contour>
      <contour>
        <pt x="161" y="694" on="1"/>
        <pt x="309" y="753" on="1"/>
        <pt x="457" y="694" on="1"/>
        <pt x="457" y="631" on="1"/>
        <pt x="309" y="689" on="1"/>
        <pt x="161" y="631" on="1"/>
      </contour>
    </TTGlyph>
    <TTGlyph name="Adblgrave" xMin="7" yMin="0" xMax="674" yMax="942">
      <contour>
        <pt x="7" y="7" on="1"/>
        <pt x="273" y="740" on="1"/>
        <pt x="408" y="740" on="1"/>
        <pt x="674" y="7" on="1"/>
        <pt x="674" y="0" on="1"/>
        <pt x="586" y="0" on="1"/>
        <pt x="505" y="220" on="1"/>
        <pt x="174" y="220" on="1"/>
        <pt x="95" y="0" on="1"/>
        <pt x="7" y="0" on="1"/>
      </contour>
      <contour>
        <pt x="481" y="295" on="1"/>
        <pt x="390" y="545" on="1"/>
        <pt x="344" y="674" on="1"/>
        <pt x="336" y="674" on="1"/>
        <pt x="290" y="545" on="1"/>
        <pt x="199" y="295" on="1"/>
      </contour>
      <contour>
        <pt x="227" y="795" on="1"/>
        <pt x="129" y="942" on="1"/>
        <pt x="218" y="942" on="1"/>
        <pt x="291" y="808" on="1"/>
      </contour>
      <contour>
        <pt x="387" y="795" on="1"/>
        <pt x="288" y="942" on="1"/>
        <pt x="377" y="942" on="1"/>
        <pt x="451" y="808" on="1"/>
      </contour>
    </TTGlyph>
    <TTGlyph name="Adblgrave.sc" xMin="12" yMin="0" xMax="603" yMax="743">
      <contour>
        <pt x="12" y="6" on="1"/>
        <pt x="244" y="577" on="1"/>
        <pt x="373" y="577" on="1"/>
        <pt x="603" y="6" on="1"/>
        <pt x="603" y="0" on="1"/>
        <pt x="519" y="0" on="1"/>
        <pt x="452" y="162" on="1"/>
        <pt x="164" y="162" on="1"/>
        <pt x="97" y="0" on="1"/>
        <pt x="12" y="0" on="1"/>
      </contour>
      <contour>
        <pt x="431" y="227" on="1"/>
        <pt x="351" y="419" on="1"/>
        <pt x="311" y="516" on="1"/>
        <pt x="304" y="516" on="1"/>
        <pt x="265" y="418" on="1"/>
        <pt x="185" y="227" on="1"/>
      </contour>
      <contour>
        <pt x="117" y="743" on="1"/>
        <pt x="202" y="743" on="1"/>
        <pt x="265" y="631" on="1"/>
        <pt x="203" y="621" on="1"/>
      </contour>
      <contour>
        <pt x="260" y="743" on="1"/>
        <pt x="345" y="743" on="1"/>
        <pt x="408" y="631" on="1"/>
        <pt x="347" y="621" on="1"/>
      </contour>
    </TTGlyph>
    <TTGlyph name="Adieresis" xMin="7" yMin="0" xMax="674" yMax="930">
      <contour>
        <pt x="7" y="7" on="1"/>
        <pt x="273" y="740" on="1"/>
        <pt x="408" y="740" on="1"/>
        <pt x="674" y="7" on="1"/>
        <pt x="674" y="0" on="1"/>
        <pt x="586" y="0" on="1"/>
        <pt x="505" y="220" on="1"/>
        <pt x="174" y="220" on="1"/>
        <pt x="95" y="0" on="1"/>
        <pt x="7" y="0" on="1"/>
      </contour>
      <contour>
        <pt x="481" y="295" on="1"/>
        <pt x="390" y="545" on="1"/>
        <pt x="344" y="674" on="1"/>
        <pt x="336" y="674" on="1"/>
        <pt x="290" y="545" on="1"/>
        <pt x="199" y="295" on="1"/>
      </contour>
      <contour>
        <pt x="210" y="819" on="1"/>
        <pt x="154" y="819" on="0"/>
        <pt x="154" y="875" on="1"/>
        <pt x="154" y="930" on="0"/>
        <pt x="210" y="930" on="1"/>
        <pt x="267" y="930" on="0"/>
        <pt x="267" y="875" on="1"/>
        <pt x="267" y="819" on="0"/>
      </contour>
      <contour>
        <pt x="471" y="819" on="1"/>
        <pt x="414" y="819" on="0"/>
        <pt x="414" y="875" on="1"/>
        <pt x="414" y="930" on="0"/>
        <pt x="471" y="930" on="1"/>
        <pt x="498" y="930" on="0"/>
        <pt x="528" y="904" on="0"/>
        <pt x="528" y="875" on="1"/>
        <pt x="528" y="846" on="0"/>
        <pt x="498" y="819" on="0"/>
      </contour>
    </TTGlyph>
    <TTGlyph name="Adieresis.sc" xMin="12" yMin="0" xMax="603" yMax="738">
      <contour>
        <pt x="192" y="637" on="1"/>
        <pt x="166" y="637" on="0"/>
        <pt x="140" y="661" on="0"/>
        <pt x="140" y="688" on="1"/>
        <pt x="140" y="738" on="0"/>
        <pt x="192" y="738" on="1"/>
        <pt x="246" y="738" on="0"/>
        <pt x="246" y="688" on="1"/>
        <pt x="246" y="661" on="0"/>
        <pt x="219" y="637" on="0"/>
      </contour>
      <contour>
        <pt x="424" y="637" on="1"/>
        <pt x="398" y="637" on="0"/>
        <pt x="371" y="661" on="0"/>
        <pt x="371" y="688" on="1"/>
        <pt x="371" y="738" on="0"/>
        <pt x="424" y="738" on="1"/>
        <pt x="477" y="738" on="0"/>
        <pt x="477" y="688" on="1"/>
        <pt x="477" y="661" on="0"/>
        <pt x="450" y="637" on="0"/>
      </contour>
      <contour>
        <pt x="12" y="6" on="1"/>
        <pt x="244" y="577" on="1"/>
        <pt x="373" y="577" on="1"/>
        <pt x="603" y="6" on="1"/>
        <pt x="603" y="0" on="1"/>
        <pt x="519" y="0" on="1"/>
        <pt x="452" y="162" on="1"/>
        <pt x="164" y="162" on="1"/>
        <pt x="97" y="0" on="1"/>
        <pt x="12" y="0" on="1"/>
      </contour>
      <contour>
        <pt x="431" y="227" on="1"/>
        <pt x="351" y="419" on="1"/>
        <pt x="311" y="516" on="1"/>
        <pt x="304" y="516" on="1"/>
        <pt x="265" y="418" on="1"/>
        <pt x="185" y="227" on="1"/>
      </contour>
    </TTGlyph>
    <TTGlyph name="Agrave" xMin="7" yMin="0" xMax="674" yMax="947">
      <contour>
        <pt x="7" y="7" on="1"/>
        <pt x="273" y="740" on="1"/>
        <pt x="408" y="740" on="1"/>
        <pt x="674" y="7" on="1"/>
        <pt x="674" y="0" on="1"/>
        <pt x="586" y="0" on="1"/>
        <pt x="505" y="220" on="1"/>
        <pt x="174" y="220" on="1"/>
        <pt x="95" y="0" on="1"/>
        <pt x="7" y="0" on="1"/>
      </contour>
      <contour>
        <pt x="481" y="295" on="1"/>
        <pt x="390" y="545" on="1"/>
        <pt x="344" y="674" on="1"/>
        <pt x="336" y="674" on="1"/>
        <pt x="290" y="545" on="1"/>
        <pt x="199" y="295" on="1"/>
      </contour>
      <contour>
        <pt x="303" y="800" on="1"/>
        <pt x="206" y="947" on="1"/>
        <pt x="298" y="947" on="1"/>
        <pt x="372" y="813" on="1"/>
      </contour>
    </TTGlyph>
    <TTGlyph name="Agrave.sc" xMin="12" yMin="0" xMax="603" yMax="746">
      <contour>
        <pt x="12" y="6" on="1"/>
        <pt x="244" y="577" on="1"/>
        <pt x="373" y="577" on="1"/>
        <pt x="603" y="6" on="1"/>
        <pt x="603" y="0" on="1"/>
        <pt x="519" y="0" on="1"/>
        <pt x="452" y="162" on="1"/>
        <pt x="164" y="162" on="1"/>
        <pt x="97" y="0" on="1"/>
        <pt x="12" y="0" on="1"/>
      </contour>
      <contour>
        <pt x="431" y="227" on="1"/>
        <pt x="351" y="419" on="1"/>
        <pt x="311" y="516" on="1"/>
        <pt x="304" y="516" on="1"/>
        <pt x="265" y="418" on="1"/>
        <pt x="185" y="227" on="1"/>
      </contour>
      <contour>
        <pt x="273" y="625" on="1"/>
        <pt x="185" y="746" on="1"/>
        <pt x="274" y="746" on="1"/>
        <pt x="337" y="635" on="1"/>
      </contour>
    </TTGlyph>
    <TTGlyph name="Ainvertedbreve" xMin="7" yMin="0" xMax="674" yMax="967">
      <contour>
        <pt x="7" y="7" on="1"/>
        <pt x="273" y="740" on="1"/>
        <pt x="408" y="740" on="1"/>
        <pt x="674" y="7" on="1"/>
        <pt x="674" y="0" on="1"/>
        <pt x="586" y="0" on="1"/>
        <pt x="505" y="220" on="1"/>
        <pt x="174" y="220" on="1"/>
        <pt x="95" y="0" on="1"/>
        <pt x="7" y="0" on="1"/>
      </contour>
      <contour>
        <pt x="481" y="295" on="1"/>
        <pt x="390" y="545" on="1"/>
        <pt x="344" y="674" on="1"/>
        <pt x="336" y="674" on="1"/>
        <pt x="290" y="545" on="1"/>
        <pt x="199" y="295" on="1"/>
      </contour>
      <contour>
        <pt x="456" y="818" on="1"/>
        <pt x="456" y="864" on="0"/>
        <pt x="398" y="914" on="0"/>
        <pt x="341" y="914" on="1"/>
        <pt x="283" y="914" on="0"/>
        <pt x="225" y="864" on="0"/>
        <pt x="225" y="818" on="1"/>
        <pt x="159" y="818" on="1"/>
        <pt x="159" y="885" on="0"/>
        <pt x="249" y="967" on="0"/>
        <pt x="341" y="967" on="1"/>
        <pt x="432" y="967" on="0"/>
        <pt x="522" y="886" on="0"/>
        <pt x="522" y="818" on="1"/>
      </contour>
    </TTGlyph>
    <TTGlyph name="Ainvertedbreve.sc" xMin="12" yMin="0" xMax="603" yMax="760">
      <contour>
        <pt x="146" y="638" on="1"/>
        <pt x="146" y="692" on="0"/>
        <pt x="225" y="760" on="0"/>
        <pt x="308" y="760" on="1"/>
        <pt x="392" y="760" on="0"/>
        <pt x="471" y="693" on="0"/>
        <pt x="471" y="638" on="1"/>
        <pt x="409" y="638" on="1"/>
        <pt x="409" y="673" on="0"/>
        <pt x="359" y="712" on="0"/>
        <pt x="308" y="712" on="1"/>
        <pt x="257" y="712" on="0"/>
        <pt x="208" y="673" on="0"/>
        <pt x="208" y="638" on="1"/>
      </contour>
      <contour>
        <pt x="12" y="6" on="1"/>
        <pt x="244" y="577" on="1"/>
        <pt x="373" y="577" on="1"/>
        <pt x="603" y="6" on="1"/>
        <pt x="603" y="0" on="1"/>
        <pt x="519" y="0" on="1"/>
        <pt x="452" y="162" on="1"/>
        <pt x="164" y="162" on="1"/>
        <pt x="97" y="0" on="1"/>
        <pt x="12" y="0" on="1"/>
      </contour>
      <contour>
        <pt x="431" y="227" on="1"/>
        <pt x="351" y="419" on="1"/>
        <pt x="311" y="516" on="1"/>
        <pt x="304" y="516" on="1"/>
        <pt x="265" y="418" on="1"/>
        <pt x="185" y="227" on="1"/>
      </contour>
    </TTGlyph>
    <TTGlyph name="Amacron" xMin="7" yMin="0" xMax="674" yMax="907">
      <contour>
        <pt x="7" y="7" on="1"/>
        <pt x="273" y="740" on="1"/>
        <pt x="408" y="740" on="1"/>
        <pt x="674" y="7" on="1"/>
        <pt x="674" y="0" on="1"/>
        <pt x="586" y="0" on="1"/>
        <pt x="505" y="220" on="1"/>
        <pt x="174" y="220" on="1"/>
        <pt x="95" y="0" on="1"/>
        <pt x="7" y="0" on="1"/>
      </contour>
      <contour>
        <pt x="481" y="295" on="1"/>
        <pt x="390" y="545" on="1"/>
        <pt x="344" y="674" on="1"/>
        <pt x="336" y="674" on="1"/>
        <pt x="290" y="545" on="1"/>
        <pt x="199" y="295" on="1"/>
      </contour>
      <contour>
        <pt x="179" y="907" on="1"/>
        <pt x="501" y="907" on="1"/>
        <pt x="501" y="842" on="1"/>
        <pt x="179" y="842" on="1"/>
      </contour>
    </TTGlyph>
    <TTGlyph name="Amacron.sc" xMin="12" yMin="0" xMax="603" yMax="717">
      <contour>
        <pt x="12" y="6" on="1"/>
        <pt x="244" y="577" on="1"/>
        <pt x="373" y="577" on="1"/>
        <pt x="603" y="6" on="1"/>
        <pt x="603" y="0" on="1"/>
        <pt x="519" y="0" on="1"/>
        <pt x="452" y="162" on="1"/>
        <pt x="164" y="162" on="1"/>
        <pt x="97" y="0" on="1"/>
        <pt x="12" y="0" on="1"/>
      </contour>
      <contour>
        <pt x="431" y="227" on="1"/>
        <pt x="351" y="419" on="1"/>
        <pt x="311" y="516" on="1"/>
        <pt x="304" y="516" on="1"/>
        <pt x="265" y="418" on="1"/>
        <pt x="185" y="227" on="1"/>
      </contour>
      <contour>
        <pt x="163" y="717" on="1"/>
        <pt x="452" y="717" on="1"/>
        <pt x="452" y="657" on="1"/>
        <pt x="163" y="657" on="1"/>
      </contour>
    </TTGlyph>
    <TTGlyph name="Aogonek" xMin="7" yMin="-220" xMax="674" yMax="740">
      <contour>
        <pt x="600" y="-220" on="1"/>
        <pt x="494" y="-220" on="0"/>
        <pt x="494" y="-136" on="1"/>
        <pt x="494" y="-98" on="0"/>
        <pt x="544" y="-35" on="0"/>
        <pt x="601" y="0" on="1"/>
        <pt x="586" y="0" on="1"/>
        <pt x="505" y="220" on="1"/>
        <pt x="174" y="220" on="1"/>
        <pt x="95" y="0" on="1"/>
        <pt x="7" y="0" on="1"/>
        <pt x="7" y="7" on="1"/>
        <pt x="273" y="740" on="1"/>
        <pt x="408" y="740" on="1"/>
        <pt x="674" y="7" on="1"/>
        <pt x="674" y="-17" on="1"/>
        <pt x="613" y="-46" on="0"/>
        <pt x="557" y="-102" on="0"/>
        <pt x="557" y="-131" on="1"/>
        <pt x="557" y="-165" on="0"/>
        <pt x="603" y="-165" on="1"/>
        <pt x="617" y="-165" on="0"/>
        <pt x="656" y="-159" on="0"/>
        <pt x="673" y="-154" on="1"/>
        <pt x="673" y="-208" on="1"/>
        <pt x="643" y="-220" on="0"/>
      </contour>
      <contour>
        <pt x="481" y="295" on="1"/>
        <pt x="390" y="545" on="1"/>
        <pt x="344" y="674" on="1"/>
        <pt x="336" y="674" on="1"/>
        <pt x="290" y="545" on="1"/>
        <pt x="199" y="295" on="1"/>
      </contour>
    </TTGlyph>
    <TTGlyph name="Aogonek.sc" xMin="11" yMin="-170" xMax="603" yMax="577">
      <contour>
        <pt x="535" y="-170" on="1"/>
        <pt x="441" y="-170" on="0"/>
        <pt x="441" y="-103" on="1"/>
        <pt x="441" y="-75" on="0"/>
        <pt x="480" y="-26" on="0"/>
        <pt x="527" y="0" on="1"/>
        <pt x="517" y="0" on="1"/>
        <pt x="451" y="162" on="1"/>
        <pt x="164" y="162" on="1"/>
        <pt x="96" y="0" on="1"/>
        <pt x="11" y="0" on="1"/>
        <pt x="11" y="6" on="1"/>
        <pt x="243" y="577" on="1"/>
        <pt x="372" y="577" on="1"/>
        <pt x="603" y="6" on="1"/>
        <pt x="603" y="-10" on="1"/>
        <pt x="548" y="-31" on="0"/>
        <pt x="501" y="-70" on="0"/>
        <pt x="501" y="-92" on="1"/>
        <pt x="501" y="-108" on="0"/>
        <pt x="521" y="-119" on="0"/>
        <pt x="539" y="-119" on="1"/>
        <pt x="553" y="-119" on="0"/>
        <pt x="589" y="-115" on="0"/>
        <pt x="603" y="-110" on="1"/>
        <pt x="603" y="-160" on="1"/>
        <pt x="588" y="-165" on="0"/>
        <pt x="552" y="-170" on="0"/>
      </contour>
      <contour>
        <pt x="429" y="227" on="1"/>
        <pt x="351" y="422" on="1"/>
        <pt x="310" y="516" on="1"/>
        <pt x="303" y="516" on="1"/>
        <pt x="264" y="421" on="1"/>
        <pt x="183" y="227" on="1"/>
      </contour>
    </TTGlyph>
    <TTGlyph name="Aring" xMin="7" yMin="0" xMax="674" yMax="997">
      <contour>
        <pt x="7" y="7" on="1"/>
        <pt x="273" y="740" on="1"/>
        <pt x="408" y="740" on="1"/>
        <pt x="674" y="7" on="1"/>
        <pt x="674" y="0" on="1"/>
        <pt x="586" y="0" on="1"/>
        <pt x="505" y="220" on="1"/>
        <pt x="174" y="220" on="1"/>
        <pt x="95" y="0" on="1"/>
        <pt x="7" y="0" on="1"/>
      </contour>
      <contour>
        <pt x="481" y="295" on="1"/>
        <pt x="390" y="545" on="1"/>
        <pt x="344" y="674" on="1"/>
        <pt x="336" y="674" on="1"/>
        <pt x="290" y="545" on="1"/>
        <pt x="199" y="295" on="1"/>
      </contour>
      <contour>
        <pt x="342" y="780" on="1"/>
        <pt x="289" y="780" on="0"/>
        <pt x="221" y="841" on="0"/>
        <pt x="221" y="887" on="1"/>
        <pt x="221" y="935" on="0"/>
        <pt x="289" y="997" on="0"/>
        <pt x="342" y="997" on="1"/>
        <pt x="394" y="997" on="0"/>
        <pt x="461" y="935" on="0"/>
        <pt x="461" y="887" on="1"/>
        <pt x="461" y="841" on="0"/>
        <pt x="394" y="780" on="0"/>
      </contour>
      <contour>
        <pt x="342" y="824" on="1"/>
        <pt x="377" y="824" on="0"/>
        <pt x="413" y="857" on="0"/>
        <pt x="413" y="887" on="1"/>
        <pt x="413" y="918" on="0"/>
        <pt x="377" y="953" on="0"/>
        <pt x="342" y="953" on="1"/>
        <pt x="306" y="953" on="0"/>
        <pt x="269" y="918" on="0"/>
        <pt x="269" y="887" on="1"/>
        <pt x="269" y="857" on="0"/>
        <pt x="306" y="824" on="0"/>
      </contour>
    </TTGlyph>
    <TTGlyph name="Aring.sc" xMin="12" yMin="0" xMax="603" yMax="793">
      <contour>
        <pt x="12" y="6" on="1"/>
        <pt x="244" y="577" on="1"/>
        <pt x="373" y="577" on="1"/>
        <pt x="603" y="6" on="1"/>
        <pt x="603" y="0" on="1"/>
        <pt x="519" y="0" on="1"/>
        <pt x="452" y="162" on="1"/>
        <pt x="164" y="162" on="1"/>
        <pt x="97" y="0" on="1"/>
        <pt x="12" y="0" on="1"/>
      </contour>
      <contour>
        <pt x="431" y="227" on="1"/>
        <pt x="351" y="419" on="1"/>
        <pt x="311" y="516" on="1"/>
        <pt x="304" y="516" on="1"/>
        <pt x="265" y="418" on="1"/>
        <pt x="185" y="227" on="1"/>
      </contour>
      <contour>
        <pt x="309" y="621" on="1"/>
        <pt x="262" y="621" on="0"/>
        <pt x="202" y="668" on="0"/>
        <pt x="202" y="706" on="1"/>
        <pt x="202" y="743" on="0"/>
        <pt x="262" y="793" on="0"/>
        <pt x="309" y="793" on="1"/>
        <pt x="356" y="793" on="0"/>
        <pt x="415" y="743" on="0"/>
        <pt x="415" y="706" on="1"/>
        <pt x="415" y="668" on="0"/>
        <pt x="356" y="621" on="0"/>
      </contour>
      <contour>
        <pt x="309" y="658" on="1"/>
        <pt x="341" y="658" on="0"/>
        <pt x="371" y="683" on="0"/>
        <pt x="371" y="706" on="1"/>
        <pt x="371" y="755" on="0"/>
        <pt x="309" y="755" on="1"/>
        <pt x="246" y="755" on="0"/>
        <pt x="246" y="706" on="1"/>
        <pt x="246" y="683" on="0"/>
        <pt x="277" y="658" on="0"/>
      </contour>
    </TTGlyph>
    <TTGlyph name="Aringacute" xMin="8" yMin="0" xMax="674" yMax="971">
      <contour>
        <pt x="8" y="7" on="1"/>
        <pt x="246" y="662" on="1"/>
        <pt x="224" y="677" on="0"/>
        <pt x="200" y="721" on="0"/>
        <pt x="200" y="750" on="1"/>
        <pt x="200" y="795" on="0"/>
        <pt x="260" y="859" on="0"/>
        <pt x="311" y="867" on="1"/>
        <pt x="371" y="971" on="1"/>
        <pt x="463" y="971" on="1"/>
        <pt x="390" y="861" on="1"/>
        <pt x="431" y="850" on="0"/>
        <pt x="479" y="790" on="0"/>
        <pt x="479" y="750" on="1"/>
        <pt x="479" y="723" on="0"/>
        <pt x="455" y="677" on="0"/>
        <pt x="435" y="663" on="1"/>
        <pt x="674" y="7" on="1"/>
        <pt x="674" y="0" on="1"/>
        <pt x="587" y="0" on="1"/>
        <pt x="506" y="219" on="1"/>
        <pt x="175" y="219" on="1"/>
        <pt x="95" y="0" on="1"/>
        <pt x="8" y="0" on="1"/>
      </contour>
      <contour>
        <pt x="340" y="683" on="1"/>
        <pt x="375" y="683" on="0"/>
        <pt x="419" y="719" on="0"/>
        <pt x="419" y="750" on="1"/>
        <pt x="419" y="781" on="0"/>
        <pt x="376" y="817" on="0"/>
        <pt x="340" y="817" on="1"/>
        <pt x="303" y="817" on="0"/>
        <pt x="262" y="781" on="0"/>
        <pt x="262" y="750" on="1"/>
        <pt x="262" y="719" on="0"/>
        <pt x="304" y="683" on="0"/>
      </contour>
      <contour>
        <pt x="481" y="296" on="1"/>
        <pt x="392" y="545" on="1"/>
        <pt x="362" y="627" on="1"/>
        <pt x="319" y="627" on="1"/>
        <pt x="289" y="545" on="1"/>
        <pt x="199" y="296" on="1"/>
      </contour>
    </TTGlyph>
    <TTGlyph name="Aringacute.sc" xMin="13" yMin="0" xMax="604" yMax="766">
      <contour>
        <pt x="13" y="6" on="1"/>
        <pt x="221" y="519" on="1"/>
        <pt x="182" y="544" on="0"/>
        <pt x="182" y="587" on="1"/>
        <pt x="182" y="624" on="0"/>
        <pt x="235" y="675" on="0"/>
        <pt x="280" y="682" on="1"/>
        <pt x="332" y="766" on="1"/>
        <pt x="420" y="766" on="1"/>
        <pt x="355" y="677" on="1"/>
        <pt x="391" y="667" on="0"/>
        <pt x="435" y="619" on="0"/>
        <pt x="435" y="587" on="1"/>
        <pt x="435" y="566" on="0"/>
        <pt x="414" y="531" on="0"/>
        <pt x="396" y="519" on="1"/>
        <pt x="604" y="6" on="1"/>
        <pt x="604" y="0" on="1"/>
        <pt x="520" y="0" on="1"/>
        <pt x="452" y="162" on="1"/>
        <pt x="164" y="162" on="1"/>
        <pt x="97" y="0" on="1"/>
        <pt x="13" y="0" on="1"/>
      </contour>
      <contour>
        <pt x="308" y="536" on="1"/>
        <pt x="340" y="536" on="0"/>
        <pt x="377" y="564" on="0"/>
        <pt x="377" y="587" on="1"/>
        <pt x="377" y="610" on="0"/>
        <pt x="340" y="638" on="0"/>
        <pt x="308" y="638" on="1"/>
        <pt x="276" y="638" on="0"/>
        <pt x="239" y="610" on="0"/>
        <pt x="239" y="587" on="1"/>
        <pt x="239" y="564" on="0"/>
        <pt x="276" y="536" on="0"/>
      </contour>
      <contour>
        <pt x="431" y="227" on="1"/>
        <pt x="351" y="419" on="1"/>
        <pt x="326" y="485" on="1"/>
        <pt x="290" y="485" on="1"/>
        <pt x="265" y="418" on="1"/>
        <pt x="186" y="227" on="1"/>
      </contour>
    </TTGlyph>
    <TTGlyph name="Atilde" xMin="7" yMin="0" xMax="674" yMax="936">
      <contour>
        <pt x="7" y="7" on="1"/>
        <pt x="273" y="740" on="1"/>
        <pt x="408" y="740" on="1"/>
        <pt x="674" y="7" on="1"/>
        <pt x="674" y="0" on="1"/>
        <pt x="586" y="0" on="1"/>
        <pt x="505" y="220" on="1"/>
        <pt x="174" y="220" on="1"/>
        <pt x="95" y="0" on="1"/>
        <pt x="7" y="0" on="1"/>
      </contour>
      <contour>
        <pt x="481" y="295" on="1"/>
        <pt x="390" y="545" on="1"/>
        <pt x="344" y="674" on="1"/>
        <pt x="336" y="674" on="1"/>
        <pt x="290" y="545" on="1"/>
        <pt x="199" y="295" on="1"/>
      </contour>
      <contour>
        <pt x="146" y="861" on="1"/>
        <pt x="174" y="898" on="0"/>
        <pt x="240" y="936" on="0"/>
        <pt x="272" y="936" on="1"/>
        <pt x="296" y="936" on="0"/>
        <pt x="338" y="923" on="0"/>
        <pt x="378" y="908" on="0"/>
        <pt x="418" y="895" on="0"/>
        <pt x="441" y="895" on="1"/>
        <pt x="486" y="895" on="0"/>
        <pt x="530" y="933" on="1"/>
        <pt x="554" y="906" on="1"/>
        <pt x="528" y="870" on="0"/>
        <pt x="459" y="830" on="0"/>
        <pt x="424" y="830" on="1"/>
        <pt x="402" y="830" on="0"/>
        <pt x="360" y="843" on="0"/>
        <pt x="319" y="858" on="0"/>
        <pt x="279" y="871" on="0"/>
        <pt x="258" y="871" on="1"/>
        <pt x="235" y="871" on="0"/>
        <pt x="193" y="854" on="0"/>
        <pt x="170" y="834" on="1"/>
      </contour>
    </TTGlyph>
    <TTGlyph name="Atilde.sc" xMin="12" yMin="0" xMax="603" yMax="739">
      <contour>
        <pt x="12" y="6" on="1"/>
        <pt x="244" y="577" on="1"/>
        <pt x="373" y="577" on="1"/>
        <pt x="603" y="6" on="1"/>
        <pt x="603" y="0" on="1"/>
        <pt x="519" y="0" on="1"/>
        <pt x="452" y="162" on="1"/>
        <pt x="164" y="162" on="1"/>
        <pt x="97" y="0" on="1"/>
        <pt x="12" y="0" on="1"/>
      </contour>
      <contour>
        <pt x="431" y="227" on="1"/>
        <pt x="351" y="419" on="1"/>
        <pt x="311" y="516" on="1"/>
        <pt x="304" y="516" on="1"/>
        <pt x="265" y="418" on="1"/>
        <pt x="185" y="227" on="1"/>
      </contour>
      <contour>
        <pt x="134" y="672" on="1"/>
        <pt x="159" y="704" on="0"/>
        <pt x="219" y="739" on="0"/>
        <pt x="248" y="739" on="1"/>
        <pt x="269" y="739" on="0"/>
        <pt x="306" y="729" on="0"/>
        <pt x="342" y="718" on="0"/>
        <pt x="378" y="708" on="0"/>
        <pt x="398" y="708" on="1"/>
        <pt x="418" y="708" on="0"/>
        <pt x="457" y="721" on="0"/>
        <pt x="478" y="736" on="1"/>
        <pt x="499" y="715" on="1"/>
        <pt x="475" y="682" on="0"/>
        <pt x="412" y="647" on="0"/>
        <pt x="382" y="647" on="1"/>
        <pt x="362" y="647" on="0"/>
        <pt x="325" y="657" on="0"/>
        <pt x="288" y="669" on="0"/>
        <pt x="251" y="679" on="0"/>
        <pt x="233" y="679" on="1"/>
        <pt x="213" y="679" on="0"/>
        <pt x="174" y="666" on="0"/>
        <pt x="154" y="649" on="1"/>
      </contour>
    </TTGlyph>
    <TTGlyph name="B" xMin="89" yMin="-10" xMax="618" yMax="749">
      <contour>
        <pt x="328" y="-10" on="1"/>
        <pt x="215" y="-10" on="0"/>
        <pt x="89" y="5" on="1"/>
        <pt x="89" y="735" on="1"/>
        <pt x="161" y="743" on="0"/>
        <pt x="266" y="749" on="0"/>
        <pt x="316" y="749" on="1"/>
        <pt x="463" y="749" on="0"/>
        <pt x="593" y="655" on="0"/>
        <pt x="593" y="549" on="1"/>
        <pt x="593" y="483" on="0"/>
        <pt x="527" y="392" on="0"/>
        <pt x="467" y="379" on="1"/>
        <pt x="467" y="375" on="1"/>
        <pt x="540" y="361" on="0"/>
        <pt x="618" y="270" on="0"/>
        <pt x="618" y="195" on="1"/>
        <pt x="618" y="-10" on="0"/>
      </contour>
      <contour>
        <pt x="327" y="59" on="1"/>
        <pt x="430" y="59" on="0"/>
        <pt x="528" y="128" on="0"/>
        <pt x="528" y="201" on="1"/>
        <pt x="528" y="273" on="0"/>
        <pt x="436" y="342" on="0"/>
        <pt x="339" y="342" on="1"/>
        <pt x="174" y="342" on="1"/>
        <pt x="174" y="68" on="1"/>
        <pt x="220" y="59" on="0"/>
      </contour>
      <contour>
        <pt x="334" y="408" on="1"/>
        <pt x="426" y="408" on="0"/>
        <pt x="504" y="471" on="0"/>
        <pt x="504" y="545" on="1"/>
        <pt x="504" y="618" on="0"/>
        <pt x="420" y="680" on="0"/>
        <pt x="320" y="680" on="1"/>
        <pt x="275" y="680" on="0"/>
        <pt x="205" y="677" on="0"/>
        <pt x="174" y="672" on="1"/>
        <pt x="174" y="408" on="1"/>
      </contour>
    </TTGlyph>
    <TTGlyph name="B.sc" xMin="83" yMin="-8" xMax="553" yMax="584">
      <contour>
        <pt x="298" y="-8" on="1"/>
        <pt x="198" y="-8" on="0"/>
        <pt x="83" y="4" on="1"/>
        <pt x="83" y="573" on="1"/>
        <pt x="147" y="579" on="0"/>
        <pt x="241" y="584" on="0"/>
        <pt x="286" y="584" on="1"/>
        <pt x="417" y="584" on="0"/>
        <pt x="532" y="510" on="0"/>
        <pt x="532" y="427" on="1"/>
        <pt x="532" y="376" on="0"/>
        <pt x="473" y="307" on="0"/>
        <pt x="420" y="296" on="1"/>
        <pt x="420" y="293" on="1"/>
        <pt x="553" y="270" on="0"/>
        <pt x="553" y="153" on="1"/>
        <pt x="553" y="-8" on="0"/>
      </contour>
      <contour>
        <pt x="297" y="55" on="1"/>
        <pt x="385" y="55" on="0"/>
        <pt x="468" y="106" on="0"/>
        <pt x="468" y="160" on="1"/>
        <pt x="468" y="214" on="0"/>
        <pt x="391" y="263" on="0"/>
        <pt x="309" y="263" on="1"/>
        <pt x="166" y="263" on="1"/>
        <pt x="166" y="62" on="1"/>
        <pt x="186" y="58" on="0"/>
        <pt x="249" y="55" on="0"/>
      </contour>
      <contour>
        <pt x="303" y="321" on="1"/>
        <pt x="381" y="321" on="0"/>
        <pt x="448" y="367" on="0"/>
        <pt x="448" y="422" on="1"/>
        <pt x="448" y="476" on="0"/>
        <pt x="376" y="521" on="0"/>
        <pt x="290" y="521" on="1"/>
        <pt x="252" y="521" on="0"/>
        <pt x="192" y="519" on="0"/>
        <pt x="166" y="515" on="1"/>
        <pt x="166" y="321" on="1"/>
      </contour>
    </TTGlyph>
    <TTGlyph name="C" xMin="51" yMin="-9" xMax="550" yMax="750">
      <contour>
        <pt x="386" y="-9" on="1"/>
        <pt x="51" y="-9" on="0"/>
        <pt x="51" y="368" on="1"/>
        <pt x="51" y="562" on="0"/>
        <pt x="217" y="750" on="0"/>
        <pt x="385" y="750" on="1"/>
        <pt x="419" y="750" on="0"/>
        <pt x="506" y="741" on="0"/>
        <pt x="550" y="733" on="1"/>
        <pt x="550" y="657" on="1"/>
        <pt x="502" y="665" on="0"/>
        <pt x="425" y="673" on="0"/>
        <pt x="395" y="673" on="1"/>
        <pt x="264" y="673" on="0"/>
        <pt x="142" y="528" on="0"/>
        <pt x="142" y="369" on="1"/>
        <pt x="142" y="213" on="0"/>
        <pt x="261" y="67" on="0"/>
        <pt x="388" y="67" on="1"/>
        <pt x="404" y="67" on="0"/>
        <pt x="447" y="70" on="0"/>
        <pt x="492" y="75" on="0"/>
        <pt x="535" y="82" on="0"/>
        <pt x="550" y="86" on="1"/>
        <pt x="550" y="11" on="1"/>
        <pt x="515" y="3" on="0"/>
        <pt x="423" y="-9" on="0"/>
      </contour>
    </TTGlyph>
    <TTGlyph name="C.sc" xMin="51" yMin="-8" xMax="491" yMax="585">
      <contour>
        <pt x="346" y="-8" on="1"/>
        <pt x="51" y="-7" on="0"/>
        <pt x="51" y="287" on="1"/>
        <pt x="51" y="585" on="0"/>
        <pt x="344" y="585" on="1"/>
        <pt x="376" y="585" on="0"/>
        <pt x="453" y="578" on="0"/>
        <pt x="491" y="572" on="1"/>
        <pt x="491" y="500" on="1"/>
        <pt x="414" y="513" on="0"/>
        <pt x="353" y="513" on="1"/>
        <pt x="241" y="513" on="0"/>
        <pt x="139" y="406" on="0"/>
        <pt x="139" y="288" on="1"/>
        <pt x="139" y="171" on="0"/>
        <pt x="238" y="65" on="0"/>
        <pt x="348" y="65" on="1"/>
        <pt x="362" y="65" on="0"/>
        <pt x="400" y="67" on="0"/>
        <pt x="440" y="71" on="0"/>
        <pt x="478" y="76" on="0"/>
        <pt x="491" y="79" on="1"/>
        <pt x="491" y="9" on="1"/>
        <pt x="461" y="1" on="0"/>
        <pt x="379" y="-8" on="0"/>
      </contour>
    </TTGlyph>
    <TTGlyph name="Cacute" xMin="51" yMin="-9" xMax="550" yMax="947">
      <contour>
        <pt x="386" y="-9" on="1"/>
        <pt x="51" y="-9" on="0"/>
        <pt x="51" y="368" on="1"/>
        <pt x="51" y="562" on="0"/>
        <pt x="217" y="750" on="0"/>
        <pt x="385" y="750" on="1"/>
        <pt x="419" y="750" on="0"/>
        <pt x="506" y="741" on="0"/>
        <pt x="550" y="733" on="1"/>
        <pt x="550" y="657" on="1"/>
        <pt x="502" y="665" on="0"/>
        <pt x="425" y="673" on="0"/>
        <pt x="395" y="673" on="1"/>
        <pt x="264" y="673" on="0"/>
        <pt x="142" y="528" on="0"/>
        <pt x="142" y="369" on="1"/>
        <pt x="142" y="213" on="0"/>
        <pt x="261" y="67" on="0"/>
        <pt x="388" y="67" on="1"/>
        <pt x="404" y="67" on="0"/>
        <pt x="447" y="70" on="0"/>
        <pt x="492" y="75" on="0"/>
        <pt x="535" y="82" on="0"/>
        <pt x="550" y="86" on="1"/>
        <pt x="550" y="11" on="1"/>
        <pt x="515" y="3" on="0"/>
        <pt x="423" y="-9" on="0"/>
      </contour>
      <contour>
        <pt x="306" y="807" on="1"/>
        <pt x="380" y="947" on="1"/>
        <pt x="472" y="947" on="1"/>
        <pt x="374" y="800" on="1"/>
      </contour>
    </TTGlyph>
    <TTGlyph name="Cacute.sc" xMin="51" yMin="-8" xMax="491" yMax="746">
      <contour>
        <pt x="346" y="-8" on="1"/>
        <pt x="51" y="-7" on="0"/>
        <pt x="51" y="287" on="1"/>
        <pt x="51" y="585" on="0"/>
        <pt x="344" y="585" on="1"/>
        <pt x="373" y="585" on="0"/>
        <pt x="450" y="579" on="0"/>
        <pt x="491" y="572" on="1"/>
        <pt x="491" y="500" on="1"/>
        <pt x="446" y="507" on="0"/>
        <pt x="379" y="513" on="0"/>
        <pt x="353" y="513" on="1"/>
        <pt x="242" y="513" on="0"/>
        <pt x="139" y="407" on="0"/>
        <pt x="139" y="288" on="1"/>
        <pt x="139" y="171" on="0"/>
        <pt x="239" y="65" on="0"/>
        <pt x="348" y="65" on="1"/>
        <pt x="361" y="65" on="0"/>
        <pt x="400" y="67" on="0"/>
        <pt x="440" y="71" on="0"/>
        <pt x="478" y="76" on="0"/>
        <pt x="491" y="79" on="1"/>
        <pt x="491" y="9" on="1"/>
        <pt x="476" y="5" on="0"/>
        <pt x="439" y="-1" on="0"/>
        <pt x="400" y="-6" on="0"/>
        <pt x="362" y="-8" on="0"/>
      </contour>
      <contour>
        <pt x="271" y="631" on="1"/>
        <pt x="335" y="746" on="1"/>
        <pt x="423" y="746" on="1"/>
        <pt x="336" y="625" on="1"/>
      </contour>
    </TTGlyph>
    <TTGlyph name="Ccaron" xMin="51" yMin="-9" xMax="550" yMax="953">
      <contour>
        <pt x="386" y="-9" on="1"/>
        <pt x="51" y="-9" on="0"/>
        <pt x="51" y="368" on="1"/>
        <pt x="51" y="562" on="0"/>
        <pt x="217" y="750" on="0"/>
        <pt x="385" y="750" on="1"/>
        <pt x="419" y="750" on="0"/>
        <pt x="506" y="741" on="0"/>
        <pt x="550" y="733" on="1"/>
        <pt x="550" y="657" on="1"/>
        <pt x="502" y="665" on="0"/>
        <pt x="425" y="673" on="0"/>
        <pt x="395" y="673" on="1"/>
        <pt x="264" y="673" on="0"/>
        <pt x="142" y="528" on="0"/>
        <pt x="142" y="369" on="1"/>
        <pt x="142" y="213" on="0"/>
        <pt x="261" y="67" on="0"/>
        <pt x="388" y="67" on="1"/>
        <pt x="404" y="67" on="0"/>
        <pt x="447" y="70" on="0"/>
        <pt x="492" y="75" on="0"/>
        <pt x="535" y="82" on="0"/>
        <pt x="550" y="86" on="1"/>
        <pt x="550" y="11" on="1"/>
        <pt x="515" y="3" on="0"/>
        <pt x="423" y="-9" on="0"/>
      </contour>
      <contour>
        <pt x="183" y="953" on="1"/>
        <pt x="348" y="879" on="1"/>
        <pt x="513" y="953" on="1"/>
        <pt x="513" y="882" on="1"/>
        <pt x="347" y="808" on="1"/>
        <pt x="183" y="882" on="1"/>
      </contour>
    </TTGlyph>
    <TTGlyph name="Ccaron.sc" xMin="51" yMin="-8" xMax="491" yMax="751">
      <contour>
        <pt x="346" y="-8" on="1"/>
        <pt x="51" y="-7" on="0"/>
        <pt x="51" y="287" on="1"/>
        <pt x="51" y="585" on="0"/>
        <pt x="344" y="585" on="1"/>
        <pt x="373" y="585" on="0"/>
        <pt x="450" y="579" on="0"/>
        <pt x="491" y="572" on="1"/>
        <pt x="491" y="500" on="1"/>
        <pt x="446" y="507" on="0"/>
        <pt x="379" y="513" on="0"/>
        <pt x="353" y="513" on="1"/>
        <pt x="242" y="513" on="0"/>
        <pt x="139" y="407" on="0"/>
        <pt x="139" y="288" on="1"/>
        <pt x="139" y="171" on="0"/>
        <pt x="239" y="65" on="0"/>
        <pt x="348" y="65" on="1"/>
        <pt x="361" y="65" on="0"/>
        <pt x="400" y="67" on="0"/>
        <pt x="440" y="71" on="0"/>
        <pt x="478" y="76" on="0"/>
        <pt x="491" y="79" on="1"/>
        <pt x="491" y="9" on="1"/>
        <pt x="476" y="5" on="0"/>
        <pt x="439" y="-1" on="0"/>
        <pt x="400" y="-6" on="0"/>
        <pt x="362" y="-8" on="0"/>
      </contour>
      <contour>
        <pt x="163" y="751" on="1"/>
        <pt x="311" y="693" on="1"/>
        <pt x="459" y="751" on="1"/>
        <pt x="459" y="688" on="1"/>
        <pt x="310" y="630" on="1"/>
        <pt x="163" y="688" on="1"/>
      </contour>
    </TTGlyph>
    <TTGlyph name="Ccedilla" xMin="51" yMin="-220" xMax="550" yMax="750">
      <contour>
        <pt x="313" y="-220" on="1"/>
        <pt x="293" y="-220" on="0"/>
        <pt x="246" y="-213" on="0"/>
        <pt x="225" y="-208" on="1"/>
        <pt x="225" y="-148" on="1"/>
        <pt x="255" y="-159" on="0"/>
        <pt x="294" y="-159" on="1"/>
        <pt x="332" y="-159" on="0"/>
        <pt x="366" y="-132" on="0"/>
        <pt x="366" y="-100" on="1"/>
        <pt x="366" y="-79" on="0"/>
        <pt x="351" y="-36" on="0"/>
        <pt x="332" y="-6" on="1"/>
        <pt x="51" y="23" on="0"/>
        <pt x="51" y="368" on="1"/>
        <pt x="51" y="562" on="0"/>
        <pt x="217" y="750" on="0"/>
        <pt x="385" y="750" on="1"/>
        <pt x="419" y="750" on="0"/>
        <pt x="506" y="741" on="0"/>
        <pt x="550" y="733" on="1"/>
        <pt x="550" y="657" on="1"/>
        <pt x="502" y="665" on="0"/>
        <pt x="425" y="673" on="0"/>
        <pt x="395" y="673" on="1"/>
        <pt x="264" y="673" on="0"/>
        <pt x="142" y="528" on="0"/>
        <pt x="142" y="369" on="1"/>
        <pt x="142" y="213" on="0"/>
        <pt x="261" y="67" on="0"/>
        <pt x="388" y="67" on="1"/>
        <pt x="404" y="67" on="0"/>
        <pt x="447" y="70" on="0"/>
        <pt x="492" y="75" on="0"/>
        <pt x="535" y="82" on="0"/>
        <pt x="550" y="86" on="1"/>
        <pt x="550" y="11" on="1"/>
        <pt x="518" y="3" on="0"/>
        <pt x="434" y="-7" on="0"/>
        <pt x="398" y="-9" on="1"/>
        <pt x="418" y="-42" on="0"/>
        <pt x="432" y="-85" on="0"/>
        <pt x="432" y="-108" on="1"/>
        <pt x="432" y="-162" on="0"/>
        <pt x="370" y="-220" on="0"/>
      </contour>
    </TTGlyph>
    <TTGlyph name="Ccedilla.sc" xMin="51" yMin="-172" xMax="491" yMax="585">
      <contour>
        <pt x="283" y="-172" on="1"/>
        <pt x="266" y="-172" on="0"/>
        <pt x="225" y="-167" on="0"/>
        <pt x="204" y="-162" on="1"/>
        <pt x="204" y="-108" on="1"/>
        <pt x="219" y="-112" on="0"/>
        <pt x="250" y="-117" on="0"/>
        <pt x="267" y="-117" on="1"/>
        <pt x="301" y="-117" on="0"/>
        <pt x="327" y="-94" on="0"/>
        <pt x="327" y="-71" on="1"/>
        <pt x="327" y="-59" on="0"/>
        <pt x="315" y="-29" on="0"/>
        <pt x="300" y="-6" on="1"/>
        <pt x="175" y="3" on="0"/>
        <pt x="51" y="150" on="0"/>
        <pt x="51" y="287" on="1"/>
        <pt x="51" y="585" on="0"/>
        <pt x="344" y="585" on="1"/>
        <pt x="373" y="585" on="0"/>
        <pt x="450" y="579" on="0"/>
        <pt x="491" y="572" on="1"/>
        <pt x="491" y="500" on="1"/>
        <pt x="446" y="507" on="0"/>
        <pt x="379" y="513" on="0"/>
        <pt x="353" y="513" on="1"/>
        <pt x="242" y="513" on="0"/>
        <pt x="139" y="407" on="0"/>
        <pt x="139" y="288" on="1"/>
        <pt x="139" y="171" on="0"/>
        <pt x="239" y="65" on="0"/>
        <pt x="348" y="65" on="1"/>
        <pt x="362" y="65" on="0"/>
        <pt x="400" y="67" on="0"/>
        <pt x="440" y="71" on="0"/>
        <pt x="478" y="76" on="0"/>
        <pt x="491" y="79" on="1"/>
        <pt x="491" y="9" on="1"/>
        <pt x="464" y="2" on="0"/>
        <pt x="392" y="-6" on="0"/>
        <pt x="362" y="-8" on="1"/>
        <pt x="376" y="-33" on="0"/>
        <pt x="388" y="-66" on="0"/>
        <pt x="388" y="-82" on="1"/>
        <pt x="388" y="-126" on="0"/>
        <pt x="334" y="-172" on="0"/>
      </contour>
    </TTGlyph>
    <TTGlyph name="Ccircumflex" xMin="51" yMin="-9" xMax="550" yMax="957">
      <contour>
        <pt x="386" y="-9" on="1"/>
        <pt x="51" y="-9" on="0"/>
        <pt x="51" y="368" on="1"/>
        <pt x="51" y="562" on="0"/>
        <pt x="217" y="750" on="0"/>
        <pt x="385" y="750" on="1"/>
        <pt x="419" y="750" on="0"/>
        <pt x="506" y="741" on="0"/>
        <pt x="550" y="733" on="1"/>
        <pt x="550" y="657" on="1"/>
        <pt x="502" y="665" on="0"/>
        <pt x="425" y="673" on="0"/>
        <pt x="395" y="673" on="1"/>
        <pt x="264" y="673" on="0"/>
        <pt x="142" y="528" on="0"/>
        <pt x="142" y="369" on="1"/>
        <pt x="142" y="213" on="0"/>
        <pt x="261" y="67" on="0"/>
        <pt x="388" y="67" on="1"/>
        <pt x="404" y="67" on="0"/>
        <pt x="447" y="70" on="0"/>
        <pt x="492" y="75" on="0"/>
        <pt x="535" y="82" on="0"/>
        <pt x="550" y="86" on="1"/>
        <pt x="550" y="11" on="1"/>
        <pt x="515" y="3" on="0"/>
        <pt x="423" y="-9" on="0"/>
      </contour>
      <contour>
        <pt x="181" y="882" on="1"/>
        <pt x="346" y="957" on="1"/>
        <pt x="512" y="882" on="1"/>
        <pt x="512" y="812" on="1"/>
        <pt x="346" y="886" on="1"/>
        <pt x="181" y="812" on="1"/>
      </contour>
    </TTGlyph>
    <TTGlyph name="Ccircumflex.sc" xMin="51" yMin="-8" xMax="491" yMax="753">
      <contour>
        <pt x="346" y="-8" on="1"/>
        <pt x="51" y="-7" on="0"/>
        <pt x="51" y="287" on="1"/>
        <pt x="51" y="585" on="0"/>
        <pt x="344" y="585" on="1"/>
        <pt x="373" y="585" on="0"/>
        <pt x="450" y="579" on="0"/>
        <pt x="491" y="572" on="1"/>
        <pt x="491" y="500" on="1"/>
        <pt x="446" y="507" on="0"/>
        <pt x="379" y="513" on="0"/>
        <pt x="353" y="513" on="1"/>
        <pt x="242" y="513" on="0"/>
        <pt x="139" y="407" on="0"/>
        <pt x="139" y="288" on="1"/>
        <pt x="139" y="171" on="0"/>
        <pt x="239" y="65" on="0"/>
        <pt x="348" y="65" on="1"/>
        <pt x="361" y="65" on="0"/>
        <pt x="400" y="67" on="0"/>
        <pt x="440" y="71" on="0"/>
        <pt x="478" y="76" on="0"/>
        <pt x="491" y="79" on="1"/>
        <pt x="491" y="9" on="1"/>
        <pt x="476" y="5" on="0"/>
        <pt x="439" y="-1" on="0"/>
        <pt x="400" y="-6" on="0"/>
        <pt x="362" y="-8" on="0"/>
      </contour>
      <contour>
        <pt x="161" y="694" on="1"/>
        <pt x="309" y="753" on="1"/>
        <pt x="458" y="694" on="1"/>
        <pt x="458" y="631" on="1"/>
        <pt x="310" y="689" on="1"/>
        <pt x="161" y="631" on="1"/>
      </contour>
    </TTGlyph>
    <TTGlyph name="Cdotaccent" xMin="51" yMin="-9" xMax="550" yMax="925">
      <contour>
        <pt x="352" y="814" on="1"/>
        <pt x="324" y="814" on="0"/>
        <pt x="296" y="840" on="0"/>
        <pt x="296" y="869" on="1"/>
        <pt x="296" y="925" on="0"/>
        <pt x="352" y="925" on="1"/>
        <pt x="409" y="925" on="0"/>
        <pt x="409" y="869" on="1"/>
        <pt x="409" y="840" on="0"/>
        <pt x="380" y="814" on="0"/>
      </contour>
      <contour>
        <pt x="386" y="-9" on="1"/>
        <pt x="51" y="-9" on="0"/>
        <pt x="51" y="368" on="1"/>
        <pt x="51" y="562" on="0"/>
        <pt x="217" y="750" on="0"/>
        <pt x="385" y="750" on="1"/>
        <pt x="419" y="750" on="0"/>
        <pt x="506" y="741" on="0"/>
        <pt x="550" y="733" on="1"/>
        <pt x="550" y="657" on="1"/>
        <pt x="502" y="665" on="0"/>
        <pt x="425" y="673" on="0"/>
        <pt x="395" y="673" on="1"/>
        <pt x="264" y="673" on="0"/>
        <pt x="142" y="528" on="0"/>
        <pt x="142" y="369" on="1"/>
        <pt x="142" y="213" on="0"/>
        <pt x="261" y="67" on="0"/>
        <pt x="388" y="67" on="1"/>
        <pt x="404" y="67" on="0"/>
        <pt x="447" y="70" on="0"/>
        <pt x="492" y="75" on="0"/>
        <pt x="535" y="82" on="0"/>
        <pt x="550" y="86" on="1"/>
        <pt x="550" y="11" on="1"/>
        <pt x="515" y="3" on="0"/>
        <pt x="423" y="-9" on="0"/>
      </contour>
    </TTGlyph>
    <TTGlyph name="Cdotaccent.sc" xMin="51" yMin="-8" xMax="491" yMax="734">
      <contour>
        <pt x="346" y="-8" on="1"/>
        <pt x="51" y="-7" on="0"/>
        <pt x="51" y="287" on="1"/>
        <pt x="51" y="585" on="0"/>
        <pt x="344" y="585" on="1"/>
        <pt x="373" y="585" on="0"/>
        <pt x="450" y="579" on="0"/>
        <pt x="491" y="572" on="1"/>
        <pt x="491" y="500" on="1"/>
        <pt x="446" y="507" on="0"/>
        <pt x="379" y="513" on="0"/>
        <pt x="353" y="513" on="1"/>
        <pt x="242" y="513" on="0"/>
        <pt x="139" y="407" on="0"/>
        <pt x="139" y="288" on="1"/>
        <pt x="139" y="171" on="0"/>
        <pt x="239" y="65" on="0"/>
        <pt x="348" y="65" on="1"/>
        <pt x="361" y="65" on="0"/>
        <pt x="400" y="67" on="0"/>
        <pt x="440" y="71" on="0"/>
        <pt x="478" y="76" on="0"/>
        <pt x="491" y="79" on="1"/>
        <pt x="491" y="9" on="1"/>
        <pt x="476" y="5" on="0"/>
        <pt x="439" y="-1" on="0"/>
        <pt x="400" y="-6" on="0"/>
        <pt x="362" y="-8" on="0"/>
      </contour>
      <contour>
        <pt x="316" y="633" on="1"/>
        <pt x="290" y="633" on="0"/>
        <pt x="263" y="657" on="0"/>
        <pt x="263" y="684" on="1"/>
        <pt x="263" y="734" on="0"/>
        <pt x="316" y="734" on="1"/>
        <pt x="370" y="734" on="0"/>
        <pt x="370" y="684" on="1"/>
        <pt x="370" y="633" on="0"/>
      </contour>
    </TTGlyph>
    <TTGlyph name="D" xMin="89" yMin="-11" xMax="678" yMax="749">
      <contour>
        <pt x="276" y="-11" on="1"/>
        <pt x="218" y="-11" on="0"/>
        <pt x="117" y="-4" on="0"/>
        <pt x="89" y="3" on="1"/>
        <pt x="89" y="738" on="1"/>
        <pt x="115" y="740" on="0"/>
        <pt x="172" y="744" on="0"/>
        <pt x="227" y="747" on="0"/>
        <pt x="277" y="749" on="0"/>
        <pt x="297" y="749" on="1"/>
        <pt x="494" y="749" on="0"/>
        <pt x="678" y="566" on="0"/>
        <pt x="678" y="370" on="1"/>
        <pt x="678" y="271" on="0"/>
        <pt x="631" y="127" on="0"/>
        <pt x="533" y="34" on="0"/>
        <pt x="381" y="-11" on="0"/>
      </contour>
      <contour>
        <pt x="303" y="64" on="1"/>
        <pt x="377" y="64" on="0"/>
        <pt x="484" y="99" on="0"/>
        <pt x="553" y="174" on="0"/>
        <pt x="586" y="290" on="0"/>
        <pt x="586" y="370" on="1"/>
        <pt x="586" y="450" on="0"/>
        <pt x="554" y="565" on="0"/>
        <pt x="485" y="638" on="0"/>
        <pt x="379" y="673" on="0"/>
        <pt x="306" y="673" on="1"/>
        <pt x="280" y="673" on="0"/>
        <pt x="208" y="669" on="0"/>
        <pt x="178" y="666" on="1"/>
        <pt x="178" y="73" on="1"/>
        <pt x="214" y="68" on="0"/>
        <pt x="270" y="64" on="0"/>
      </contour>
    </TTGlyph>
    <TTGlyph name="D.sc" xMin="83" yMin="-8" xMax="607" yMax="584">
      <contour>
        <pt x="264" y="-8" on="1"/>
        <pt x="210" y="-8" on="0"/>
        <pt x="111" y="-2" on="0"/>
        <pt x="83" y="4" on="1"/>
        <pt x="83" y="576" on="1"/>
        <pt x="130" y="580" on="0"/>
        <pt x="235" y="584" on="0"/>
        <pt x="270" y="584" on="1"/>
        <pt x="444" y="584" on="0"/>
        <pt x="607" y="441" on="0"/>
        <pt x="607" y="288" on="1"/>
        <pt x="607" y="135" on="0"/>
        <pt x="442" y="-8" on="0"/>
      </contour>
      <contour>
        <pt x="279" y="63" on="1"/>
        <pt x="405" y="63" on="0"/>
        <pt x="519" y="169" on="0"/>
        <pt x="519" y="288" on="1"/>
        <pt x="519" y="407" on="0"/>
        <pt x="406" y="513" on="0"/>
        <pt x="280" y="513" on="1"/>
        <pt x="257" y="513" on="0"/>
        <pt x="195" y="510" on="0"/>
        <pt x="169" y="508" on="1"/>
        <pt x="169" y="70" on="1"/>
        <pt x="201" y="65" on="0"/>
        <pt x="249" y="63" on="0"/>
      </contour>
    </TTGlyph>
    <TTGlyph name="Dcaron" xMin="89" yMin="-11" xMax="678" yMax="953">
      <contour>
        <pt x="175" y="953" on="1"/>
        <pt x="340" y="879" on="1"/>
        <pt x="505" y="953" on="1"/>
        <pt x="505" y="882" on="1"/>
        <pt x="339" y="808" on="1"/>
        <pt x="175" y="882" on="1"/>
      </contour>
      <contour>
        <pt x="276" y="-11" on="1"/>
        <pt x="218" y="-11" on="0"/>
        <pt x="117" y="-4" on="0"/>
        <pt x="89" y="3" on="1"/>
        <pt x="89" y="738" on="1"/>
        <pt x="115" y="740" on="0"/>
        <pt x="172" y="744" on="0"/>
        <pt x="227" y="747" on="0"/>
        <pt x="277" y="749" on="0"/>
        <pt x="297" y="749" on="1"/>
        <pt x="494" y="749" on="0"/>
        <pt x="678" y="566" on="0"/>
        <pt x="678" y="370" on="1"/>
        <pt x="678" y="271" on="0"/>
        <pt x="631" y="127" on="0"/>
        <pt x="533" y="34" on="0"/>
        <pt x="381" y="-11" on="0"/>
      </contour>
      <contour>
        <pt x="303" y="64" on="1"/>
        <pt x="377" y="64" on="0"/>
        <pt x="484" y="99" on="0"/>
        <pt x="553" y="174" on="0"/>
        <pt x="586" y="290" on="0"/>
        <pt x="586" y="370" on="1"/>
        <pt x="586" y="450" on="0"/>
        <pt x="554" y="565" on="0"/>
        <pt x="485" y="638" on="0"/>
        <pt x="379" y="673" on="0"/>
        <pt x="306" y="673" on="1"/>
        <pt x="280" y="673" on="0"/>
        <pt x="208" y="669" on="0"/>
        <pt x="178" y="666" on="1"/>
        <pt x="178" y="73" on="1"/>
        <pt x="214" y="68" on="0"/>
        <pt x="270" y="64" on="0"/>
      </contour>
    </TTGlyph>
    <TTGlyph name="Dcaron.sc" xMin="83" yMin="-8" xMax="607" yMax="751">
      <contour>
        <pt x="264" y="-8" on="1"/>
        <pt x="210" y="-8" on="0"/>
        <pt x="111" y="-2" on="0"/>
        <pt x="83" y="4" on="1"/>
        <pt x="83" y="576" on="1"/>
        <pt x="130" y="580" on="0"/>
        <pt x="235" y="584" on="0"/>
        <pt x="270" y="584" on="1"/>
        <pt x="444" y="584" on="0"/>
        <pt x="607" y="441" on="0"/>
        <pt x="607" y="288" on="1"/>
        <pt x="607" y="135" on="0"/>
        <pt x="442" y="-8" on="0"/>
      </contour>
      <contour>
        <pt x="279" y="63" on="1"/>
        <pt x="405" y="63" on="0"/>
        <pt x="519" y="169" on="0"/>
        <pt x="519" y="288" on="1"/>
        <pt x="519" y="407" on="0"/>
        <pt x="406" y="513" on="0"/>
        <pt x="280" y="513" on="1"/>
        <pt x="257" y="513" on="0"/>
        <pt x="195" y="510" on="0"/>
        <pt x="169" y="508" on="1"/>
        <pt x="169" y="70" on="1"/>
        <pt x="201" y="65" on="0"/>
        <pt x="249" y="63" on="0"/>
      </contour>
      <contour>
        <pt x="161" y="688" on="1"/>
        <pt x="161" y="751" on="1"/>
        <pt x="309" y="693" on="1"/>
        <pt x="458" y="751" on="1"/>
        <pt x="458" y="688" on="1"/>
        <pt x="308" y="630" on="1"/>
      </contour>
    </TTGlyph>
    <TTGlyph name="Dcroat" xMin="4" yMin="-11" xMax="690" yMax="749">
      <contour>
        <pt x="4" y="406" on="1"/>
        <pt x="101" y="406" on="1"/>
        <pt x="101" y="738" on="1"/>
        <pt x="127" y="740" on="0"/>
        <pt x="184" y="744" on="0"/>
        <pt x="239" y="747" on="0"/>
        <pt x="289" y="749" on="0"/>
        <pt x="309" y="749" on="1"/>
        <pt x="506" y="749" on="0"/>
        <pt x="690" y="566" on="0"/>
        <pt x="690" y="370" on="1"/>
        <pt x="690" y="271" on="0"/>
        <pt x="643" y="127" on="0"/>
        <pt x="545" y="34" on="0"/>
        <pt x="393" y="-11" on="0"/>
        <pt x="288" y="-11" on="1"/>
        <pt x="230" y="-11" on="0"/>
        <pt x="129" y="-4" on="0"/>
        <pt x="101" y="3" on="1"/>
        <pt x="101" y="334" on="1"/>
        <pt x="4" y="334" on="1"/>
      </contour>
      <contour>
        <pt x="315" y="64" on="1"/>
        <pt x="389" y="64" on="0"/>
        <pt x="496" y="99" on="0"/>
        <pt x="565" y="174" on="0"/>
        <pt x="598" y="290" on="0"/>
        <pt x="598" y="370" on="1"/>
        <pt x="598" y="450" on="0"/>
        <pt x="566" y="565" on="0"/>
        <pt x="497" y="638" on="0"/>
        <pt x="391" y="673" on="0"/>
        <pt x="318" y="673" on="1"/>
        <pt x="292" y="673" on="0"/>
        <pt x="220" y="669" on="0"/>
        <pt x="190" y="666" on="1"/>
        <pt x="190" y="406" on="1"/>
        <pt x="370" y="406" on="1"/>
        <pt x="370" y="334" on="1"/>
        <pt x="190" y="334" on="1"/>
        <pt x="190" y="73" on="1"/>
        <pt x="226" y="68" on="0"/>
        <pt x="282" y="64" on="0"/>
      </contour>
    </TTGlyph>
    <TTGlyph name="Dcroat.sc" xMin="13" yMin="-8" xMax="619" yMax="584">
      <contour>
        <pt x="13" y="323" on="1"/>
        <pt x="96" y="323" on="1"/>
        <pt x="96" y="576" on="1"/>
        <pt x="120" y="578" on="0"/>
        <pt x="171" y="581" on="0"/>
        <pt x="220" y="583" on="0"/>
        <pt x="265" y="584" on="0"/>
        <pt x="282" y="584" on="1"/>
        <pt x="457" y="584" on="0"/>
        <pt x="619" y="442" on="0"/>
        <pt x="619" y="288" on="1"/>
        <pt x="619" y="210" on="0"/>
        <pt x="578" y="98" on="0"/>
        <pt x="492" y="26" on="0"/>
        <pt x="357" y="-8" on="0"/>
        <pt x="264" y="-8" on="1"/>
        <pt x="212" y="-8" on="0"/>
        <pt x="121" y="-2" on="0"/>
        <pt x="96" y="4" on="1"/>
        <pt x="96" y="255" on="1"/>
        <pt x="13" y="255" on="1"/>
      </contour>
      <contour>
        <pt x="292" y="63" on="1"/>
        <pt x="417" y="63" on="0"/>
        <pt x="531" y="169" on="0"/>
        <pt x="531" y="288" on="1"/>
        <pt x="531" y="348" on="0"/>
        <pt x="504" y="433" on="0"/>
        <pt x="446" y="488" on="0"/>
        <pt x="355" y="513" on="0"/>
        <pt x="292" y="513" on="1"/>
        <pt x="269" y="513" on="0"/>
        <pt x="209" y="510" on="0"/>
        <pt x="182" y="508" on="1"/>
        <pt x="182" y="323" on="1"/>
        <pt x="335" y="323" on="1"/>
        <pt x="335" y="255" on="1"/>
        <pt x="182" y="255" on="1"/>
        <pt x="182" y="70" on="1"/>
        <pt x="213" y="65" on="0"/>
        <pt x="263" y="63" on="0"/>
      </contour>
    </TTGlyph>
    <TTGlyph name="Ddotbelow" xMin="89" yMin="-183" xMax="678" yMax="749">
      <contour>
        <pt x="347" y="-183" on="1"/>
        <pt x="321" y="-183" on="0"/>
        <pt x="295" y="-159" on="0"/>
        <pt x="295" y="-132" on="1"/>
        <pt x="295" y="-105" on="0"/>
        <pt x="321" y="-81" on="0"/>
        <pt x="347" y="-81" on="1"/>
        <pt x="373" y="-81" on="0"/>
        <pt x="398" y="-105" on="0"/>
        <pt x="398" y="-132" on="1"/>
        <pt x="398" y="-159" on="0"/>
        <pt x="373" y="-183" on="0"/>
      </contour>
      <contour>
        <pt x="276" y="-11" on="1"/>
        <pt x="218" y="-11" on="0"/>
        <pt x="117" y="-4" on="0"/>
        <pt x="89" y="3" on="1"/>
        <pt x="89" y="738" on="1"/>
        <pt x="115" y="740" on="0"/>
        <pt x="172" y="744" on="0"/>
        <pt x="227" y="747" on="0"/>
        <pt x="277" y="749" on="0"/>
        <pt x="297" y="749" on="1"/>
        <pt x="494" y="749" on="0"/>
        <pt x="678" y="566" on="0"/>
        <pt x="678" y="370" on="1"/>
        <pt x="678" y="271" on="0"/>
        <pt x="631" y="127" on="0"/>
        <pt x="533" y="34" on="0"/>
        <pt x="381" y="-11" on="0"/>
      </contour>
      <contour>
        <pt x="303" y="64" on="1"/>
        <pt x="377" y="64" on="0"/>
        <pt x="484" y="99" on="0"/>
        <pt x="553" y="174" on="0"/>
        <pt x="586" y="290" on="0"/>
        <pt x="586" y="370" on="1"/>
        <pt x="586" y="450" on="0"/>
        <pt x="554" y="565" on="0"/>
        <pt x="485" y="638" on="0"/>
        <pt x="379" y="673" on="0"/>
        <pt x="306" y="673" on="1"/>
        <pt x="280" y="673" on="0"/>
        <pt x="208" y="669" on="0"/>
        <pt x="178" y="666" on="1"/>
        <pt x="178" y="73" on="1"/>
        <pt x="214" y="68" on="0"/>
        <pt x="270" y="64" on="0"/>
      </contour>
    </TTGlyph>
    <TTGlyph name="Ddotbelow.sc" xMin="83" yMin="-147" xMax="607" yMax="584">
      <contour>
        <pt x="264" y="-8" on="1"/>
        <pt x="210" y="-8" on="0"/>
        <pt x="111" y="-2" on="0"/>
        <pt x="83" y="4" on="1"/>
        <pt x="83" y="576" on="1"/>
        <pt x="130" y="580" on="0"/>
        <pt x="235" y="584" on="0"/>
        <pt x="270" y="584" on="1"/>
        <pt x="444" y="584" on="0"/>
        <pt x="607" y="441" on="0"/>
        <pt x="607" y="288" on="1"/>
        <pt x="607" y="135" on="0"/>
        <pt x="442" y="-8" on="0"/>
      </contour>
      <contour>
        <pt x="279" y="63" on="1"/>
        <pt x="405" y="63" on="0"/>
        <pt x="519" y="169" on="0"/>
        <pt x="519" y="288" on="1"/>
        <pt x="519" y="407" on="0"/>
        <pt x="406" y="513" on="0"/>
        <pt x="280" y="513" on="1"/>
        <pt x="257" y="513" on="0"/>
        <pt x="195" y="510" on="0"/>
        <pt x="169" y="508" on="1"/>
        <pt x="169" y="70" on="1"/>
        <pt x="201" y="65" on="0"/>
        <pt x="249" y="63" on="0"/>
      </contour>
      <contour>
        <pt x="314" y="-147" on="1"/>
        <pt x="267" y="-147" on="0"/>
        <pt x="267" y="-104" on="1"/>
        <pt x="267" y="-59" on="0"/>
        <pt x="314" y="-59" on="1"/>
        <pt x="362" y="-59" on="0"/>
        <pt x="362" y="-104" on="1"/>
        <pt x="362" y="-147" on="0"/>
      </contour>
    </TTGlyph>
    <TTGlyph name="Delta" xMin="25" yMin="0" xMax="721" yMax="740">
      <contour>
        <pt x="319" y="740" on="1"/>
        <pt x="427" y="740" on="1"/>
        <pt x="721" y="0" on="1"/>
        <pt x="25" y="0" on="1"/>
      </contour>
      <contour>
        <pt x="607" y="74" on="1"/>
        <pt x="373" y="662" on="1"/>
        <pt x="138" y="74" on="1"/>
      </contour>
    </TTGlyph>
    <TTGlyph name="E" xMin="89" yMin="0" xMax="568" yMax="740">
      <contour>
        <pt x="89" y="740" on="1"/>
        <pt x="559" y="740" on="1"/>
        <pt x="559" y="666" on="1"/>
        <pt x="178" y="666" on="1"/>
        <pt x="178" y="412" on="1"/>
        <pt x="533" y="412" on="1"/>
        <pt x="533" y="338" on="1"/>
        <pt x="178" y="338" on="1"/>
        <pt x="178" y="74" on="1"/>
        <pt x="568" y="74" on="1"/>
        <pt x="568" y="0" on="1"/>
        <pt x="89" y="0" on="1"/>
      </contour>
    </TTGlyph>
    <TTGlyph name="E.sc" xMin="84" yMin="0" xMax="510" yMax="577">
      <contour>
        <pt x="84" y="577" on="1"/>
        <pt x="503" y="577" on="1"/>
        <pt x="503" y="509" on="1"/>
        <pt x="170" y="509" on="1"/>
        <pt x="170" y="324" on="1"/>
        <pt x="480" y="324" on="1"/>
        <pt x="480" y="262" on="1"/>
        <pt x="170" y="262" on="1"/>
        <pt x="170" y="68" on="1"/>
        <pt x="510" y="68" on="1"/>
        <pt x="510" y="0" on="1"/>
        <pt x="84" y="0" on="1"/>
      </contour>
    </TTGlyph>
    <TTGlyph name="Eacute" xMin="89" yMin="0" xMax="568" yMax="947">
      <contour>
        <pt x="284" y="807" on="1"/>
        <pt x="358" y="947" on="1"/>
        <pt x="450" y="947" on="1"/>
        <pt x="352" y="800" on="1"/>
      </contour>
      <contour>
        <pt x="89" y="740" on="1"/>
        <pt x="559" y="740" on="1"/>
        <pt x="559" y="666" on="1"/>
        <pt x="178" y="666" on="1"/>
        <pt x="178" y="412" on="1"/>
        <pt x="533" y="412" on="1"/>
        <pt x="533" y="338" on="1"/>
        <pt x="178" y="338" on="1"/>
        <pt x="178" y="74" on="1"/>
        <pt x="568" y="74" on="1"/>
        <pt x="568" y="0" on="1"/>
        <pt x="89" y="0" on="1"/>
      </contour>
    </TTGlyph>
    <TTGlyph name="Eacute.sc" xMin="84" yMin="0" xMax="510" yMax="746">
      <contour>
        <pt x="84" y="577" on="1"/>
        <pt x="503" y="577" on="1"/>
        <pt x="503" y="509" on="1"/>
        <pt x="170" y="509" on="1"/>
        <pt x="170" y="324" on="1"/>
        <pt x="480" y="324" on="1"/>
        <pt x="480" y="262" on="1"/>
        <pt x="170" y="262" on="1"/>
        <pt x="170" y="68" on="1"/>
        <pt x="510" y="68" on="1"/>
        <pt x="510" y="0" on="1"/>
        <pt x="84" y="0" on="1"/>
      </contour>
      <contour>
        <pt x="255" y="631" on="1"/>
        <pt x="318" y="746" on="1"/>
        <pt x="406" y="746" on="1"/>
        <pt x="320" y="625" on="1"/>
      </contour>
    </TTGlyph>
    <TTGlyph name="Ebreve" xMin="89" yMin="0" xMax="568" yMax="962">
      <contour>
        <pt x="322" y="813" on="1"/>
        <pt x="231" y="813" on="0"/>
        <pt x="141" y="895" on="0"/>
        <pt x="141" y="962" on="1"/>
        <pt x="207" y="962" on="1"/>
        <pt x="207" y="917" on="0"/>
        <pt x="265" y="866" on="0"/>
        <pt x="322" y="866" on="1"/>
        <pt x="380" y="866" on="0"/>
        <pt x="438" y="917" on="0"/>
        <pt x="438" y="962" on="1"/>
        <pt x="504" y="962" on="1"/>
        <pt x="504" y="894" on="0"/>
        <pt x="413" y="813" on="0"/>
      </contour>
      <contour>
        <pt x="89" y="740" on="1"/>
        <pt x="559" y="740" on="1"/>
        <pt x="559" y="666" on="1"/>
        <pt x="178" y="666" on="1"/>
        <pt x="178" y="412" on="1"/>
        <pt x="533" y="412" on="1"/>
        <pt x="533" y="338" on="1"/>
        <pt x="178" y="338" on="1"/>
        <pt x="178" y="74" on="1"/>
        <pt x="568" y="74" on="1"/>
        <pt x="568" y="0" on="1"/>
        <pt x="89" y="0" on="1"/>
      </contour>
    </TTGlyph>
    <TTGlyph name="Ebreve.sc" xMin="84" yMin="0" xMax="510" yMax="756">
      <contour>
        <pt x="292" y="633" on="1"/>
        <pt x="209" y="633" on="0"/>
        <pt x="130" y="701" on="0"/>
        <pt x="130" y="756" on="1"/>
        <pt x="192" y="756" on="1"/>
        <pt x="192" y="720" on="0"/>
        <pt x="241" y="681" on="0"/>
        <pt x="292" y="681" on="1"/>
        <pt x="343" y="681" on="0"/>
        <pt x="393" y="720" on="0"/>
        <pt x="393" y="756" on="1"/>
        <pt x="454" y="756" on="1"/>
        <pt x="454" y="701" on="0"/>
        <pt x="375" y="633" on="0"/>
      </contour>
      <contour>
        <pt x="84" y="577" on="1"/>
        <pt x="503" y="577" on="1"/>
        <pt x="503" y="509" on="1"/>
        <pt x="170" y="509" on="1"/>
        <pt x="170" y="324" on="1"/>
        <pt x="480" y="324" on="1"/>
        <pt x="480" y="262" on="1"/>
        <pt x="170" y="262" on="1"/>
        <pt x="170" y="68" on="1"/>
        <pt x="510" y="68" on="1"/>
        <pt x="510" y="0" on="1"/>
        <pt x="84" y="0" on="1"/>
      </contour>
    </TTGlyph>
    <TTGlyph name="Ecaron" xMin="89" yMin="0" xMax="568" yMax="953">
      <contour>
        <pt x="162" y="953" on="1"/>
        <pt x="327" y="879" on="1"/>
        <pt x="492" y="953" on="1"/>
        <pt x="492" y="882" on="1"/>
        <pt x="326" y="808" on="1"/>
        <pt x="162" y="882" on="1"/>
      </contour>
      <contour>
        <pt x="89" y="740" on="1"/>
        <pt x="559" y="740" on="1"/>
        <pt x="559" y="666" on="1"/>
        <pt x="178" y="666" on="1"/>
        <pt x="178" y="412" on="1"/>
        <pt x="533" y="412" on="1"/>
        <pt x="533" y="338" on="1"/>
        <pt x="178" y="338" on="1"/>
        <pt x="178" y="74" on="1"/>
        <pt x="568" y="74" on="1"/>
        <pt x="568" y="0" on="1"/>
        <pt x="89" y="0" on="1"/>
      </contour>
    </TTGlyph>
    <TTGlyph name="Ecaron.sc" xMin="84" yMin="0" xMax="510" yMax="751">
      <contour>
        <pt x="84" y="577" on="1"/>
        <pt x="503" y="577" on="1"/>
        <pt x="503" y="509" on="1"/>
        <pt x="170" y="509" on="1"/>
        <pt x="170" y="324" on="1"/>
        <pt x="480" y="324" on="1"/>
        <pt x="480" y="262" on="1"/>
        <pt x="170" y="262" on="1"/>
        <pt x="170" y="68" on="1"/>
        <pt x="510" y="68" on="1"/>
        <pt x="510" y="0" on="1"/>
        <pt x="84" y="0" on="1"/>
      </contour>
      <contour>
        <pt x="148" y="688" on="1"/>
        <pt x="148" y="751" on="1"/>
        <pt x="296" y="693" on="1"/>
        <pt x="444" y="751" on="1"/>
        <pt x="444" y="688" on="1"/>
        <pt x="295" y="630" on="1"/>
      </contour>
    </TTGlyph>
    <TTGlyph name="Ecircumflex" xMin="89" yMin="0" xMax="568" yMax="957">
      <contour>
        <pt x="89" y="740" on="1"/>
        <pt x="559" y="740" on="1"/>
        <pt x="559" y="666" on="1"/>
        <pt x="178" y="666" on="1"/>
        <pt x="178" y="412" on="1"/>
        <pt x="533" y="412" on="1"/>
        <pt x="533" y="338" on="1"/>
        <pt x="178" y="338" on="1"/>
        <pt x="178" y="74" on="1"/>
        <pt x="568" y="74" on="1"/>
        <pt x="568" y="0" on="1"/>
        <pt x="89" y="0" on="1"/>
      </contour>
      <contour>
        <pt x="165" y="882" on="1"/>
        <pt x="330" y="957" on="1"/>
        <pt x="496" y="882" on="1"/>
        <pt x="496" y="812" on="1"/>
        <pt x="330" y="886" on="1"/>
        <pt x="165" y="812" on="1"/>
      </contour>
    </TTGlyph>
    <TTGlyph name="Ecircumflex.sc" xMin="84" yMin="0" xMax="510" yMax="753">
      <contour>
        <pt x="84" y="577" on="1"/>
        <pt x="503" y="577" on="1"/>
        <pt x="503" y="509" on="1"/>
        <pt x="170" y="509" on="1"/>
        <pt x="170" y="324" on="1"/>
        <pt x="480" y="324" on="1"/>
        <pt x="480" y="262" on="1"/>
        <pt x="170" y="262" on="1"/>
        <pt x="170" y="68" on="1"/>
        <pt x="510" y="68" on="1"/>
        <pt x="510" y="0" on="1"/>
        <pt x="84" y="0" on="1"/>
      </contour>
      <contour>
        <pt x="151" y="694" on="1"/>
        <pt x="299" y="753" on="1"/>
        <pt x="448" y="694" on="1"/>
        <pt x="448" y="631" on="1"/>
        <pt x="300" y="689" on="1"/>
        <pt x="151" y="631" on="1"/>
      </contour>
    </TTGlyph>
    <TTGlyph name="Edblgrave" xMin="89" yMin="0" xMax="568" yMax="942">
      <contour>
        <pt x="89" y="740" on="1"/>
        <pt x="559" y="740" on="1"/>
        <pt x="559" y="666" on="1"/>
        <pt x="178" y="666" on="1"/>
        <pt x="178" y="412" on="1"/>
        <pt x="533" y="412" on="1"/>
        <pt x="533" y="338" on="1"/>
        <pt x="178" y="338" on="1"/>
        <pt x="178" y="74" on="1"/>
        <pt x="568" y="74" on="1"/>
        <pt x="568" y="0" on="1"/>
        <pt x="89" y="0" on="1"/>
      </contour>
      <contour>
        <pt x="213" y="795" on="1"/>
        <pt x="115" y="942" on="1"/>
        <pt x="204" y="942" on="1"/>
        <pt x="277" y="808" on="1"/>
      </contour>
      <contour>
        <pt x="373" y="795" on="1"/>
        <pt x="274" y="942" on="1"/>
        <pt x="363" y="942" on="1"/>
        <pt x="437" y="808" on="1"/>
      </contour>
    </TTGlyph>
    <TTGlyph name="Edblgrave.sc" xMin="84" yMin="0" xMax="510" yMax="743">
      <contour>
        <pt x="84" y="577" on="1"/>
        <pt x="503" y="577" on="1"/>
        <pt x="503" y="509" on="1"/>
        <pt x="170" y="509" on="1"/>
        <pt x="170" y="324" on="1"/>
        <pt x="480" y="324" on="1"/>
        <pt x="480" y="262" on="1"/>
        <pt x="170" y="262" on="1"/>
        <pt x="170" y="68" on="1"/>
        <pt x="510" y="68" on="1"/>
        <pt x="510" y="0" on="1"/>
        <pt x="84" y="0" on="1"/>
      </contour>
      <contour>
        <pt x="105" y="743" on="1"/>
        <pt x="190" y="743" on="1"/>
        <pt x="253" y="631" on="1"/>
        <pt x="191" y="621" on="1"/>
      </contour>
      <contour>
        <pt x="248" y="743" on="1"/>
        <pt x="333" y="743" on="1"/>
        <pt x="397" y="631" on="1"/>
        <pt x="335" y="621" on="1"/>
      </contour>
    </TTGlyph>
    <TTGlyph name="Edieresis" xMin="89" yMin="0" xMax="568" yMax="930">
      <contour>
        <pt x="197" y="819" on="1"/>
        <pt x="141" y="819" on="0"/>
        <pt x="141" y="875" on="1"/>
        <pt x="141" y="930" on="0"/>
        <pt x="197" y="930" on="1"/>
        <pt x="254" y="930" on="0"/>
        <pt x="254" y="875" on="1"/>
        <pt x="254" y="819" on="0"/>
      </contour>
      <contour>
        <pt x="458" y="819" on="1"/>
        <pt x="401" y="819" on="0"/>
        <pt x="401" y="875" on="1"/>
        <pt x="401" y="930" on="0"/>
        <pt x="458" y="930" on="1"/>
        <pt x="485" y="930" on="0"/>
        <pt x="515" y="904" on="0"/>
        <pt x="515" y="875" on="1"/>
        <pt x="515" y="846" on="0"/>
        <pt x="485" y="819" on="0"/>
      </contour>
      <contour>
        <pt x="89" y="740" on="1"/>
        <pt x="559" y="740" on="1"/>
        <pt x="559" y="666" on="1"/>
        <pt x="178" y="666" on="1"/>
        <pt x="178" y="412" on="1"/>
        <pt x="533" y="412" on="1"/>
        <pt x="533" y="338" on="1"/>
        <pt x="178" y="338" on="1"/>
        <pt x="178" y="74" on="1"/>
        <pt x="568" y="74" on="1"/>
        <pt x="568" y="0" on="1"/>
        <pt x="89" y="0" on="1"/>
      </contour>
    </TTGlyph>
    <TTGlyph name="Edieresis.sc" xMin="84" yMin="0" xMax="510" yMax="738">
      <contour>
        <pt x="182" y="637" on="1"/>
        <pt x="156" y="637" on="0"/>
        <pt x="129" y="661" on="0"/>
        <pt x="129" y="688" on="1"/>
        <pt x="129" y="738" on="0"/>
        <pt x="182" y="738" on="1"/>
        <pt x="235" y="738" on="0"/>
        <pt x="235" y="688" on="1"/>
        <pt x="235" y="661" on="0"/>
        <pt x="208" y="637" on="0"/>
      </contour>
      <contour>
        <pt x="413" y="637" on="1"/>
        <pt x="387" y="637" on="0"/>
        <pt x="360" y="661" on="0"/>
        <pt x="360" y="688" on="1"/>
        <pt x="360" y="738" on="0"/>
        <pt x="413" y="738" on="1"/>
        <pt x="466" y="738" on="0"/>
        <pt x="466" y="688" on="1"/>
        <pt x="466" y="661" on="0"/>
        <pt x="439" y="637" on="0"/>
      </contour>
      <contour>
        <pt x="84" y="577" on="1"/>
        <pt x="503" y="577" on="1"/>
        <pt x="503" y="509" on="1"/>
        <pt x="170" y="509" on="1"/>
        <pt x="170" y="324" on="1"/>
        <pt x="480" y="324" on="1"/>
        <pt x="480" y="262" on="1"/>
        <pt x="170" y="262" on="1"/>
        <pt x="170" y="68" on="1"/>
        <pt x="510" y="68" on="1"/>
        <pt x="510" y="0" on="1"/>
        <pt x="84" y="0" on="1"/>
      </contour>
    </TTGlyph>
    <TTGlyph name="Edotaccent" xMin="89" yMin="0" xMax="568" yMax="925">
      <contour>
        <pt x="323" y="814" on="1"/>
        <pt x="295" y="814" on="0"/>
        <pt x="267" y="840" on="0"/>
        <pt x="267" y="869" on="1"/>
        <pt x="267" y="925" on="0"/>
        <pt x="323" y="925" on="1"/>
        <pt x="380" y="925" on="0"/>
        <pt x="380" y="869" on="1"/>
        <pt x="380" y="840" on="0"/>
        <pt x="351" y="814" on="0"/>
      </contour>
      <contour>
        <pt x="89" y="740" on="1"/>
        <pt x="559" y="740" on="1"/>
        <pt x="559" y="666" on="1"/>
        <pt x="178" y="666" on="1"/>
        <pt x="178" y="412" on="1"/>
        <pt x="533" y="412" on="1"/>
        <pt x="533" y="338" on="1"/>
        <pt x="178" y="338" on="1"/>
        <pt x="178" y="74" on="1"/>
        <pt x="568" y="74" on="1"/>
        <pt x="568" y="0" on="1"/>
        <pt x="89" y="0" on="1"/>
      </contour>
    </TTGlyph>
    <TTGlyph name="Edotaccent.sc" xMin="84" yMin="0" xMax="510" yMax="734">
      <contour>
        <pt x="293" y="633" on="1"/>
        <pt x="266" y="633" on="0"/>
        <pt x="240" y="657" on="0"/>
        <pt x="240" y="684" on="1"/>
        <pt x="240" y="734" on="0"/>
        <pt x="293" y="734" on="1"/>
        <pt x="346" y="734" on="0"/>
        <pt x="346" y="684" on="1"/>
        <pt x="346" y="633" on="0"/>
      </contour>
      <contour>
        <pt x="84" y="577" on="1"/>
        <pt x="503" y="577" on="1"/>
        <pt x="503" y="509" on="1"/>
        <pt x="170" y="509" on="1"/>
        <pt x="170" y="324" on="1"/>
        <pt x="480" y="324" on="1"/>
        <pt x="480" y="262" on="1"/>
        <pt x="170" y="262" on="1"/>
        <pt x="170" y="68" on="1"/>
        <pt x="510" y="68" on="1"/>
        <pt x="510" y="0" on="1"/>
        <pt x="84" y="0" on="1"/>
      </contour>
    </TTGlyph>
    <TTGlyph name="Edotbelow" xMin="89" yMin="-183" xMax="568" yMax="740">
      <contour>
        <pt x="89" y="740" on="1"/>
        <pt x="559" y="740" on="1"/>
        <pt x="559" y="666" on="1"/>
        <pt x="178" y="666" on="1"/>
        <pt x="178" y="412" on="1"/>
        <pt x="533" y="412" on="1"/>
        <pt x="533" y="338" on="1"/>
        <pt x="178" y="338" on="1"/>
        <pt x="178" y="74" on="1"/>
        <pt x="568" y="74" on="1"/>
        <pt x="568" y="0" on="1"/>
        <pt x="89" y="0" on="1"/>
      </contour>
      <contour>
        <pt x="344" y="-183" on="1"/>
        <pt x="318" y="-183" on="0"/>
        <pt x="292" y="-159" on="0"/>
        <pt x="292" y="-132" on="1"/>
        <pt x="292" y="-105" on="0"/>
        <pt x="318" y="-81" on="0"/>
        <pt x="344" y="-81" on="1"/>
        <pt x="370" y="-81" on="0"/>
        <pt x="395" y="-105" on="0"/>
        <pt x="395" y="-132" on="1"/>
        <pt x="395" y="-159" on="0"/>
        <pt x="370" y="-183" on="0"/>
      </contour>
    </TTGlyph>
    <TTGlyph name="Edotbelow.sc" xMin="84" yMin="-147" xMax="510" yMax="577">
      <contour>
        <pt x="310" y="-147" on="1"/>
        <pt x="263" y="-147" on="0"/>
        <pt x="263" y="-104" on="1"/>
        <pt x="263" y="-59" on="0"/>
        <pt x="310" y="-59" on="1"/>
        <pt x="357" y="-59" on="0"/>
        <pt x="357" y="-104" on="1"/>
        <pt x="357" y="-147" on="0"/>
      </contour>
      <contour>
        <pt x="84" y="577" on="1"/>
        <pt x="503" y="577" on="1"/>
        <pt x="503" y="509" on="1"/>
        <pt x="170" y="509" on="1"/>
        <pt x="170" y="324" on="1"/>
        <pt x="480" y="324" on="1"/>
        <pt x="480" y="262" on="1"/>
        <pt x="170" y="262" on="1"/>
        <pt x="170" y="68" on="1"/>
        <pt x="510" y="68" on="1"/>
        <pt x="510" y="0" on="1"/>
        <pt x="84" y="0" on="1"/>
      </contour>
    </TTGlyph>
    <TTGlyph name="Egrave" xMin="89" yMin="0" xMax="568" yMax="947">
      <contour>
        <pt x="299" y="800" on="1"/>
        <pt x="202" y="947" on="1"/>
        <pt x="294" y="947" on="1"/>
        <pt x="368" y="813" on="1"/>
      </contour>
      <contour>
        <pt x="89" y="740" on="1"/>
        <pt x="559" y="740" on="1"/>
        <pt x="559" y="666" on="1"/>
        <pt x="178" y="666" on="1"/>
        <pt x="178" y="412" on="1"/>
        <pt x="533" y="412" on="1"/>
        <pt x="533" y="338" on="1"/>
        <pt x="178" y="338" on="1"/>
        <pt x="178" y="74" on="1"/>
        <pt x="568" y="74" on="1"/>
        <pt x="568" y="0" on="1"/>
        <pt x="89" y="0" on="1"/>
      </contour>
    </TTGlyph>
    <TTGlyph name="Egrave.sc" xMin="84" yMin="0" xMax="510" yMax="746">
      <contour>
        <pt x="84" y="577" on="1"/>
        <pt x="503" y="577" on="1"/>
        <pt x="503" y="509" on="1"/>
        <pt x="170" y="509" on="1"/>
        <pt x="170" y="324" on="1"/>
        <pt x="480" y="324" on="1"/>
        <pt x="480" y="262" on="1"/>
        <pt x="170" y="262" on="1"/>
        <pt x="170" y="68" on="1"/>
        <pt x="510" y="68" on="1"/>
        <pt x="510" y="0" on="1"/>
        <pt x="84" y="0" on="1"/>
      </contour>
      <contour>
        <pt x="184" y="746" on="1"/>
        <pt x="272" y="746" on="1"/>
        <pt x="335" y="635" on="1"/>
        <pt x="271" y="625" on="1"/>
      </contour>
    </TTGlyph>
    <TTGlyph name="Einvertedbreve" xMin="89" yMin="0" xMax="568" yMax="967">
      <contour>
        <pt x="89" y="740" on="1"/>
        <pt x="559" y="740" on="1"/>
        <pt x="559" y="666" on="1"/>
        <pt x="178" y="666" on="1"/>
        <pt x="178" y="412" on="1"/>
        <pt x="533" y="412" on="1"/>
        <pt x="533" y="338" on="1"/>
        <pt x="178" y="338" on="1"/>
        <pt x="178" y="74" on="1"/>
        <pt x="568" y="74" on="1"/>
        <pt x="568" y="0" on="1"/>
        <pt x="89" y="0" on="1"/>
      </contour>
      <contour>
        <pt x="441" y="818" on="1"/>
        <pt x="441" y="864" on="0"/>
        <pt x="383" y="914" on="0"/>
        <pt x="326" y="914" on="1"/>
        <pt x="268" y="914" on="0"/>
        <pt x="210" y="864" on="0"/>
        <pt x="210" y="818" on="1"/>
        <pt x="144" y="818" on="1"/>
        <pt x="144" y="885" on="0"/>
        <pt x="234" y="967" on="0"/>
        <pt x="326" y="967" on="1"/>
        <pt x="417" y="967" on="0"/>
        <pt x="507" y="886" on="0"/>
        <pt x="507" y="818" on="1"/>
      </contour>
    </TTGlyph>
    <TTGlyph name="Einvertedbreve.sc" xMin="84" yMin="0" xMax="510" yMax="760">
      <contour>
        <pt x="132" y="638" on="1"/>
        <pt x="132" y="692" on="0"/>
        <pt x="211" y="760" on="0"/>
        <pt x="294" y="760" on="1"/>
        <pt x="377" y="760" on="0"/>
        <pt x="457" y="693" on="0"/>
        <pt x="457" y="638" on="1"/>
        <pt x="395" y="638" on="1"/>
        <pt x="395" y="673" on="0"/>
        <pt x="346" y="712" on="0"/>
        <pt x="294" y="712" on="1"/>
        <pt x="243" y="712" on="0"/>
        <pt x="195" y="673" on="0"/>
        <pt x="195" y="638" on="1"/>
      </contour>
      <contour>
        <pt x="84" y="577" on="1"/>
        <pt x="503" y="577" on="1"/>
        <pt x="503" y="509" on="1"/>
        <pt x="170" y="509" on="1"/>
        <pt x="170" y="324" on="1"/>
        <pt x="480" y="324" on="1"/>
        <pt x="480" y="262" on="1"/>
        <pt x="170" y="262" on="1"/>
        <pt x="170" y="68" on="1"/>
        <pt x="510" y="68" on="1"/>
        <pt x="510" y="0" on="1"/>
        <pt x="84" y="0" on="1"/>
      </contour>
    </TTGlyph>
    <TTGlyph name="Emacron" xMin="89" yMin="0" xMax="568" yMax="907">
      <contour>
        <pt x="164" y="907" on="1"/>
        <pt x="486" y="907" on="1"/>
        <pt x="486" y="842" on="1"/>
        <pt x="164" y="842" on="1"/>
      </contour>
      <contour>
        <pt x="89" y="740" on="1"/>
        <pt x="559" y="740" on="1"/>
        <pt x="559" y="666" on="1"/>
        <pt x="178" y="666" on="1"/>
        <pt x="178" y="412" on="1"/>
        <pt x="533" y="412" on="1"/>
        <pt x="533" y="338" on="1"/>
        <pt x="178" y="338" on="1"/>
        <pt x="178" y="74" on="1"/>
        <pt x="568" y="74" on="1"/>
        <pt x="568" y="0" on="1"/>
        <pt x="89" y="0" on="1"/>
      </contour>
    </TTGlyph>
    <TTGlyph name="Emacron.sc" xMin="84" yMin="0" xMax="510" yMax="717">
      <contour>
        <pt x="84" y="577" on="1"/>
        <pt x="503" y="577" on="1"/>
        <pt x="503" y="509" on="1"/>
        <pt x="170" y="509" on="1"/>
        <pt x="170" y="324" on="1"/>
        <pt x="480" y="324" on="1"/>
        <pt x="480" y="262" on="1"/>
        <pt x="170" y="262" on="1"/>
        <pt x="170" y="68" on="1"/>
        <pt x="510" y="68" on="1"/>
        <pt x="510" y="0" on="1"/>
        <pt x="84" y="0" on="1"/>
      </contour>
      <contour>
        <pt x="150" y="717" on="1"/>
        <pt x="440" y="717" on="1"/>
        <pt x="440" y="657" on="1"/>
        <pt x="150" y="657" on="1"/>
      </contour>
    </TTGlyph>
    <TTGlyph name="Eng" xMin="89" yMin="-191" xMax="692" yMax="740">
      <contour>
        <pt x="529" y="-172" on="1"/>
        <pt x="555" y="-122" on="0"/>
        <pt x="592" y="-19" on="0"/>
        <pt x="598" y="23" on="1"/>
        <pt x="235" y="516" on="1"/>
        <pt x="177" y="603" on="1"/>
        <pt x="170" y="603" on="1"/>
        <pt x="170" y="0" on="1"/>
        <pt x="89" y="0" on="1"/>
        <pt x="89" y="740" on="1"/>
        <pt x="163" y="740" on="1"/>
        <pt x="544" y="224" on="1"/>
        <pt x="604" y="136" on="1"/>
        <pt x="610" y="136" on="1"/>
        <pt x="610" y="740" on="1"/>
        <pt x="692" y="740" on="1"/>
        <pt x="692" y="86" on="1"/>
        <pt x="692" y="57" on="0"/>
        <pt x="677" y="-14" on="0"/>
        <pt x="650" y="-89" on="0"/>
        <pt x="614" y="-161" on="0"/>
        <pt x="593" y="-191" on="1"/>
      </contour>
    </TTGlyph>
    <TTGlyph name="Eng.sc" xMin="84" yMin="-153" xMax="611" yMax="577">
      <contour>
        <pt x="467" y="-134" on="1"/>
        <pt x="490" y="-92" on="0"/>
        <pt x="521" y="-14" on="0"/>
        <pt x="526" y="17" on="1"/>
        <pt x="220" y="382" on="1"/>
        <pt x="168" y="451" on="1"/>
        <pt x="162" y="451" on="1"/>
        <pt x="162" y="0" on="1"/>
        <pt x="84" y="0" on="1"/>
        <pt x="84" y="577" on="1"/>
        <pt x="155" y="577" on="1"/>
        <pt x="475" y="195" on="1"/>
        <pt x="528" y="126" on="1"/>
        <pt x="533" y="126" on="1"/>
        <pt x="533" y="577" on="1"/>
        <pt x="611" y="577" on="1"/>
        <pt x="611" y="74" on="1"/>
        <pt x="611" y="50" on="0"/>
        <pt x="599" y="-8" on="0"/>
        <pt x="576" y="-68" on="0"/>
        <pt x="545" y="-127" on="0"/>
        <pt x="527" y="-153" on="1"/>
      </contour>
    </TTGlyph>
    <TTGlyph name="Eogonek" xMin="89" yMin="-220" xMax="568" yMax="740">
      <contour>
        <pt x="89" y="740" on="1"/>
        <pt x="559" y="740" on="1"/>
        <pt x="559" y="666" on="1"/>
        <pt x="178" y="666" on="1"/>
        <pt x="178" y="412" on="1"/>
        <pt x="533" y="412" on="1"/>
        <pt x="533" y="338" on="1"/>
        <pt x="178" y="338" on="1"/>
        <pt x="178" y="74" on="1"/>
        <pt x="568" y="74" on="1"/>
        <pt x="568" y="-17" on="1"/>
        <pt x="507" y="-46" on="0"/>
        <pt x="451" y="-102" on="0"/>
        <pt x="451" y="-131" on="1"/>
        <pt x="451" y="-165" on="0"/>
        <pt x="497" y="-165" on="1"/>
        <pt x="511" y="-165" on="0"/>
        <pt x="550" y="-159" on="0"/>
        <pt x="567" y="-154" on="1"/>
        <pt x="567" y="-208" on="1"/>
        <pt x="537" y="-220" on="0"/>
        <pt x="494" y="-220" on="1"/>
        <pt x="388" y="-220" on="0"/>
        <pt x="388" y="-136" on="1"/>
        <pt x="388" y="-98" on="0"/>
        <pt x="438" y="-35" on="0"/>
        <pt x="495" y="0" on="1"/>
        <pt x="89" y="0" on="1"/>
      </contour>
    </TTGlyph>
    <TTGlyph name="Eogonek.sc" xMin="84" yMin="-172" xMax="510" yMax="577">
      <contour>
        <pt x="443" y="-172" on="1"/>
        <pt x="348" y="-172" on="0"/>
        <pt x="348" y="-105" on="1"/>
        <pt x="348" y="-74" on="0"/>
        <pt x="387" y="-28" on="0"/>
        <pt x="437" y="0" on="1"/>
        <pt x="84" y="0" on="1"/>
        <pt x="84" y="577" on="1"/>
        <pt x="503" y="577" on="1"/>
        <pt x="503" y="509" on="1"/>
        <pt x="170" y="509" on="1"/>
        <pt x="170" y="324" on="1"/>
        <pt x="480" y="324" on="1"/>
        <pt x="480" y="262" on="1"/>
        <pt x="170" y="262" on="1"/>
        <pt x="170" y="68" on="1"/>
        <pt x="510" y="68" on="1"/>
        <pt x="510" y="-12" on="1"/>
        <pt x="456" y="-33" on="0"/>
        <pt x="407" y="-72" on="0"/>
        <pt x="407" y="-95" on="1"/>
        <pt x="407" y="-110" on="0"/>
        <pt x="428" y="-122" on="0"/>
        <pt x="446" y="-122" on="1"/>
        <pt x="460" y="-122" on="0"/>
        <pt x="496" y="-117" on="0"/>
        <pt x="509" y="-113" on="1"/>
        <pt x="509" y="-162" on="1"/>
        <pt x="495" y="-167" on="0"/>
        <pt x="460" y="-172" on="0"/>
      </contour>
    </TTGlyph>
    <TTGlyph name="Eth" xMin="4" yMin="-11" xMax="690" yMax="749">
      <contour>
        <pt x="4" y="406" on="1"/>
        <pt x="101" y="406" on="1"/>
        <pt x="101" y="738" on="1"/>
        <pt x="127" y="740" on="0"/>
        <pt x="184" y="744" on="0"/>
        <pt x="239" y="747" on="0"/>
        <pt x="289" y="749" on="0"/>
        <pt x="309" y="749" on="1"/>
        <pt x="506" y="749" on="0"/>
        <pt x="690" y="566" on="0"/>
        <pt x="690" y="370" on="1"/>
        <pt x="690" y="271" on="0"/>
        <pt x="643" y="127" on="0"/>
        <pt x="545" y="34" on="0"/>
        <pt x="393" y="-11" on="0"/>
        <pt x="288" y="-11" on="1"/>
        <pt x="230" y="-11" on="0"/>
        <pt x="129" y="-4" on="0"/>
        <pt x="101" y="3" on="1"/>
        <pt x="101" y="334" on="1"/>
        <pt x="4" y="334" on="1"/>
      </contour>
      <contour>
        <pt x="315" y="64" on="1"/>
        <pt x="389" y="64" on="0"/>
        <pt x="496" y="99" on="0"/>
        <pt x="565" y="174" on="0"/>
        <pt x="598" y="290" on="0"/>
        <pt x="598" y="370" on="1"/>
        <pt x="598" y="450" on="0"/>
        <pt x="566" y="565" on="0"/>
        <pt x="497" y="638" on="0"/>
        <pt x="391" y="673" on="0"/>
        <pt x="318" y="673" on="1"/>
        <pt x="292" y="673" on="0"/>
        <pt x="220" y="669" on="0"/>
        <pt x="190" y="666" on="1"/>
        <pt x="190" y="406" on="1"/>
        <pt x="370" y="406" on="1"/>
        <pt x="370" y="334" on="1"/>
        <pt x="190" y="334" on="1"/>
        <pt x="190" y="73" on="1"/>
        <pt x="226" y="68" on="0"/>
        <pt x="282" y="64" on="0"/>
      </contour>
    </TTGlyph>
    <TTGlyph name="Eth.sc" xMin="13" yMin="-8" xMax="619" yMax="584">
      <contour>
        <pt x="13" y="321" on="1"/>
        <pt x="95" y="321" on="1"/>
        <pt x="95" y="576" on="1"/>
        <pt x="119" y="578" on="0"/>
        <pt x="170" y="581" on="0"/>
        <pt x="220" y="583" on="0"/>
        <pt x="265" y="584" on="0"/>
        <pt x="282" y="584" on="1"/>
        <pt x="457" y="584" on="0"/>
        <pt x="619" y="442" on="0"/>
        <pt x="619" y="288" on="1"/>
        <pt x="619" y="210" on="0"/>
        <pt x="578" y="98" on="0"/>
        <pt x="491" y="26" on="0"/>
        <pt x="356" y="-8" on="0"/>
        <pt x="263" y="-8" on="1"/>
        <pt x="211" y="-8" on="0"/>
        <pt x="120" y="-2" on="0"/>
        <pt x="95" y="4" on="1"/>
        <pt x="95" y="256" on="1"/>
        <pt x="13" y="256" on="1"/>
      </contour>
      <contour>
        <pt x="291" y="63" on="1"/>
        <pt x="417" y="63" on="0"/>
        <pt x="531" y="169" on="0"/>
        <pt x="531" y="288" on="1"/>
        <pt x="531" y="408" on="0"/>
        <pt x="418" y="513" on="0"/>
        <pt x="291" y="513" on="1"/>
        <pt x="269" y="513" on="0"/>
        <pt x="208" y="510" on="0"/>
        <pt x="181" y="508" on="1"/>
        <pt x="181" y="321" on="1"/>
        <pt x="334" y="321" on="1"/>
        <pt x="334" y="256" on="1"/>
        <pt x="181" y="256" on="1"/>
        <pt x="181" y="70" on="1"/>
        <pt x="212" y="65" on="0"/>
        <pt x="262" y="63" on="0"/>
      </contour>
    </TTGlyph>
    <TTGlyph name="Etilde" xMin="89" yMin="0" xMax="568" yMax="936">
      <contour>
        <pt x="130" y="861" on="1"/>
        <pt x="158" y="898" on="0"/>
        <pt x="224" y="936" on="0"/>
        <pt x="256" y="936" on="1"/>
        <pt x="280" y="936" on="0"/>
        <pt x="322" y="923" on="0"/>
        <pt x="362" y="908" on="0"/>
        <pt x="402" y="895" on="0"/>
        <pt x="425" y="895" on="1"/>
        <pt x="470" y="895" on="0"/>
        <pt x="514" y="933" on="1"/>
        <pt x="538" y="906" on="1"/>
        <pt x="512" y="870" on="0"/>
        <pt x="443" y="830" on="0"/>
        <pt x="408" y="830" on="1"/>
        <pt x="386" y="830" on="0"/>
        <pt x="344" y="843" on="0"/>
        <pt x="303" y="858" on="0"/>
        <pt x="263" y="871" on="0"/>
        <pt x="242" y="871" on="1"/>
        <pt x="219" y="871" on="0"/>
        <pt x="177" y="854" on="0"/>
        <pt x="154" y="834" on="1"/>
      </contour>
      <contour>
        <pt x="89" y="740" on="1"/>
        <pt x="559" y="740" on="1"/>
        <pt x="559" y="666" on="1"/>
        <pt x="178" y="666" on="1"/>
        <pt x="178" y="412" on="1"/>
        <pt x="533" y="412" on="1"/>
        <pt x="533" y="338" on="1"/>
        <pt x="178" y="338" on="1"/>
        <pt x="178" y="74" on="1"/>
        <pt x="568" y="74" on="1"/>
        <pt x="568" y="0" on="1"/>
        <pt x="89" y="0" on="1"/>
      </contour>
    </TTGlyph>
    <TTGlyph name="Etilde.sc" xMin="84" yMin="0" xMax="510" yMax="739">
      <contour>
        <pt x="120" y="672" on="1"/>
        <pt x="146" y="704" on="0"/>
        <pt x="205" y="739" on="0"/>
        <pt x="234" y="739" on="1"/>
        <pt x="255" y="739" on="0"/>
        <pt x="292" y="729" on="0"/>
        <pt x="328" y="718" on="0"/>
        <pt x="364" y="708" on="0"/>
        <pt x="384" y="708" on="1"/>
        <pt x="404" y="708" on="0"/>
        <pt x="444" y="721" on="0"/>
        <pt x="464" y="736" on="1"/>
        <pt x="485" y="715" on="1"/>
        <pt x="461" y="682" on="0"/>
        <pt x="398" y="647" on="0"/>
        <pt x="368" y="647" on="1"/>
        <pt x="348" y="647" on="0"/>
        <pt x="311" y="657" on="0"/>
        <pt x="274" y="669" on="0"/>
        <pt x="237" y="679" on="0"/>
        <pt x="218" y="679" on="1"/>
        <pt x="198" y="679" on="0"/>
        <pt x="161" y="666" on="0"/>
        <pt x="141" y="649" on="1"/>
      </contour>
      <contour>
        <pt x="84" y="577" on="1"/>
        <pt x="503" y="577" on="1"/>
        <pt x="503" y="509" on="1"/>
        <pt x="170" y="509" on="1"/>
        <pt x="170" y="324" on="1"/>
        <pt x="480" y="324" on="1"/>
        <pt x="480" y="262" on="1"/>
        <pt x="170" y="262" on="1"/>
        <pt x="170" y="68" on="1"/>
        <pt x="510" y="68" on="1"/>
        <pt x="510" y="0" on="1"/>
        <pt x="84" y="0" on="1"/>
      </contour>
    </TTGlyph>
    <TTGlyph name="Euro" xMin="44" yMin="-10" xMax="590" yMax="749">
      <contour>
        <pt x="44" y="483" on="1"/>
        <pt x="133" y="483" on="1"/>
        <pt x="155" y="622" on="0"/>
        <pt x="325" y="749" on="0"/>
        <pt x="487" y="749" on="1"/>
        <pt x="522" y="749" on="0"/>
        <pt x="570" y="744" on="0"/>
        <pt x="590" y="741" on="1"/>
        <pt x="562" y="666" on="1"/>
        <pt x="552" y="668" on="0"/>
        <pt x="521" y="671" on="0"/>
        <pt x="503" y="671" on="1"/>
        <pt x="437" y="671" on="0"/>
        <pt x="340" y="651" on="0"/>
        <pt x="273" y="606" on="0"/>
        <pt x="233" y="535" on="0"/>
        <pt x="224" y="483" on="1"/>
        <pt x="507" y="483" on="1"/>
        <pt x="489" y="425" on="1"/>
        <pt x="217" y="425" on="1"/>
        <pt x="216" y="411" on="0"/>
        <pt x="216" y="384" on="0"/>
        <pt x="216" y="370" on="1"/>
        <pt x="216" y="355" on="0"/>
        <pt x="216" y="328" on="0"/>
        <pt x="217" y="315" on="1"/>
        <pt x="470" y="315" on="1"/>
        <pt x="452" y="257" on="1"/>
        <pt x="224" y="257" on="1"/>
        <pt x="233" y="206" on="0"/>
        <pt x="274" y="135" on="0"/>
        <pt x="341" y="89" on="0"/>
        <pt x="436" y="68" on="0"/>
        <pt x="500" y="68" on="1"/>
        <pt x="516" y="68" on="0"/>
        <pt x="555" y="71" on="0"/>
        <pt x="577" y="75" on="1"/>
        <pt x="577" y="-3" on="1"/>
        <pt x="550" y="-10" on="0"/>
        <pt x="492" y="-10" on="1"/>
        <pt x="329" y="-9" on="0"/>
        <pt x="156" y="120" on="0"/>
        <pt x="134" y="257" on="1"/>
        <pt x="44" y="257" on="1"/>
        <pt x="44" y="315" on="1"/>
        <pt x="128" y="315" on="1"/>
        <pt x="127" y="328" on="0"/>
        <pt x="126" y="355" on="0"/>
        <pt x="126" y="369" on="1"/>
        <pt x="126" y="383" on="0"/>
        <pt x="127" y="411" on="0"/>
        <pt x="128" y="425" on="1"/>
        <pt x="44" y="425" on="1"/>
      </contour>
    </TTGlyph>
    <TTGlyph name="Euro.tab" xMin="18" yMin="-10" xMax="546" yMax="749">
      <contour>
        <pt x="18" y="483" on="1"/>
        <pt x="106" y="483" on="1"/>
        <pt x="126" y="623" on="0"/>
        <pt x="289" y="749" on="0"/>
        <pt x="444" y="749" on="1"/>
        <pt x="479" y="749" on="0"/>
        <pt x="526" y="744" on="0"/>
        <pt x="546" y="741" on="1"/>
        <pt x="519" y="666" on="1"/>
        <pt x="509" y="668" on="0"/>
        <pt x="478" y="671" on="0"/>
        <pt x="460" y="671" on="1"/>
        <pt x="399" y="671" on="0"/>
        <pt x="308" y="650" on="0"/>
        <pt x="244" y="605" on="0"/>
        <pt x="205" y="534" on="0"/>
        <pt x="197" y="483" on="1"/>
        <pt x="466" y="483" on="1"/>
        <pt x="449" y="425" on="1"/>
        <pt x="188" y="425" on="1"/>
        <pt x="186" y="414" on="0"/>
        <pt x="186" y="383" on="0"/>
        <pt x="186" y="370" on="1"/>
        <pt x="186" y="357" on="0"/>
        <pt x="186" y="326" on="0"/>
        <pt x="188" y="315" on="1"/>
        <pt x="430" y="315" on="1"/>
        <pt x="413" y="257" on="1"/>
        <pt x="197" y="257" on="1"/>
        <pt x="215" y="158" on="0"/>
        <pt x="340" y="68" on="0"/>
        <pt x="458" y="68" on="1"/>
        <pt x="473" y="68" on="0"/>
        <pt x="512" y="71" on="0"/>
        <pt x="533" y="75" on="1"/>
        <pt x="533" y="-3" on="1"/>
        <pt x="506" y="-10" on="0"/>
        <pt x="450" y="-10" on="1"/>
        <pt x="294" y="-9" on="0"/>
        <pt x="127" y="120" on="0"/>
        <pt x="106" y="257" on="1"/>
        <pt x="18" y="257" on="1"/>
        <pt x="18" y="315" on="1"/>
        <pt x="98" y="315" on="1"/>
        <pt x="98" y="327" on="0"/>
        <pt x="97" y="356" on="0"/>
        <pt x="97" y="369" on="1"/>
        <pt x="97" y="383" on="0"/>
        <pt x="97" y="413" on="0"/>
        <pt x="98" y="425" on="1"/>
        <pt x="18" y="425" on="1"/>
      </contour>
    </TTGlyph>
    <TTGlyph name="F" xMin="89" yMin="0" xMax="554" yMax="740">
      <contour>
        <pt x="89" y="740" on="1"/>
        <pt x="554" y="740" on="1"/>
        <pt x="554" y="666" on="1"/>
        <pt x="178" y="666" on="1"/>
        <pt x="178" y="404" on="1"/>
        <pt x="521" y="404" on="1"/>
        <pt x="521" y="330" on="1"/>
        <pt x="178" y="330" on="1"/>
        <pt x="178" y="0" on="1"/>
        <pt x="89" y="0" on="1"/>
      </contour>
    </TTGlyph>
    <TTGlyph name="F.sc" xMin="84" yMin="0" xMax="499" yMax="577">
      <contour>
        <pt x="84" y="577" on="1"/>
        <pt x="499" y="577" on="1"/>
        <pt x="499" y="508" on="1"/>
        <pt x="170" y="508" on="1"/>
        <pt x="170" y="316" on="1"/>
        <pt x="469" y="316" on="1"/>
        <pt x="469" y="251" on="1"/>
        <pt x="170" y="251" on="1"/>
        <pt x="170" y="0" on="1"/>
        <pt x="84" y="0" on="1"/>
      </contour>
    </TTGlyph>
    <TTGlyph name="F_B.sc" xMin="84" yMin="-8" xMax="1070" yMax="584">
      <contour>
        <pt x="84" y="577" on="1"/>
        <pt x="499" y="577" on="1"/>
        <pt x="499" y="508" on="1"/>
        <pt x="170" y="508" on="1"/>
        <pt x="170" y="316" on="1"/>
        <pt x="469" y="316" on="1"/>
        <pt x="469" y="251" on="1"/>
        <pt x="170" y="251" on="1"/>
        <pt x="170" y="0" on="1"/>
        <pt x="84" y="0" on="1"/>
      </contour>
      <contour>
        <pt x="815" y="-8" on="1"/>
        <pt x="715" y="-8" on="0"/>
        <pt x="600" y="4" on="1"/>
        <pt x="600" y="573" on="1"/>
        <pt x="664" y="579" on="0"/>
        <pt x="758" y="584" on="0"/>
        <pt x="803" y="584" on="1"/>
        <pt x="934" y="584" on="0"/>
        <pt x="1049" y="510" on="0"/>
        <pt x="1049" y="427" on="1"/>
        <pt x="1049" y="376" on="0"/>
        <pt x="990" y="307" on="0"/>
        <pt x="937" y="296" on="1"/>
        <pt x="937" y="293" on="1"/>
        <pt x="1070" y="270" on="0"/>
        <pt x="1070" y="153" on="1"/>
        <pt x="1070" y="-8" on="0"/>
      </contour>
      <contour>
        <pt x="814" y="55" on="1"/>
        <pt x="902" y="55" on="0"/>
        <pt x="985" y="106" on="0"/>
        <pt x="985" y="160" on="1"/>
        <pt x="985" y="214" on="0"/>
        <pt x="908" y="263" on="0"/>
        <pt x="826" y="263" on="1"/>
        <pt x="683" y="263" on="1"/>
        <pt x="683" y="62" on="1"/>
        <pt x="703" y="58" on="0"/>
        <pt x="766" y="55" on="0"/>
      </contour>
      <contour>
        <pt x="820" y="321" on="1"/>
        <pt x="898" y="321" on="0"/>
        <pt x="965" y="367" on="0"/>
        <pt x="965" y="422" on="1"/>
        <pt x="965" y="476" on="0"/>
        <pt x="893" y="521" on="0"/>
        <pt x="807" y="521" on="1"/>
        <pt x="769" y="521" on="0"/>
        <pt x="709" y="519" on="0"/>
        <pt x="683" y="515" on="1"/>
        <pt x="683" y="321" on="1"/>
      </contour>
    </TTGlyph>
    <TTGlyph name="F_F.sc" xMin="84" yMin="0" xMax="1015" yMax="577">
      <contour>
        <pt x="84" y="577" on="1"/>
        <pt x="499" y="577" on="1"/>
        <pt x="499" y="508" on="1"/>
        <pt x="170" y="508" on="1"/>
        <pt x="170" y="316" on="1"/>
        <pt x="469" y="316" on="1"/>
        <pt x="469" y="251" on="1"/>
        <pt x="170" y="251" on="1"/>
        <pt x="170" y="0" on="1"/>
        <pt x="84" y="0" on="1"/>
      </contour>
      <contour>
        <pt x="600" y="577" on="1"/>
        <pt x="1015" y="577" on="1"/>
        <pt x="1015" y="508" on="1"/>
        <pt x="686" y="508" on="1"/>
        <pt x="686" y="316" on="1"/>
        <pt x="985" y="316" on="1"/>
        <pt x="985" y="251" on="1"/>
        <pt x="686" y="251" on="1"/>
        <pt x="686" y="0" on="1"/>
        <pt x="600" y="0" on="1"/>
      </contour>
    </TTGlyph>
    <TTGlyph name="F_F_B.sc" xMin="84" yMin="-8" xMax="1585" yMax="584">
      <contour>
        <pt x="84" y="577" on="1"/>
        <pt x="499" y="577" on="1"/>
        <pt x="499" y="508" on="1"/>
        <pt x="170" y="508" on="1"/>
        <pt x="170" y="316" on="1"/>
        <pt x="469" y="316" on="1"/>
        <pt x="469" y="251" on="1"/>
        <pt x="170" y="251" on="1"/>
        <pt x="170" y="0" on="1"/>
        <pt x="84" y="0" on="1"/>
      </contour>
      <contour>
        <pt x="600" y="577" on="1"/>
        <pt x="1015" y="577" on="1"/>
        <pt x="1015" y="508" on="1"/>
        <pt x="686" y="508" on="1"/>
        <pt x="686" y="316" on="1"/>
        <pt x="985" y="316" on="1"/>
        <pt x="985" y="251" on="1"/>
        <pt x="686" y="251" on="1"/>
        <pt x="686" y="0" on="1"/>
        <pt x="600" y="0" on="1"/>
      </contour>
      <contour>
        <pt x="1330" y="-8" on="1"/>
        <pt x="1230" y="-8" on="0"/>
        <pt x="1115" y="4" on="1"/>
        <pt x="1115" y="573" on="1"/>
        <pt x="1179" y="579" on="0"/>
        <pt x="1273" y="584" on="0"/>
        <pt x="1318" y="584" on="1"/>
        <pt x="1449" y="584" on="0"/>
        <pt x="1564" y="510" on="0"/>
        <pt x="1564" y="427" on="1"/>
        <pt x="1564" y="376" on="0"/>
        <pt x="1505" y="307" on="0"/>
        <pt x="1452" y="296" on="1"/>
        <pt x="1452" y="293" on="1"/>
        <pt x="1585" y="270" on="0"/>
        <pt x="1585" y="153" on="1"/>
        <pt x="1585" y="-8" on="0"/>
      </contour>
      <contour>
        <pt x="1329" y="55" on="1"/>
        <pt x="1417" y="55" on="0"/>
        <pt x="1500" y="106" on="0"/>
        <pt x="1500" y="160" on="1"/>
        <pt x="1500" y="214" on="0"/>
        <pt x="1423" y="263" on="0"/>
        <pt x="1341" y="263" on="1"/>
        <pt x="1198" y="263" on="1"/>
        <pt x="1198" y="62" on="1"/>
        <pt x="1218" y="58" on="0"/>
        <pt x="1281" y="55" on="0"/>
      </contour>
      <contour>
        <pt x="1335" y="321" on="1"/>
        <pt x="1413" y="321" on="0"/>
        <pt x="1480" y="367" on="0"/>
        <pt x="1480" y="422" on="1"/>
        <pt x="1480" y="476" on="0"/>
        <pt x="1408" y="521" on="0"/>
        <pt x="1322" y="521" on="1"/>
        <pt x="1284" y="521" on="0"/>
        <pt x="1224" y="519" on="0"/>
        <pt x="1198" y="515" on="1"/>
        <pt x="1198" y="321" on="1"/>
      </contour>
    </TTGlyph>
    <TTGlyph name="F_F_H.sc" xMin="84" yMin="0" xMax="1640" yMax="577">
      <contour>
        <pt x="84" y="577" on="1"/>
        <pt x="499" y="577" on="1"/>
        <pt x="499" y="508" on="1"/>
        <pt x="170" y="508" on="1"/>
        <pt x="170" y="316" on="1"/>
        <pt x="469" y="316" on="1"/>
        <pt x="469" y="251" on="1"/>
        <pt x="170" y="251" on="1"/>
        <pt x="170" y="0" on="1"/>
        <pt x="84" y="0" on="1"/>
      </contour>
      <contour>
        <pt x="600" y="577" on="1"/>
        <pt x="1015" y="577" on="1"/>
        <pt x="1015" y="508" on="1"/>
        <pt x="686" y="508" on="1"/>
        <pt x="686" y="316" on="1"/>
        <pt x="985" y="316" on="1"/>
        <pt x="985" y="251" on="1"/>
        <pt x="686" y="251" on="1"/>
        <pt x="686" y="0" on="1"/>
        <pt x="600" y="0" on="1"/>
      </contour>
      <contour>
        <pt x="1115" y="577" on="1"/>
        <pt x="1201" y="577" on="1"/>
        <pt x="1201" y="331" on="1"/>
        <pt x="1554" y="331" on="1"/>
        <pt x="1554" y="577" on="1"/>
        <pt x="1640" y="577" on="1"/>
        <pt x="1640" y="0" on="1"/>
        <pt x="1554" y="0" on="1"/>
        <pt x="1554" y="262" on="1"/>
        <pt x="1201" y="262" on="1"/>
        <pt x="1201" y="0" on="1"/>
        <pt x="1115" y="0" on="1"/>
      </contour>
    </TTGlyph>
    <TTGlyph name="F_F_I.sc" xMin="84" yMin="0" xMax="1201" yMax="577">
      <contour>
        <pt x="84" y="577" on="1"/>
        <pt x="499" y="577" on="1"/>
        <pt x="499" y="508" on="1"/>
        <pt x="170" y="508" on="1"/>
        <pt x="170" y="316" on="1"/>
        <pt x="469" y="316" on="1"/>
        <pt x="469" y="251" on="1"/>
        <pt x="170" y="251" on="1"/>
        <pt x="170" y="0" on="1"/>
        <pt x="84" y="0" on="1"/>
      </contour>
      <contour>
        <pt x="600" y="577" on="1"/>
        <pt x="1015" y="577" on="1"/>
        <pt x="1015" y="508" on="1"/>
        <pt x="686" y="508" on="1"/>
        <pt x="686" y="316" on="1"/>
        <pt x="985" y="316" on="1"/>
        <pt x="985" y="251" on="1"/>
        <pt x="686" y="251" on="1"/>
        <pt x="686" y="0" on="1"/>
        <pt x="600" y="0" on="1"/>
      </contour>
      <contour>
        <pt x="1115" y="577" on="1"/>
        <pt x="1201" y="577" on="1"/>
        <pt x="1201" y="0" on="1"/>
        <pt x="1115" y="0" on="1"/>
      </contour>
    </TTGlyph>
    <TTGlyph name="F_F_J.sc" xMin="84" yMin="-151" xMax="1212" yMax="577">
      <contour>
        <pt x="84" y="577" on="1"/>
        <pt x="499" y="577" on="1"/>
        <pt x="499" y="508" on="1"/>
        <pt x="170" y="508" on="1"/>
        <pt x="170" y="316" on="1"/>
        <pt x="469" y="316" on="1"/>
        <pt x="469" y="251" on="1"/>
        <pt x="170" y="251" on="1"/>
        <pt x="170" y="0" on="1"/>
        <pt x="84" y="0" on="1"/>
      </contour>
      <contour>
        <pt x="600" y="577" on="1"/>
        <pt x="1015" y="577" on="1"/>
        <pt x="1015" y="508" on="1"/>
        <pt x="686" y="508" on="1"/>
        <pt x="686" y="316" on="1"/>
        <pt x="985" y="316" on="1"/>
        <pt x="985" y="251" on="1"/>
        <pt x="686" y="251" on="1"/>
        <pt x="686" y="0" on="1"/>
        <pt x="600" y="0" on="1"/>
      </contour>
      <contour>
        <pt x="1058" y="-124" on="1"/>
        <pt x="1078" y="-86" on="0"/>
        <pt x="1104" y="-22" on="0"/>
        <pt x="1120" y="41" on="0"/>
        <pt x="1126" y="107" on="0"/>
        <pt x="1126" y="147" on="1"/>
        <pt x="1126" y="577" on="1"/>
        <pt x="1212" y="577" on="1"/>
        <pt x="1212" y="141" on="1"/>
        <pt x="1212" y="102" on="0"/>
        <pt x="1203" y="34" on="0"/>
        <pt x="1180" y="-35" on="0"/>
        <pt x="1143" y="-108" on="0"/>
        <pt x="1116" y="-151" on="1"/>
      </contour>
    </TTGlyph>
    <TTGlyph name="F_F_K.sc" xMin="84" yMin="0" xMax="1625" yMax="577">
      <contour>
        <pt x="84" y="577" on="1"/>
        <pt x="499" y="577" on="1"/>
        <pt x="499" y="508" on="1"/>
        <pt x="170" y="508" on="1"/>
        <pt x="170" y="316" on="1"/>
        <pt x="469" y="316" on="1"/>
        <pt x="469" y="251" on="1"/>
        <pt x="170" y="251" on="1"/>
        <pt x="170" y="0" on="1"/>
        <pt x="84" y="0" on="1"/>
      </contour>
      <contour>
        <pt x="600" y="577" on="1"/>
        <pt x="1015" y="577" on="1"/>
        <pt x="1015" y="508" on="1"/>
        <pt x="686" y="508" on="1"/>
        <pt x="686" y="316" on="1"/>
        <pt x="985" y="316" on="1"/>
        <pt x="985" y="251" on="1"/>
        <pt x="686" y="251" on="1"/>
        <pt x="686" y="0" on="1"/>
        <pt x="600" y="0" on="1"/>
      </contour>
      <contour>
        <pt x="1115" y="577" on="1"/>
        <pt x="1201" y="577" on="1"/>
        <pt x="1201" y="327" on="1"/>
        <pt x="1322" y="327" on="1"/>
        <pt x="1512" y="577" on="1"/>
        <pt x="1610" y="577" on="1"/>
        <pt x="1413" y="321" on="1"/>
        <pt x="1382" y="301" on="1"/>
        <pt x="1382" y="296" on="1"/>
        <pt x="1415" y="276" on="1"/>
        <pt x="1625" y="0" on="1"/>
        <pt x="1527" y="0" on="1"/>
        <pt x="1330" y="258" on="1"/>
        <pt x="1201" y="258" on="1"/>
        <pt x="1201" y="0" on="1"/>
        <pt x="1115" y="0" on="1"/>
      </contour>
    </TTGlyph>
    <TTGlyph name="F_F_L.sc" xMin="84" yMin="0" xMax="1496" yMax="577">
      <contour>
        <pt x="1115" y="577" on="1"/>
        <pt x="1201" y="577" on="1"/>
        <pt x="1201" y="70" on="1"/>
        <pt x="1496" y="70" on="1"/>
        <pt x="1496" y="0" on="1"/>
        <pt x="1115" y="0" on="1"/>
      </contour>
      <contour>
        <pt x="84" y="577" on="1"/>
        <pt x="499" y="577" on="1"/>
        <pt x="499" y="508" on="1"/>
        <pt x="170" y="508" on="1"/>
        <pt x="170" y="316" on="1"/>
        <pt x="469" y="316" on="1"/>
        <pt x="469" y="251" on="1"/>
        <pt x="170" y="251" on="1"/>
        <pt x="170" y="0" on="1"/>
        <pt x="84" y="0" on="1"/>
      </contour>
      <contour>
        <pt x="600" y="577" on="1"/>
        <pt x="1015" y="577" on="1"/>
        <pt x="1015" y="508" on="1"/>
        <pt x="686" y="508" on="1"/>
        <pt x="686" y="316" on="1"/>
        <pt x="985" y="316" on="1"/>
        <pt x="985" y="251" on="1"/>
        <pt x="686" y="251" on="1"/>
        <pt x="686" y="0" on="1"/>
        <pt x="600" y="0" on="1"/>
      </contour>
    </TTGlyph>
    <TTGlyph name="F_F_T.sc" xMin="84" yMin="0" xMax="1542" yMax="577">
      <contour>
        <pt x="1249" y="507" on="1"/>
        <pt x="1042" y="507" on="1"/>
        <pt x="1042" y="577" on="1"/>
        <pt x="1542" y="577" on="1"/>
        <pt x="1542" y="507" on="1"/>
        <pt x="1335" y="507" on="1"/>
        <pt x="1335" y="0" on="1"/>
        <pt x="1249" y="0" on="1"/>
      </contour>
      <contour>
        <pt x="84" y="577" on="1"/>
        <pt x="499" y="577" on="1"/>
        <pt x="499" y="508" on="1"/>
        <pt x="170" y="508" on="1"/>
        <pt x="170" y="316" on="1"/>
        <pt x="469" y="316" on="1"/>
        <pt x="469" y="251" on="1"/>
        <pt x="170" y="251" on="1"/>
        <pt x="170" y="0" on="1"/>
        <pt x="84" y="0" on="1"/>
      </contour>
      <contour>
        <pt x="600" y="577" on="1"/>
        <pt x="1015" y="577" on="1"/>
        <pt x="1015" y="508" on="1"/>
        <pt x="686" y="508" on="1"/>
        <pt x="686" y="316" on="1"/>
        <pt x="985" y="316" on="1"/>
        <pt x="985" y="251" on="1"/>
        <pt x="686" y="251" on="1"/>
        <pt x="686" y="0" on="1"/>
        <pt x="600" y="0" on="1"/>
      </contour>
    </TTGlyph>
    <TTGlyph name="F_H.sc" xMin="84" yMin="0" xMax="1125" yMax="577">
      <contour>
        <pt x="84" y="577" on="1"/>
        <pt x="499" y="577" on="1"/>
        <pt x="499" y="508" on="1"/>
        <pt x="170" y="508" on="1"/>
        <pt x="170" y="316" on="1"/>
        <pt x="469" y="316" on="1"/>
        <pt x="469" y="251" on="1"/>
        <pt x="170" y="251" on="1"/>
        <pt x="170" y="0" on="1"/>
        <pt x="84" y="0" on="1"/>
      </contour>
      <contour>
        <pt x="600" y="577" on="1"/>
        <pt x="686" y="577" on="1"/>
        <pt x="686" y="331" on="1"/>
        <pt x="1039" y="331" on="1"/>
        <pt x="1039" y="577" on="1"/>
        <pt x="1125" y="577" on="1"/>
        <pt x="1125" y="0" on="1"/>
        <pt x="1039" y="0" on="1"/>
        <pt x="1039" y="262" on="1"/>
        <pt x="686" y="262" on="1"/>
        <pt x="686" y="0" on="1"/>
        <pt x="600" y="0" on="1"/>
      </contour>
    </TTGlyph>
    <TTGlyph name="F_I.sc" xMin="84" yMin="0" xMax="686" yMax="577">
      <contour>
        <pt x="84" y="577" on="1"/>
        <pt x="499" y="577" on="1"/>
        <pt x="499" y="508" on="1"/>
        <pt x="170" y="508" on="1"/>
        <pt x="170" y="316" on="1"/>
        <pt x="469" y="316" on="1"/>
        <pt x="469" y="251" on="1"/>
        <pt x="170" y="251" on="1"/>
        <pt x="170" y="0" on="1"/>
        <pt x="84" y="0" on="1"/>
      </contour>
      <contour>
        <pt x="600" y="577" on="1"/>
        <pt x="686" y="577" on="1"/>
        <pt x="686" y="0" on="1"/>
        <pt x="600" y="0" on="1"/>
      </contour>
    </TTGlyph>
    <TTGlyph name="F_J.sc" xMin="84" yMin="-151" xMax="696" yMax="577">
      <contour>
        <pt x="84" y="577" on="1"/>
        <pt x="499" y="577" on="1"/>
        <pt x="499" y="508" on="1"/>
        <pt x="170" y="508" on="1"/>
        <pt x="170" y="316" on="1"/>
        <pt x="469" y="316" on="1"/>
        <pt x="469" y="251" on="1"/>
        <pt x="170" y="251" on="1"/>
        <pt x="170" y="0" on="1"/>
        <pt x="84" y="0" on="1"/>
      </contour>
      <contour>
        <pt x="542" y="-124" on="1"/>
        <pt x="562" y="-86" on="0"/>
        <pt x="588" y="-22" on="0"/>
        <pt x="604" y="41" on="0"/>
        <pt x="610" y="107" on="0"/>
        <pt x="610" y="147" on="1"/>
        <pt x="610" y="577" on="1"/>
        <pt x="696" y="577" on="1"/>
        <pt x="696" y="141" on="1"/>
        <pt x="696" y="102" on="0"/>
        <pt x="687" y="34" on="0"/>
        <pt x="664" y="-35" on="0"/>
        <pt x="627" y="-108" on="0"/>
        <pt x="600" y="-151" on="1"/>
      </contour>
    </TTGlyph>
    <TTGlyph name="F_K.sc" xMin="84" yMin="0" xMax="1110" yMax="577">
      <contour>
        <pt x="84" y="577" on="1"/>
        <pt x="499" y="577" on="1"/>
        <pt x="499" y="508" on="1"/>
        <pt x="170" y="508" on="1"/>
        <pt x="170" y="316" on="1"/>
        <pt x="469" y="316" on="1"/>
        <pt x="469" y="251" on="1"/>
        <pt x="170" y="251" on="1"/>
        <pt x="170" y="0" on="1"/>
        <pt x="84" y="0" on="1"/>
      </contour>
      <contour>
        <pt x="600" y="577" on="1"/>
        <pt x="686" y="577" on="1"/>
        <pt x="686" y="327" on="1"/>
        <pt x="807" y="327" on="1"/>
        <pt x="997" y="577" on="1"/>
        <pt x="1095" y="577" on="1"/>
        <pt x="898" y="321" on="1"/>
        <pt x="867" y="301" on="1"/>
        <pt x="867" y="296" on="1"/>
        <pt x="900" y="276" on="1"/>
        <pt x="1110" y="0" on="1"/>
        <pt x="1012" y="0" on="1"/>
        <pt x="815" y="258" on="1"/>
        <pt x="686" y="258" on="1"/>
        <pt x="686" y="0" on="1"/>
        <pt x="600" y="0" on="1"/>
      </contour>
    </TTGlyph>
    <TTGlyph name="F_L.sc" xMin="84" yMin="0" xMax="981" yMax="577">
      <contour>
        <pt x="600" y="577" on="1"/>
        <pt x="686" y="577" on="1"/>
        <pt x="686" y="70" on="1"/>
        <pt x="981" y="70" on="1"/>
        <pt x="981" y="0" on="1"/>
        <pt x="600" y="0" on="1"/>
      </contour>
      <contour>
        <pt x="84" y="577" on="1"/>
        <pt x="499" y="577" on="1"/>
        <pt x="499" y="508" on="1"/>
        <pt x="170" y="508" on="1"/>
        <pt x="170" y="316" on="1"/>
        <pt x="469" y="316" on="1"/>
        <pt x="469" y="251" on="1"/>
        <pt x="170" y="251" on="1"/>
        <pt x="170" y="0" on="1"/>
        <pt x="84" y="0" on="1"/>
      </contour>
    </TTGlyph>
    <TTGlyph name="F_T.sc" xMin="84" yMin="0" xMax="1026" yMax="577">
      <contour>
        <pt x="733" y="507" on="1"/>
        <pt x="526" y="507" on="1"/>
        <pt x="526" y="577" on="1"/>
        <pt x="1026" y="577" on="1"/>
        <pt x="1026" y="507" on="1"/>
        <pt x="819" y="507" on="1"/>
        <pt x="819" y="0" on="1"/>
        <pt x="733" y="0" on="1"/>
      </contour>
      <contour>
        <pt x="84" y="577" on="1"/>
        <pt x="499" y="577" on="1"/>
        <pt x="499" y="508" on="1"/>
        <pt x="170" y="508" on="1"/>
        <pt x="170" y="316" on="1"/>
        <pt x="469" y="316" on="1"/>
        <pt x="469" y="251" on="1"/>
        <pt x="170" y="251" on="1"/>
        <pt x="170" y="0" on="1"/>
        <pt x="84" y="0" on="1"/>
      </contour>
    </TTGlyph>
    <TTGlyph name="G" xMin="51" yMin="-9" xMax="598" yMax="750">
      <contour>
        <pt x="394" y="-9" on="1"/>
        <pt x="51" y="-9" on="0"/>
        <pt x="51" y="368" on="1"/>
        <pt x="51" y="750" on="0"/>
        <pt x="404" y="750" on="1"/>
        <pt x="448" y="750" on="0"/>
        <pt x="544" y="738" on="0"/>
        <pt x="592" y="726" on="1"/>
        <pt x="592" y="650" on="1"/>
        <pt x="532" y="664" on="0"/>
        <pt x="450" y="673" on="0"/>
        <pt x="411" y="673" on="1"/>
        <pt x="271" y="673" on="0"/>
        <pt x="142" y="526" on="0"/>
        <pt x="142" y="369" on="1"/>
        <pt x="142" y="214" on="0"/>
        <pt x="264" y="67" on="0"/>
        <pt x="395" y="67" on="1"/>
        <pt x="418" y="67" on="0"/>
        <pt x="483" y="74" on="0"/>
        <pt x="514" y="79" on="1"/>
        <pt x="514" y="376" on="1"/>
        <pt x="598" y="376" on="1"/>
        <pt x="598" y="22" on="1"/>
        <pt x="573" y="15" on="0"/>
        <pt x="519" y="3" on="0"/>
        <pt x="465" y="-5" on="0"/>
        <pt x="415" y="-9" on="0"/>
      </contour>
    </TTGlyph>
    <TTGlyph name="G.sc" xMin="51" yMin="-8" xMax="536" yMax="585">
      <contour>
        <pt x="352" y="-8" on="1"/>
        <pt x="51" y="-6" on="0"/>
        <pt x="51" y="287" on="1"/>
        <pt x="51" y="585" on="0"/>
        <pt x="362" y="585" on="1"/>
        <pt x="401" y="585" on="0"/>
        <pt x="488" y="576" on="0"/>
        <pt x="529" y="566" on="1"/>
        <pt x="529" y="496" on="1"/>
        <pt x="475" y="505" on="0"/>
        <pt x="403" y="513" on="0"/>
        <pt x="369" y="513" on="1"/>
        <pt x="247" y="513" on="0"/>
        <pt x="139" y="405" on="0"/>
        <pt x="139" y="288" on="1"/>
        <pt x="139" y="172" on="0"/>
        <pt x="241" y="65" on="0"/>
        <pt x="355" y="65" on="1"/>
        <pt x="363" y="65" on="0"/>
        <pt x="389" y="66" on="0"/>
        <pt x="418" y="69" on="0"/>
        <pt x="445" y="73" on="0"/>
        <pt x="455" y="75" on="1"/>
        <pt x="455" y="293" on="1"/>
        <pt x="536" y="293" on="1"/>
        <pt x="536" y="18" on="1"/>
        <pt x="491" y="7" on="0"/>
        <pt x="390" y="-8" on="0"/>
      </contour>
    </TTGlyph>
    <TTGlyph name="Gacute" xMin="51" yMin="-9" xMax="598" yMax="947">
      <contour>
        <pt x="321" y="807" on="1"/>
        <pt x="395" y="947" on="1"/>
        <pt x="487" y="947" on="1"/>
        <pt x="389" y="800" on="1"/>
      </contour>
      <contour>
        <pt x="394" y="-9" on="1"/>
        <pt x="51" y="-9" on="0"/>
        <pt x="51" y="368" on="1"/>
        <pt x="51" y="750" on="0"/>
        <pt x="404" y="750" on="1"/>
        <pt x="448" y="750" on="0"/>
        <pt x="544" y="738" on="0"/>
        <pt x="592" y="726" on="1"/>
        <pt x="592" y="650" on="1"/>
        <pt x="532" y="664" on="0"/>
        <pt x="450" y="673" on="0"/>
        <pt x="411" y="673" on="1"/>
        <pt x="271" y="673" on="0"/>
        <pt x="142" y="526" on="0"/>
        <pt x="142" y="369" on="1"/>
        <pt x="142" y="214" on="0"/>
        <pt x="264" y="67" on="0"/>
        <pt x="395" y="67" on="1"/>
        <pt x="418" y="67" on="0"/>
        <pt x="483" y="74" on="0"/>
        <pt x="514" y="79" on="1"/>
        <pt x="514" y="376" on="1"/>
        <pt x="598" y="376" on="1"/>
        <pt x="598" y="22" on="1"/>
        <pt x="573" y="15" on="0"/>
        <pt x="519" y="3" on="0"/>
        <pt x="465" y="-5" on="0"/>
        <pt x="415" y="-9" on="0"/>
      </contour>
    </TTGlyph>
    <TTGlyph name="Gacute.sc" xMin="51" yMin="-8" xMax="536" yMax="746">
      <contour>
        <pt x="352" y="-8" on="1"/>
        <pt x="51" y="-6" on="0"/>
        <pt x="51" y="287" on="1"/>
        <pt x="51" y="585" on="0"/>
        <pt x="362" y="585" on="1"/>
        <pt x="401" y="585" on="0"/>
        <pt x="488" y="576" on="0"/>
        <pt x="529" y="566" on="1"/>
        <pt x="529" y="494" on="1"/>
        <pt x="476" y="504" on="0"/>
        <pt x="403" y="513" on="0"/>
        <pt x="369" y="513" on="1"/>
        <pt x="249" y="513" on="0"/>
        <pt x="139" y="406" on="0"/>
        <pt x="139" y="288" on="1"/>
        <pt x="139" y="171" on="0"/>
        <pt x="242" y="65" on="0"/>
        <pt x="355" y="65" on="1"/>
        <pt x="363" y="65" on="0"/>
        <pt x="389" y="66" on="0"/>
        <pt x="418" y="69" on="0"/>
        <pt x="445" y="73" on="0"/>
        <pt x="455" y="75" on="1"/>
        <pt x="455" y="293" on="1"/>
        <pt x="536" y="293" on="1"/>
        <pt x="536" y="18" on="1"/>
        <pt x="514" y="12" on="0"/>
        <pt x="466" y="3" on="0"/>
        <pt x="417" y="-4" on="0"/>
        <pt x="371" y="-8" on="0"/>
      </contour>
      <contour>
        <pt x="285" y="631" on="1"/>
        <pt x="348" y="746" on="1"/>
        <pt x="437" y="746" on="1"/>
        <pt x="350" y="625" on="1"/>
      </contour>
    </TTGlyph>
    <TTGlyph name="Gbreve" xMin="51" yMin="-9" xMax="598" yMax="962">
      <contour>
        <pt x="364" y="813" on="1"/>
        <pt x="273" y="813" on="0"/>
        <pt x="183" y="895" on="0"/>
        <pt x="183" y="962" on="1"/>
        <pt x="249" y="962" on="1"/>
        <pt x="249" y="917" on="0"/>
        <pt x="307" y="866" on="0"/>
        <pt x="364" y="866" on="1"/>
        <pt x="422" y="866" on="0"/>
        <pt x="480" y="917" on="0"/>
        <pt x="480" y="962" on="1"/>
        <pt x="546" y="962" on="1"/>
        <pt x="546" y="894" on="0"/>
        <pt x="455" y="813" on="0"/>
      </contour>
      <contour>
        <pt x="394" y="-9" on="1"/>
        <pt x="51" y="-9" on="0"/>
        <pt x="51" y="368" on="1"/>
        <pt x="51" y="750" on="0"/>
        <pt x="404" y="750" on="1"/>
        <pt x="448" y="750" on="0"/>
        <pt x="544" y="738" on="0"/>
        <pt x="592" y="726" on="1"/>
        <pt x="592" y="650" on="1"/>
        <pt x="532" y="664" on="0"/>
        <pt x="450" y="673" on="0"/>
        <pt x="411" y="673" on="1"/>
        <pt x="271" y="673" on="0"/>
        <pt x="142" y="526" on="0"/>
        <pt x="142" y="369" on="1"/>
        <pt x="142" y="214" on="0"/>
        <pt x="264" y="67" on="0"/>
        <pt x="395" y="67" on="1"/>
        <pt x="418" y="67" on="0"/>
        <pt x="483" y="74" on="0"/>
        <pt x="514" y="79" on="1"/>
        <pt x="514" y="376" on="1"/>
        <pt x="598" y="376" on="1"/>
        <pt x="598" y="22" on="1"/>
        <pt x="573" y="15" on="0"/>
        <pt x="519" y="3" on="0"/>
        <pt x="465" y="-5" on="0"/>
        <pt x="415" y="-9" on="0"/>
      </contour>
    </TTGlyph>
    <TTGlyph name="Gbreve.sc" xMin="51" yMin="-8" xMax="536" yMax="756">
      <contour>
        <pt x="352" y="-8" on="1"/>
        <pt x="51" y="-6" on="0"/>
        <pt x="51" y="287" on="1"/>
        <pt x="51" y="585" on="0"/>
        <pt x="362" y="585" on="1"/>
        <pt x="401" y="585" on="0"/>
        <pt x="488" y="576" on="0"/>
        <pt x="529" y="566" on="1"/>
        <pt x="529" y="494" on="1"/>
        <pt x="476" y="504" on="0"/>
        <pt x="403" y="513" on="0"/>
        <pt x="369" y="513" on="1"/>
        <pt x="249" y="513" on="0"/>
        <pt x="139" y="406" on="0"/>
        <pt x="139" y="288" on="1"/>
        <pt x="139" y="171" on="0"/>
        <pt x="242" y="65" on="0"/>
        <pt x="355" y="65" on="1"/>
        <pt x="363" y="65" on="0"/>
        <pt x="389" y="66" on="0"/>
        <pt x="418" y="69" on="0"/>
        <pt x="445" y="73" on="0"/>
        <pt x="455" y="75" on="1"/>
        <pt x="455" y="293" on="1"/>
        <pt x="536" y="293" on="1"/>
        <pt x="536" y="18" on="1"/>
        <pt x="514" y="12" on="0"/>
        <pt x="466" y="3" on="0"/>
        <pt x="417" y="-4" on="0"/>
        <pt x="371" y="-8" on="0"/>
      </contour>
      <contour>
        <pt x="327" y="633" on="1"/>
        <pt x="244" y="633" on="0"/>
        <pt x="165" y="701" on="0"/>
        <pt x="165" y="756" on="1"/>
        <pt x="227" y="756" on="1"/>
        <pt x="227" y="720" on="0"/>
        <pt x="276" y="681" on="0"/>
        <pt x="327" y="681" on="1"/>
        <pt x="378" y="681" on="0"/>
        <pt x="427" y="720" on="0"/>
        <pt x="427" y="756" on="1"/>
        <pt x="489" y="756" on="1"/>
        <pt x="489" y="701" on="0"/>
        <pt x="410" y="633" on="0"/>
      </contour>
    </TTGlyph>
    <TTGlyph name="Gcircumflex" xMin="51" yMin="-9" xMax="598" yMax="957">
      <contour>
        <pt x="394" y="-9" on="1"/>
        <pt x="51" y="-9" on="0"/>
        <pt x="51" y="368" on="1"/>
        <pt x="51" y="750" on="0"/>
        <pt x="404" y="750" on="1"/>
        <pt x="448" y="750" on="0"/>
        <pt x="544" y="738" on="0"/>
        <pt x="592" y="726" on="1"/>
        <pt x="592" y="650" on="1"/>
        <pt x="532" y="664" on="0"/>
        <pt x="450" y="673" on="0"/>
        <pt x="411" y="673" on="1"/>
        <pt x="271" y="673" on="0"/>
        <pt x="142" y="526" on="0"/>
        <pt x="142" y="369" on="1"/>
        <pt x="142" y="214" on="0"/>
        <pt x="264" y="67" on="0"/>
        <pt x="395" y="67" on="1"/>
        <pt x="418" y="67" on="0"/>
        <pt x="483" y="74" on="0"/>
        <pt x="514" y="79" on="1"/>
        <pt x="514" y="376" on="1"/>
        <pt x="598" y="376" on="1"/>
        <pt x="598" y="22" on="1"/>
        <pt x="573" y="15" on="0"/>
        <pt x="519" y="3" on="0"/>
        <pt x="465" y="-5" on="0"/>
        <pt x="415" y="-9" on="0"/>
      </contour>
      <contour>
        <pt x="196" y="882" on="1"/>
        <pt x="361" y="957" on="1"/>
        <pt x="527" y="882" on="1"/>
        <pt x="527" y="812" on="1"/>
        <pt x="361" y="886" on="1"/>
        <pt x="196" y="812" on="1"/>
      </contour>
    </TTGlyph>
    <TTGlyph name="Gcircumflex.sc" xMin="51" yMin="-8" xMax="536" yMax="753">
      <contour>
        <pt x="352" y="-8" on="1"/>
        <pt x="51" y="-6" on="0"/>
        <pt x="51" y="287" on="1"/>
        <pt x="51" y="585" on="0"/>
        <pt x="362" y="585" on="1"/>
        <pt x="401" y="585" on="0"/>
        <pt x="488" y="576" on="0"/>
        <pt x="529" y="566" on="1"/>
        <pt x="529" y="494" on="1"/>
        <pt x="476" y="504" on="0"/>
        <pt x="403" y="513" on="0"/>
        <pt x="369" y="513" on="1"/>
        <pt x="249" y="513" on="0"/>
        <pt x="139" y="406" on="0"/>
        <pt x="139" y="288" on="1"/>
        <pt x="139" y="171" on="0"/>
        <pt x="242" y="65" on="0"/>
        <pt x="355" y="65" on="1"/>
        <pt x="363" y="65" on="0"/>
        <pt x="389" y="66" on="0"/>
        <pt x="418" y="69" on="0"/>
        <pt x="445" y="73" on="0"/>
        <pt x="455" y="75" on="1"/>
        <pt x="455" y="293" on="1"/>
        <pt x="536" y="293" on="1"/>
        <pt x="536" y="18" on="1"/>
        <pt x="514" y="12" on="0"/>
        <pt x="466" y="3" on="0"/>
        <pt x="417" y="-4" on="0"/>
        <pt x="371" y="-8" on="0"/>
      </contour>
      <contour>
        <pt x="175" y="694" on="1"/>
        <pt x="323" y="753" on="1"/>
        <pt x="471" y="694" on="1"/>
        <pt x="471" y="631" on="1"/>
        <pt x="323" y="689" on="1"/>
        <pt x="175" y="631" on="1"/>
      </contour>
    </TTGlyph>
    <TTGlyph name="Gcommaaccent" xMin="51" yMin="-220" xMax="598" yMax="750">
      <contour>
        <pt x="326" y="-69" on="1"/>
        <pt x="418" y="-69" on="1"/>
        <pt x="350" y="-220" on="1"/>
        <pt x="278" y="-220" on="1"/>
      </contour>
      <contour>
        <pt x="394" y="-9" on="1"/>
        <pt x="51" y="-9" on="0"/>
        <pt x="51" y="368" on="1"/>
        <pt x="51" y="750" on="0"/>
        <pt x="404" y="750" on="1"/>
        <pt x="448" y="750" on="0"/>
        <pt x="544" y="738" on="0"/>
        <pt x="592" y="726" on="1"/>
        <pt x="592" y="650" on="1"/>
        <pt x="532" y="664" on="0"/>
        <pt x="450" y="673" on="0"/>
        <pt x="411" y="673" on="1"/>
        <pt x="271" y="673" on="0"/>
        <pt x="142" y="526" on="0"/>
        <pt x="142" y="369" on="1"/>
        <pt x="142" y="214" on="0"/>
        <pt x="264" y="67" on="0"/>
        <pt x="395" y="67" on="1"/>
        <pt x="418" y="67" on="0"/>
        <pt x="483" y="74" on="0"/>
        <pt x="514" y="79" on="1"/>
        <pt x="514" y="376" on="1"/>
        <pt x="598" y="376" on="1"/>
        <pt x="598" y="22" on="1"/>
        <pt x="573" y="15" on="0"/>
        <pt x="519" y="3" on="0"/>
        <pt x="465" y="-5" on="0"/>
        <pt x="415" y="-9" on="0"/>
      </contour>
    </TTGlyph>
    <TTGlyph name="Gcommaaccent.sc" xMin="51" yMin="-172" xMax="536" yMax="585">
      <contour>
        <pt x="352" y="-8" on="1"/>
        <pt x="51" y="-6" on="0"/>
        <pt x="51" y="287" on="1"/>
        <pt x="51" y="585" on="0"/>
        <pt x="362" y="585" on="1"/>
        <pt x="401" y="585" on="0"/>
        <pt x="488" y="576" on="0"/>
        <pt x="529" y="566" on="1"/>
        <pt x="529" y="494" on="1"/>
        <pt x="476" y="504" on="0"/>
        <pt x="403" y="513" on="0"/>
        <pt x="369" y="513" on="1"/>
        <pt x="249" y="513" on="0"/>
        <pt x="139" y="406" on="0"/>
        <pt x="139" y="288" on="1"/>
        <pt x="139" y="171" on="0"/>
        <pt x="242" y="65" on="0"/>
        <pt x="355" y="65" on="1"/>
        <pt x="363" y="65" on="0"/>
        <pt x="389" y="66" on="0"/>
        <pt x="418" y="69" on="0"/>
        <pt x="445" y="73" on="0"/>
        <pt x="455" y="75" on="1"/>
        <pt x="455" y="293" on="1"/>
        <pt x="536" y="293" on="1"/>
        <pt x="536" y="18" on="1"/>
        <pt x="514" y="12" on="0"/>
        <pt x="466" y="3" on="0"/>
        <pt x="417" y="-4" on="0"/>
        <pt x="371" y="-8" on="0"/>
      </contour>
      <contour>
        <pt x="288" y="-54" on="1"/>
        <pt x="377" y="-54" on="1"/>
        <pt x="316" y="-172" on="1"/>
        <pt x="248" y="-172" on="1"/>
      </contour>
    </TTGlyph>
    <TTGlyph name="Gdotaccent" xMin="51" yMin="-9" xMax="598" yMax="925">
      <contour>
        <pt x="366" y="814" on="1"/>
        <pt x="338" y="814" on="0"/>
        <pt x="310" y="840" on="0"/>
        <pt x="310" y="869" on="1"/>
        <pt x="310" y="925" on="0"/>
        <pt x="366" y="925" on="1"/>
        <pt x="423" y="925" on="0"/>
        <pt x="423" y="869" on="1"/>
        <pt x="423" y="840" on="0"/>
        <pt x="394" y="814" on="0"/>
      </contour>
      <contour>
        <pt x="394" y="-9" on="1"/>
        <pt x="51" y="-9" on="0"/>
        <pt x="51" y="368" on="1"/>
        <pt x="51" y="750" on="0"/>
        <pt x="404" y="750" on="1"/>
        <pt x="448" y="750" on="0"/>
        <pt x="544" y="738" on="0"/>
        <pt x="592" y="726" on="1"/>
        <pt x="592" y="650" on="1"/>
        <pt x="532" y="664" on="0"/>
        <pt x="450" y="673" on="0"/>
        <pt x="411" y="673" on="1"/>
        <pt x="271" y="673" on="0"/>
        <pt x="142" y="526" on="0"/>
        <pt x="142" y="369" on="1"/>
        <pt x="142" y="214" on="0"/>
        <pt x="264" y="67" on="0"/>
        <pt x="395" y="67" on="1"/>
        <pt x="418" y="67" on="0"/>
        <pt x="483" y="74" on="0"/>
        <pt x="514" y="79" on="1"/>
        <pt x="514" y="376" on="1"/>
        <pt x="598" y="376" on="1"/>
        <pt x="598" y="22" on="1"/>
        <pt x="573" y="15" on="0"/>
        <pt x="519" y="3" on="0"/>
        <pt x="465" y="-5" on="0"/>
        <pt x="415" y="-9" on="0"/>
      </contour>
    </TTGlyph>
    <TTGlyph name="Gdotaccent.sc" xMin="51" yMin="-8" xMax="536" yMax="734">
      <contour>
        <pt x="352" y="-8" on="1"/>
        <pt x="51" y="-6" on="0"/>
        <pt x="51" y="287" on="1"/>
        <pt x="51" y="585" on="0"/>
        <pt x="362" y="585" on="1"/>
        <pt x="401" y="585" on="0"/>
        <pt x="488" y="576" on="0"/>
        <pt x="529" y="566" on="1"/>
        <pt x="529" y="494" on="1"/>
        <pt x="476" y="504" on="0"/>
        <pt x="403" y="513" on="0"/>
        <pt x="369" y="513" on="1"/>
        <pt x="249" y="513" on="0"/>
        <pt x="139" y="406" on="0"/>
        <pt x="139" y="288" on="1"/>
        <pt x="139" y="171" on="0"/>
        <pt x="242" y="65" on="0"/>
        <pt x="355" y="65" on="1"/>
        <pt x="363" y="65" on="0"/>
        <pt x="389" y="66" on="0"/>
        <pt x="418" y="69" on="0"/>
        <pt x="445" y="73" on="0"/>
        <pt x="455" y="75" on="1"/>
        <pt x="455" y="293" on="1"/>
        <pt x="536" y="293" on="1"/>
        <pt x="536" y="18" on="1"/>
        <pt x="514" y="12" on="0"/>
        <pt x="466" y="3" on="0"/>
        <pt x="417" y="-4" on="0"/>
        <pt x="371" y="-8" on="0"/>
      </contour>
      <contour>
        <pt x="328" y="633" on="1"/>
        <pt x="302" y="633" on="0"/>
        <pt x="275" y="657" on="0"/>
        <pt x="275" y="684" on="1"/>
        <pt x="275" y="734" on="0"/>
        <pt x="328" y="734" on="1"/>
        <pt x="382" y="734" on="0"/>
        <pt x="382" y="684" on="1"/>
        <pt x="382" y="633" on="0"/>
      </contour>
    </TTGlyph>
    <TTGlyph name="H" xMin="89" yMin="0" xMax="678" yMax="740">
      <contour>
        <pt x="89" y="740" on="1"/>
        <pt x="178" y="740" on="1"/>
        <pt x="178" y="416" on="1"/>
        <pt x="589" y="416" on="1"/>
        <pt x="589" y="740" on="1"/>
        <pt x="678" y="740" on="1"/>
        <pt x="678" y="0" on="1"/>
        <pt x="589" y="0" on="1"/>
        <pt x="589" y="342" on="1"/>
        <pt x="178" y="342" on="1"/>
        <pt x="178" y="0" on="1"/>
        <pt x="89" y="0" on="1"/>
      </contour>
    </TTGlyph>
    <TTGlyph name="H.sc" xMin="84" yMin="0" xMax="609" yMax="577">
      <contour>
        <pt x="84" y="577" on="1"/>
        <pt x="170" y="577" on="1"/>
        <pt x="170" y="331" on="1"/>
        <pt x="523" y="331" on="1"/>
        <pt x="523" y="577" on="1"/>
        <pt x="609" y="577" on="1"/>
        <pt x="609" y="0" on="1"/>
        <pt x="523" y="0" on="1"/>
        <pt x="523" y="262" on="1"/>
        <pt x="170" y="262" on="1"/>
        <pt x="170" y="0" on="1"/>
        <pt x="84" y="0" on="1"/>
      </contour>
    </TTGlyph>
    <TTGlyph name="Hbar" xMin="7" yMin="0" xMax="777" yMax="740">
      <contour>
        <pt x="7" y="597" on="1"/>
        <pt x="97" y="597" on="1"/>
        <pt x="97" y="740" on="1"/>
        <pt x="186" y="740" on="1"/>
        <pt x="186" y="597" on="1"/>
        <pt x="597" y="597" on="1"/>
        <pt x="597" y="740" on="1"/>
        <pt x="686" y="740" on="1"/>
        <pt x="686" y="597" on="1"/>
        <pt x="777" y="597" on="1"/>
        <pt x="777" y="545" on="1"/>
        <pt x="686" y="545" on="1"/>
        <pt x="686" y="0" on="1"/>
        <pt x="597" y="0" on="1"/>
        <pt x="597" y="342" on="1"/>
        <pt x="186" y="342" on="1"/>
        <pt x="186" y="0" on="1"/>
        <pt x="97" y="0" on="1"/>
        <pt x="97" y="545" on="1"/>
        <pt x="7" y="545" on="1"/>
      </contour>
      <contour>
        <pt x="597" y="416" on="1"/>
        <pt x="597" y="545" on="1"/>
        <pt x="186" y="545" on="1"/>
        <pt x="186" y="416" on="1"/>
      </contour>
    </TTGlyph>
    <TTGlyph name="Hbar.sc" xMin="14" yMin="0" xMax="693" yMax="577">
      <contour>
        <pt x="14" y="470" on="1"/>
        <pt x="91" y="470" on="1"/>
        <pt x="91" y="577" on="1"/>
        <pt x="176" y="577" on="1"/>
        <pt x="176" y="470" on="1"/>
        <pt x="529" y="470" on="1"/>
        <pt x="529" y="577" on="1"/>
        <pt x="614" y="577" on="1"/>
        <pt x="614" y="470" on="1"/>
        <pt x="693" y="470" on="1"/>
        <pt x="693" y="424" on="1"/>
        <pt x="614" y="424" on="1"/>
        <pt x="614" y="0" on="1"/>
        <pt x="529" y="0" on="1"/>
        <pt x="529" y="257" on="1"/>
        <pt x="176" y="257" on="1"/>
        <pt x="176" y="0" on="1"/>
        <pt x="91" y="0" on="1"/>
        <pt x="91" y="424" on="1"/>
        <pt x="14" y="424" on="1"/>
      </contour>
      <contour>
        <pt x="529" y="326" on="1"/>
        <pt x="529" y="424" on="1"/>
        <pt x="176" y="424" on="1"/>
        <pt x="176" y="326" on="1"/>
      </contour>
    </TTGlyph>
    <TTGlyph name="Hcircumflex" xMin="89" yMin="0" xMax="678" yMax="957">
      <contour>
        <pt x="89" y="740" on="1"/>
        <pt x="178" y="740" on="1"/>
        <pt x="178" y="416" on="1"/>
        <pt x="589" y="416" on="1"/>
        <pt x="589" y="740" on="1"/>
        <pt x="678" y="740" on="1"/>
        <pt x="678" y="0" on="1"/>
        <pt x="589" y="0" on="1"/>
        <pt x="589" y="342" on="1"/>
        <pt x="178" y="342" on="1"/>
        <pt x="178" y="0" on="1"/>
        <pt x="89" y="0" on="1"/>
      </contour>
      <contour>
        <pt x="212" y="882" on="1"/>
        <pt x="377" y="957" on="1"/>
        <pt x="543" y="882" on="1"/>
        <pt x="543" y="812" on="1"/>
        <pt x="377" y="886" on="1"/>
        <pt x="212" y="812" on="1"/>
      </contour>
    </TTGlyph>
    <TTGlyph name="Hcircumflex.sc" xMin="84" yMin="0" xMax="609" yMax="753">
      <contour>
        <pt x="84" y="577" on="1"/>
        <pt x="170" y="577" on="1"/>
        <pt x="170" y="331" on="1"/>
        <pt x="523" y="331" on="1"/>
        <pt x="523" y="577" on="1"/>
        <pt x="609" y="577" on="1"/>
        <pt x="609" y="0" on="1"/>
        <pt x="523" y="0" on="1"/>
        <pt x="523" y="262" on="1"/>
        <pt x="170" y="262" on="1"/>
        <pt x="170" y="0" on="1"/>
        <pt x="84" y="0" on="1"/>
      </contour>
      <contour>
        <pt x="194" y="694" on="1"/>
        <pt x="341" y="753" on="1"/>
        <pt x="490" y="694" on="1"/>
        <pt x="490" y="631" on="1"/>
        <pt x="342" y="689" on="1"/>
        <pt x="194" y="631" on="1"/>
      </contour>
    </TTGlyph>
    <TTGlyph name="Hdotbelow" xMin="89" yMin="-183" xMax="678" yMax="740">
      <contour>
        <pt x="89" y="740" on="1"/>
        <pt x="178" y="740" on="1"/>
        <pt x="178" y="416" on="1"/>
        <pt x="589" y="416" on="1"/>
        <pt x="589" y="740" on="1"/>
        <pt x="678" y="740" on="1"/>
        <pt x="678" y="0" on="1"/>
        <pt x="589" y="0" on="1"/>
        <pt x="589" y="342" on="1"/>
        <pt x="178" y="342" on="1"/>
        <pt x="178" y="0" on="1"/>
        <pt x="89" y="0" on="1"/>
      </contour>
      <contour>
        <pt x="391" y="-183" on="1"/>
        <pt x="365" y="-183" on="0"/>
        <pt x="339" y="-159" on="0"/>
        <pt x="339" y="-132" on="1"/>
        <pt x="339" y="-105" on="0"/>
        <pt x="365" y="-81" on="0"/>
        <pt x="391" y="-81" on="1"/>
        <pt x="417" y="-81" on="0"/>
        <pt x="442" y="-105" on="0"/>
        <pt x="442" y="-132" on="1"/>
        <pt x="442" y="-159" on="0"/>
        <pt x="417" y="-183" on="0"/>
      </contour>
    </TTGlyph>
    <TTGlyph name="Hdotbelow.sc" xMin="84" yMin="-147" xMax="609" yMax="577">
      <contour>
        <pt x="84" y="577" on="1"/>
        <pt x="170" y="577" on="1"/>
        <pt x="170" y="331" on="1"/>
        <pt x="523" y="331" on="1"/>
        <pt x="523" y="577" on="1"/>
        <pt x="609" y="577" on="1"/>
        <pt x="609" y="0" on="1"/>
        <pt x="523" y="0" on="1"/>
        <pt x="523" y="262" on="1"/>
        <pt x="170" y="262" on="1"/>
        <pt x="170" y="0" on="1"/>
        <pt x="84" y="0" on="1"/>
      </contour>
      <contour>
        <pt x="352" y="-147" on="1"/>
        <pt x="306" y="-147" on="0"/>
        <pt x="306" y="-104" on="1"/>
        <pt x="306" y="-59" on="0"/>
        <pt x="352" y="-59" on="1"/>
        <pt x="399" y="-59" on="0"/>
        <pt x="399" y="-104" on="1"/>
        <pt x="399" y="-147" on="0"/>
      </contour>
    </TTGlyph>
    <TTGlyph name="I" xMin="89" yMin="0" xMax="178" yMax="740">
      <contour>
        <pt x="89" y="740" on="1"/>
        <pt x="178" y="740" on="1"/>
        <pt x="178" y="0" on="1"/>
        <pt x="89" y="0" on="1"/>
      </contour>
    </TTGlyph>
    <TTGlyph name="I.sc" xMin="84" yMin="0" xMax="170" yMax="577">
      <contour>
        <pt x="84" y="577" on="1"/>
        <pt x="170" y="577" on="1"/>
        <pt x="170" y="0" on="1"/>
        <pt x="84" y="0" on="1"/>
      </contour>
    </TTGlyph>
    <TTGlyph name="IJ" xMin="89" yMin="-189" xMax="447" yMax="740">
      <contour>
        <pt x="89" y="740" on="1"/>
        <pt x="178" y="740" on="1"/>
        <pt x="178" y="0" on="1"/>
        <pt x="89" y="0" on="1"/>
      </contour>
      <contour>
        <pt x="279" y="-160" on="1"/>
        <pt x="301" y="-111" on="0"/>
        <pt x="332" y="-29" on="0"/>
        <pt x="350" y="51" on="0"/>
        <pt x="358" y="135" on="0"/>
        <pt x="358" y="186" on="1"/>
        <pt x="358" y="740" on="1"/>
        <pt x="447" y="740" on="1"/>
        <pt x="447" y="181" on="1"/>
        <pt x="447" y="131" on="0"/>
        <pt x="436" y="44" on="0"/>
        <pt x="411" y="-42" on="0"/>
        <pt x="370" y="-134" on="0"/>
        <pt x="340" y="-189" on="1"/>
      </contour>
    </TTGlyph>
    <TTGlyph name="Iacute" xMin="89" yMin="0" xMax="261" yMax="947">
      <contour>
        <pt x="89" y="740" on="1"/>
        <pt x="178" y="740" on="1"/>
        <pt x="178" y="0" on="1"/>
        <pt x="89" y="0" on="1"/>
      </contour>
      <contour>
        <pt x="95" y="807" on="1"/>
        <pt x="169" y="947" on="1"/>
        <pt x="261" y="947" on="1"/>
        <pt x="163" y="800" on="1"/>
      </contour>
    </TTGlyph>
    <TTGlyph name="Iacute.sc" xMin="84" yMin="0" xMax="242" yMax="746">
      <contour>
        <pt x="84" y="577" on="1"/>
        <pt x="170" y="577" on="1"/>
        <pt x="170" y="0" on="1"/>
        <pt x="84" y="0" on="1"/>
      </contour>
      <contour>
        <pt x="90" y="631" on="1"/>
        <pt x="154" y="746" on="1"/>
        <pt x="242" y="746" on="1"/>
        <pt x="156" y="625" on="1"/>
      </contour>
    </TTGlyph>
    <TTGlyph name="Ibreve" xMin="-48" yMin="0" xMax="315" yMax="962">
      <contour>
        <pt x="89" y="740" on="1"/>
        <pt x="178" y="740" on="1"/>
        <pt x="178" y="0" on="1"/>
        <pt x="89" y="0" on="1"/>
      </contour>
      <contour>
        <pt x="133" y="813" on="1"/>
        <pt x="42" y="813" on="0"/>
        <pt x="-48" y="895" on="0"/>
        <pt x="-48" y="962" on="1"/>
        <pt x="18" y="962" on="1"/>
        <pt x="18" y="917" on="0"/>
        <pt x="76" y="866" on="0"/>
        <pt x="133" y="866" on="1"/>
        <pt x="191" y="866" on="0"/>
        <pt x="249" y="917" on="0"/>
        <pt x="249" y="962" on="1"/>
        <pt x="315" y="962" on="1"/>
        <pt x="315" y="894" on="0"/>
        <pt x="224" y="813" on="0"/>
      </contour>
    </TTGlyph>
    <TTGlyph name="Ibreve.sc" xMin="-34" yMin="0" xMax="289" yMax="756">
      <contour>
        <pt x="84" y="577" on="1"/>
        <pt x="170" y="577" on="1"/>
        <pt x="170" y="0" on="1"/>
        <pt x="84" y="0" on="1"/>
      </contour>
      <contour>
        <pt x="128" y="633" on="1"/>
        <pt x="44" y="633" on="0"/>
        <pt x="-34" y="701" on="0"/>
        <pt x="-34" y="756" on="1"/>
        <pt x="27" y="756" on="1"/>
        <pt x="27" y="720" on="0"/>
        <pt x="77" y="681" on="0"/>
        <pt x="128" y="681" on="1"/>
        <pt x="179" y="681" on="0"/>
        <pt x="228" y="720" on="0"/>
        <pt x="228" y="756" on="1"/>
        <pt x="289" y="756" on="1"/>
        <pt x="289" y="701" on="0"/>
        <pt x="210" y="633" on="0"/>
      </contour>
    </TTGlyph>
    <TTGlyph name="Icircumflex" xMin="-30" yMin="0" xMax="301" yMax="957">
      <contour>
        <pt x="89" y="740" on="1"/>
        <pt x="178" y="740" on="1"/>
        <pt x="178" y="0" on="1"/>
        <pt x="89" y="0" on="1"/>
      </contour>
      <contour>
        <pt x="-30" y="882" on="1"/>
        <pt x="135" y="957" on="1"/>
        <pt x="301" y="882" on="1"/>
        <pt x="301" y="812" on="1"/>
        <pt x="135" y="886" on="1"/>
        <pt x="-30" y="812" on="1"/>
      </contour>
    </TTGlyph>
    <TTGlyph name="Icircumflex.sc" xMin="-19" yMin="0" xMax="276" yMax="753">
      <contour>
        <pt x="84" y="577" on="1"/>
        <pt x="170" y="577" on="1"/>
        <pt x="170" y="0" on="1"/>
        <pt x="84" y="0" on="1"/>
      </contour>
      <contour>
        <pt x="-19" y="694" on="1"/>
        <pt x="128" y="753" on="1"/>
        <pt x="276" y="694" on="1"/>
        <pt x="276" y="631" on="1"/>
        <pt x="129" y="689" on="1"/>
        <pt x="-19" y="631" on="1"/>
      </contour>
    </TTGlyph>
    <TTGlyph name="Idblgrave" xMin="-70" yMin="0" xMax="252" yMax="942">
      <contour>
        <pt x="89" y="740" on="1"/>
        <pt x="178" y="740" on="1"/>
        <pt x="178" y="0" on="1"/>
        <pt x="89" y="0" on="1"/>
      </contour>
      <contour>
        <pt x="28" y="795" on="1"/>
        <pt x="-70" y="942" on="1"/>
        <pt x="19" y="942" on="1"/>
        <pt x="92" y="808" on="1"/>
      </contour>
      <contour>
        <pt x="188" y="795" on="1"/>
        <pt x="89" y="942" on="1"/>
        <pt x="178" y="942" on="1"/>
        <pt x="252" y="808" on="1"/>
      </contour>
    </TTGlyph>
    <TTGlyph name="Idblgrave.sc" xMin="-56" yMin="0" xMax="236" yMax="743">
      <contour>
        <pt x="84" y="577" on="1"/>
        <pt x="170" y="577" on="1"/>
        <pt x="170" y="0" on="1"/>
        <pt x="84" y="0" on="1"/>
      </contour>
      <contour>
        <pt x="31" y="621" on="1"/>
        <pt x="-56" y="743" on="1"/>
        <pt x="29" y="743" on="1"/>
        <pt x="92" y="631" on="1"/>
      </contour>
      <contour>
        <pt x="175" y="621" on="1"/>
        <pt x="88" y="743" on="1"/>
        <pt x="172" y="743" on="1"/>
        <pt x="236" y="631" on="1"/>
      </contour>
    </TTGlyph>
    <TTGlyph name="Idieresis" xMin="-51" yMin="0" xMax="323" yMax="930">
      <contour>
        <pt x="89" y="740" on="1"/>
        <pt x="178" y="740" on="1"/>
        <pt x="178" y="0" on="1"/>
        <pt x="89" y="0" on="1"/>
      </contour>
      <contour>
        <pt x="5" y="819" on="1"/>
        <pt x="-51" y="819" on="0"/>
        <pt x="-51" y="875" on="1"/>
        <pt x="-51" y="930" on="0"/>
        <pt x="5" y="930" on="1"/>
        <pt x="62" y="930" on="0"/>
        <pt x="62" y="875" on="1"/>
        <pt x="62" y="819" on="0"/>
      </contour>
      <contour>
        <pt x="266" y="819" on="1"/>
        <pt x="209" y="819" on="0"/>
        <pt x="209" y="875" on="1"/>
        <pt x="209" y="930" on="0"/>
        <pt x="266" y="930" on="1"/>
        <pt x="293" y="930" on="0"/>
        <pt x="323" y="904" on="0"/>
        <pt x="323" y="875" on="1"/>
        <pt x="323" y="846" on="0"/>
        <pt x="293" y="819" on="0"/>
      </contour>
    </TTGlyph>
    <TTGlyph name="Idieresis.sc" xMin="-40" yMin="0" xMax="298" yMax="738">
      <contour>
        <pt x="84" y="577" on="1"/>
        <pt x="170" y="577" on="1"/>
        <pt x="170" y="0" on="1"/>
        <pt x="84" y="0" on="1"/>
      </contour>
      <contour>
        <pt x="13" y="637" on="1"/>
        <pt x="-13" y="637" on="0"/>
        <pt x="-40" y="661" on="0"/>
        <pt x="-40" y="688" on="1"/>
        <pt x="-40" y="738" on="0"/>
        <pt x="13" y="738" on="1"/>
        <pt x="66" y="738" on="0"/>
        <pt x="66" y="688" on="1"/>
        <pt x="66" y="661" on="0"/>
        <pt x="39" y="637" on="0"/>
      </contour>
      <contour>
        <pt x="244" y="637" on="1"/>
        <pt x="218" y="637" on="0"/>
        <pt x="192" y="661" on="0"/>
        <pt x="192" y="688" on="1"/>
        <pt x="192" y="738" on="0"/>
        <pt x="244" y="738" on="1"/>
        <pt x="298" y="738" on="0"/>
        <pt x="298" y="688" on="1"/>
        <pt x="298" y="661" on="0"/>
        <pt x="270" y="637" on="0"/>
      </contour>
    </TTGlyph>
    <TTGlyph name="Idotaccent" xMin="78" yMin="0" xMax="191" yMax="925">
      <contour>
        <pt x="89" y="740" on="1"/>
        <pt x="178" y="740" on="1"/>
        <pt x="178" y="0" on="1"/>
        <pt x="89" y="0" on="1"/>
      </contour>
      <contour>
        <pt x="134" y="814" on="1"/>
        <pt x="106" y="814" on="0"/>
        <pt x="78" y="840" on="0"/>
        <pt x="78" y="869" on="1"/>
        <pt x="78" y="925" on="0"/>
        <pt x="134" y="925" on="1"/>
        <pt x="191" y="925" on="0"/>
        <pt x="191" y="869" on="1"/>
        <pt x="191" y="840" on="0"/>
        <pt x="162" y="814" on="0"/>
      </contour>
    </TTGlyph>
    <TTGlyph name="Idotaccent.sc" xMin="75" yMin="0" xMax="181" yMax="734">
      <contour>
        <pt x="84" y="577" on="1"/>
        <pt x="170" y="577" on="1"/>
        <pt x="170" y="0" on="1"/>
        <pt x="84" y="0" on="1"/>
      </contour>
      <contour>
        <pt x="128" y="633" on="1"/>
        <pt x="101" y="633" on="0"/>
        <pt x="75" y="657" on="0"/>
        <pt x="75" y="684" on="1"/>
        <pt x="75" y="734" on="0"/>
        <pt x="128" y="734" on="1"/>
        <pt x="181" y="734" on="0"/>
        <pt x="181" y="684" on="1"/>
        <pt x="181" y="633" on="0"/>
      </contour>
    </TTGlyph>
    <TTGlyph name="Idotbelow" xMin="82" yMin="-183" xMax="185" yMax="740">
      <contour>
        <pt x="89" y="740" on="1"/>
        <pt x="178" y="740" on="1"/>
        <pt x="178" y="0" on="1"/>
        <pt x="89" y="0" on="1"/>
      </contour>
      <contour>
        <pt x="134" y="-183" on="1"/>
        <pt x="108" y="-183" on="0"/>
        <pt x="82" y="-159" on="0"/>
        <pt x="82" y="-132" on="1"/>
        <pt x="82" y="-105" on="0"/>
        <pt x="108" y="-81" on="0"/>
        <pt x="134" y="-81" on="1"/>
        <pt x="160" y="-81" on="0"/>
        <pt x="185" y="-105" on="0"/>
        <pt x="185" y="-132" on="1"/>
        <pt x="185" y="-159" on="0"/>
        <pt x="160" y="-183" on="0"/>
      </contour>
    </TTGlyph>
    <TTGlyph name="Idotbelow.sc" xMin="82" yMin="-147" xMax="175" yMax="577">
      <contour>
        <pt x="84" y="577" on="1"/>
        <pt x="170" y="577" on="1"/>
        <pt x="170" y="0" on="1"/>
        <pt x="84" y="0" on="1"/>
      </contour>
      <contour>
        <pt x="128" y="-147" on="1"/>
        <pt x="82" y="-147" on="0"/>
        <pt x="82" y="-104" on="1"/>
        <pt x="82" y="-59" on="0"/>
        <pt x="128" y="-59" on="1"/>
        <pt x="175" y="-59" on="0"/>
        <pt x="175" y="-104" on="1"/>
        <pt x="175" y="-147" on="0"/>
      </contour>
    </TTGlyph>
    <TTGlyph name="Igrave" xMin="9" yMin="0" xMax="178" yMax="947">
      <contour>
        <pt x="89" y="740" on="1"/>
        <pt x="178" y="740" on="1"/>
        <pt x="178" y="0" on="1"/>
        <pt x="89" y="0" on="1"/>
      </contour>
      <contour>
        <pt x="106" y="800" on="1"/>
        <pt x="9" y="947" on="1"/>
        <pt x="101" y="947" on="1"/>
        <pt x="175" y="813" on="1"/>
      </contour>
    </TTGlyph>
    <TTGlyph name="Igrave.sc" xMin="15" yMin="0" xMax="170" yMax="746">
      <contour>
        <pt x="84" y="577" on="1"/>
        <pt x="170" y="577" on="1"/>
        <pt x="170" y="0" on="1"/>
        <pt x="84" y="0" on="1"/>
      </contour>
      <contour>
        <pt x="102" y="625" on="1"/>
        <pt x="15" y="746" on="1"/>
        <pt x="103" y="746" on="1"/>
        <pt x="166" y="635" on="1"/>
      </contour>
    </TTGlyph>
    <TTGlyph name="Iinvertedbreve" xMin="-47" yMin="0" xMax="316" yMax="967">
      <contour>
        <pt x="89" y="740" on="1"/>
        <pt x="178" y="740" on="1"/>
        <pt x="178" y="0" on="1"/>
        <pt x="89" y="0" on="1"/>
      </contour>
      <contour>
        <pt x="250" y="818" on="1"/>
        <pt x="250" y="864" on="0"/>
        <pt x="192" y="914" on="0"/>
        <pt x="135" y="914" on="1"/>
        <pt x="77" y="914" on="0"/>
        <pt x="19" y="864" on="0"/>
        <pt x="19" y="818" on="1"/>
        <pt x="-47" y="818" on="1"/>
        <pt x="-47" y="885" on="0"/>
        <pt x="43" y="967" on="0"/>
        <pt x="135" y="967" on="1"/>
        <pt x="226" y="967" on="0"/>
        <pt x="316" y="886" on="0"/>
        <pt x="316" y="818" on="1"/>
      </contour>
    </TTGlyph>
    <TTGlyph name="Iinvertedbreve.sc" xMin="-34" yMin="0" xMax="291" yMax="760">
      <contour>
        <pt x="84" y="577" on="1"/>
        <pt x="170" y="577" on="1"/>
        <pt x="170" y="0" on="1"/>
        <pt x="84" y="0" on="1"/>
      </contour>
      <contour>
        <pt x="229" y="638" on="1"/>
        <pt x="229" y="673" on="0"/>
        <pt x="180" y="712" on="0"/>
        <pt x="129" y="712" on="1"/>
        <pt x="78" y="712" on="0"/>
        <pt x="28" y="673" on="0"/>
        <pt x="28" y="638" on="1"/>
        <pt x="-34" y="638" on="1"/>
        <pt x="-34" y="692" on="0"/>
        <pt x="45" y="760" on="0"/>
        <pt x="129" y="760" on="1"/>
        <pt x="212" y="760" on="0"/>
        <pt x="291" y="693" on="0"/>
        <pt x="291" y="638" on="1"/>
      </contour>
    </TTGlyph>
    <TTGlyph name="Imacron" xMin="-26" yMin="0" xMax="296" yMax="907">
      <contour>
        <pt x="89" y="740" on="1"/>
        <pt x="178" y="740" on="1"/>
        <pt x="178" y="0" on="1"/>
        <pt x="89" y="0" on="1"/>
      </contour>
      <contour>
        <pt x="-26" y="907" on="1"/>
        <pt x="296" y="907" on="1"/>
        <pt x="296" y="842" on="1"/>
        <pt x="-26" y="842" on="1"/>
      </contour>
    </TTGlyph>
    <TTGlyph name="Imacron.sc" xMin="-16" yMin="0" xMax="273" yMax="717">
      <contour>
        <pt x="84" y="577" on="1"/>
        <pt x="170" y="577" on="1"/>
        <pt x="170" y="0" on="1"/>
        <pt x="84" y="0" on="1"/>
      </contour>
      <contour>
        <pt x="-16" y="717" on="1"/>
        <pt x="273" y="717" on="1"/>
        <pt x="273" y="657" on="1"/>
        <pt x="-16" y="657" on="1"/>
      </contour>
    </TTGlyph>
    <TTGlyph name="Iogonek" xMin="-2" yMin="-220" xMax="178" yMax="740">
      <contour>
        <pt x="89" y="740" on="1"/>
        <pt x="178" y="740" on="1"/>
        <pt x="178" y="-17" on="1"/>
        <pt x="117" y="-46" on="0"/>
        <pt x="61" y="-102" on="0"/>
        <pt x="61" y="-131" on="1"/>
        <pt x="61" y="-165" on="0"/>
        <pt x="107" y="-165" on="1"/>
        <pt x="121" y="-165" on="0"/>
        <pt x="160" y="-159" on="0"/>
        <pt x="177" y="-154" on="1"/>
        <pt x="177" y="-208" on="1"/>
        <pt x="147" y="-220" on="0"/>
        <pt x="104" y="-220" on="1"/>
        <pt x="-2" y="-220" on="0"/>
        <pt x="-2" y="-136" on="1"/>
        <pt x="-2" y="-98" on="0"/>
        <pt x="48" y="-35" on="0"/>
        <pt x="105" y="0" on="1"/>
        <pt x="89" y="0" on="1"/>
      </contour>
    </TTGlyph>
    <TTGlyph name="Iogonek.sc" xMin="7" yMin="-172" xMax="170" yMax="577">
      <contour>
        <pt x="84" y="577" on="1"/>
        <pt x="170" y="577" on="1"/>
        <pt x="170" y="-12" on="1"/>
        <pt x="116" y="-33" on="0"/>
        <pt x="68" y="-72" on="0"/>
        <pt x="68" y="-95" on="1"/>
        <pt x="68" y="-110" on="0"/>
        <pt x="87" y="-122" on="0"/>
        <pt x="107" y="-122" on="1"/>
        <pt x="121" y="-122" on="0"/>
        <pt x="155" y="-117" on="0"/>
        <pt x="169" y="-113" on="1"/>
        <pt x="169" y="-162" on="1"/>
        <pt x="155" y="-167" on="0"/>
        <pt x="120" y="-172" on="0"/>
        <pt x="103" y="-172" on="1"/>
        <pt x="7" y="-172" on="0"/>
        <pt x="7" y="-105" on="1"/>
        <pt x="7" y="-75" on="0"/>
        <pt x="47" y="-28" on="0"/>
        <pt x="97" y="0" on="1"/>
        <pt x="84" y="0" on="1"/>
      </contour>
    </TTGlyph>
    <TTGlyph name="Itilde" xMin="-61" yMin="0" xMax="347" yMax="936">
      <contour>
        <pt x="89" y="740" on="1"/>
        <pt x="178" y="740" on="1"/>
        <pt x="178" y="0" on="1"/>
        <pt x="89" y="0" on="1"/>
      </contour>
      <contour>
        <pt x="-61" y="861" on="1"/>
        <pt x="-33" y="898" on="0"/>
        <pt x="33" y="936" on="0"/>
        <pt x="65" y="936" on="1"/>
        <pt x="89" y="936" on="0"/>
        <pt x="131" y="923" on="0"/>
        <pt x="171" y="908" on="0"/>
        <pt x="211" y="895" on="0"/>
        <pt x="234" y="895" on="1"/>
        <pt x="279" y="895" on="0"/>
        <pt x="323" y="933" on="1"/>
        <pt x="347" y="906" on="1"/>
        <pt x="321" y="870" on="0"/>
        <pt x="252" y="830" on="0"/>
        <pt x="217" y="830" on="1"/>
        <pt x="195" y="830" on="0"/>
        <pt x="153" y="843" on="0"/>
        <pt x="112" y="858" on="0"/>
        <pt x="72" y="871" on="0"/>
        <pt x="51" y="871" on="1"/>
        <pt x="28" y="871" on="0"/>
        <pt x="-14" y="854" on="0"/>
        <pt x="-37" y="834" on="1"/>
      </contour>
    </TTGlyph>
    <TTGlyph name="Itilde.sc" xMin="-47" yMin="0" xMax="317" yMax="739">
      <contour>
        <pt x="84" y="577" on="1"/>
        <pt x="170" y="577" on="1"/>
        <pt x="170" y="0" on="1"/>
        <pt x="84" y="0" on="1"/>
      </contour>
      <contour>
        <pt x="-47" y="672" on="1"/>
        <pt x="-21" y="704" on="0"/>
        <pt x="38" y="739" on="0"/>
        <pt x="67" y="739" on="1"/>
        <pt x="88" y="739" on="0"/>
        <pt x="125" y="729" on="0"/>
        <pt x="161" y="718" on="0"/>
        <pt x="197" y="708" on="0"/>
        <pt x="217" y="708" on="1"/>
        <pt x="238" y="708" on="0"/>
        <pt x="277" y="721" on="0"/>
        <pt x="297" y="736" on="1"/>
        <pt x="317" y="715" on="1"/>
        <pt x="293" y="682" on="0"/>
        <pt x="231" y="647" on="0"/>
        <pt x="201" y="647" on="1"/>
        <pt x="181" y="647" on="0"/>
        <pt x="143" y="657" on="0"/>
        <pt x="106" y="669" on="0"/>
        <pt x="70" y="679" on="0"/>
        <pt x="51" y="679" on="1"/>
        <pt x="31" y="679" on="0"/>
        <pt x="-6" y="666" on="0"/>
        <pt x="-27" y="649" on="1"/>
      </contour>
    </TTGlyph>
    <TTGlyph name="J" xMin="12" yMin="-189" xMax="180" yMax="740">
      <contour>
        <pt x="12" y="-160" on="1"/>
        <pt x="34" y="-111" on="0"/>
        <pt x="65" y="-29" on="0"/>
        <pt x="83" y="51" on="0"/>
        <pt x="91" y="135" on="0"/>
        <pt x="91" y="186" on="1"/>
        <pt x="91" y="740" on="1"/>
        <pt x="180" y="740" on="1"/>
        <pt x="180" y="181" on="1"/>
        <pt x="180" y="131" on="0"/>
        <pt x="169" y="44" on="0"/>
        <pt x="144" y="-42" on="0"/>
        <pt x="103" y="-134" on="0"/>
        <pt x="73" y="-189" on="1"/>
      </contour>
    </TTGlyph>
    <TTGlyph name="J.sc" xMin="18" yMin="-151" xMax="172" yMax="577">
      <contour>
        <pt x="18" y="-124" on="1"/>
        <pt x="38" y="-86" on="0"/>
        <pt x="64" y="-22" on="0"/>
        <pt x="80" y="41" on="0"/>
        <pt x="86" y="107" on="0"/>
        <pt x="86" y="147" on="1"/>
        <pt x="86" y="577" on="1"/>
        <pt x="172" y="577" on="1"/>
        <pt x="172" y="141" on="1"/>
        <pt x="172" y="102" on="0"/>
        <pt x="163" y="34" on="0"/>
        <pt x="140" y="-35" on="0"/>
        <pt x="103" y="-108" on="0"/>
        <pt x="76" y="-151" on="1"/>
      </contour>
    </TTGlyph>
    <TTGlyph name="Jcircumflex" xMin="-28" yMin="-189" xMax="303" yMax="957">
      <contour>
        <pt x="12" y="-160" on="1"/>
        <pt x="34" y="-111" on="0"/>
        <pt x="65" y="-29" on="0"/>
        <pt x="83" y="51" on="0"/>
        <pt x="91" y="135" on="0"/>
        <pt x="91" y="186" on="1"/>
        <pt x="91" y="740" on="1"/>
        <pt x="180" y="740" on="1"/>
        <pt x="180" y="181" on="1"/>
        <pt x="180" y="131" on="0"/>
        <pt x="169" y="44" on="0"/>
        <pt x="144" y="-42" on="0"/>
        <pt x="103" y="-134" on="0"/>
        <pt x="73" y="-189" on="1"/>
      </contour>
      <contour>
        <pt x="-28" y="882" on="1"/>
        <pt x="137" y="957" on="1"/>
        <pt x="303" y="882" on="1"/>
        <pt x="303" y="812" on="1"/>
        <pt x="137" y="886" on="1"/>
        <pt x="-28" y="812" on="1"/>
      </contour>
    </TTGlyph>
    <TTGlyph name="Jcircumflex.sc" xMin="-18" yMin="-151" xMax="278" yMax="753">
      <contour>
        <pt x="18" y="-124" on="1"/>
        <pt x="37" y="-86" on="0"/>
        <pt x="63" y="-22" on="0"/>
        <pt x="79" y="41" on="0"/>
        <pt x="85" y="107" on="0"/>
        <pt x="85" y="147" on="1"/>
        <pt x="85" y="577" on="1"/>
        <pt x="171" y="577" on="1"/>
        <pt x="171" y="141" on="1"/>
        <pt x="171" y="102" on="0"/>
        <pt x="162" y="34" on="0"/>
        <pt x="139" y="-35" on="0"/>
        <pt x="103" y="-108" on="0"/>
        <pt x="76" y="-151" on="1"/>
      </contour>
      <contour>
        <pt x="-18" y="694" on="1"/>
        <pt x="129" y="753" on="1"/>
        <pt x="278" y="694" on="1"/>
        <pt x="278" y="631" on="1"/>
        <pt x="130" y="689" on="1"/>
        <pt x="-18" y="631" on="1"/>
      </contour>
    </TTGlyph>
    <TTGlyph name="K" xMin="89" yMin="0" xMax="663" yMax="740">
      <contour>
        <pt x="89" y="740" on="1"/>
        <pt x="178" y="740" on="1"/>
        <pt x="178" y="414" on="1"/>
        <pt x="319" y="414" on="1"/>
        <pt x="544" y="740" on="1"/>
        <pt x="645" y="740" on="1"/>
        <pt x="415" y="410" on="1"/>
        <pt x="381" y="384" on="1"/>
        <pt x="381" y="378" on="1"/>
        <pt x="417" y="353" on="1"/>
        <pt x="663" y="0" on="1"/>
        <pt x="562" y="0" on="1"/>
        <pt x="328" y="339" on="1"/>
        <pt x="178" y="339" on="1"/>
        <pt x="178" y="0" on="1"/>
        <pt x="89" y="0" on="1"/>
      </contour>
    </TTGlyph>
    <TTGlyph name="K.sc" xMin="84" yMin="0" xMax="594" yMax="577">
      <contour>
        <pt x="84" y="577" on="1"/>
        <pt x="170" y="577" on="1"/>
        <pt x="170" y="327" on="1"/>
        <pt x="291" y="327" on="1"/>
        <pt x="481" y="577" on="1"/>
        <pt x="579" y="577" on="1"/>
        <pt x="382" y="321" on="1"/>
        <pt x="351" y="301" on="1"/>
        <pt x="351" y="296" on="1"/>
        <pt x="384" y="276" on="1"/>
        <pt x="594" y="0" on="1"/>
        <pt x="496" y="0" on="1"/>
        <pt x="299" y="258" on="1"/>
        <pt x="170" y="258" on="1"/>
        <pt x="170" y="0" on="1"/>
        <pt x="84" y="0" on="1"/>
      </contour>
    </TTGlyph>
    <TTGlyph name="Kcommaaccent" xMin="89" yMin="-220" xMax="663" yMax="740">
      <contour>
        <pt x="300" y="-69" on="1"/>
        <pt x="392" y="-69" on="1"/>
        <pt x="324" y="-220" on="1"/>
        <pt x="252" y="-220" on="1"/>
      </contour>
      <contour>
        <pt x="89" y="740" on="1"/>
        <pt x="178" y="740" on="1"/>
        <pt x="178" y="414" on="1"/>
        <pt x="319" y="414" on="1"/>
        <pt x="544" y="740" on="1"/>
        <pt x="645" y="740" on="1"/>
        <pt x="415" y="410" on="1"/>
        <pt x="381" y="384" on="1"/>
        <pt x="381" y="378" on="1"/>
        <pt x="417" y="353" on="1"/>
        <pt x="663" y="0" on="1"/>
        <pt x="562" y="0" on="1"/>
        <pt x="328" y="339" on="1"/>
        <pt x="178" y="339" on="1"/>
        <pt x="178" y="0" on="1"/>
        <pt x="89" y="0" on="1"/>
      </contour>
    </TTGlyph>
    <TTGlyph name="Kcommaaccent.sc" xMin="84" yMin="-172" xMax="594" yMax="577">
      <contour>
        <pt x="84" y="577" on="1"/>
        <pt x="170" y="577" on="1"/>
        <pt x="170" y="327" on="1"/>
        <pt x="291" y="327" on="1"/>
        <pt x="481" y="577" on="1"/>
        <pt x="579" y="577" on="1"/>
        <pt x="382" y="321" on="1"/>
        <pt x="351" y="301" on="1"/>
        <pt x="351" y="296" on="1"/>
        <pt x="384" y="276" on="1"/>
        <pt x="594" y="0" on="1"/>
        <pt x="496" y="0" on="1"/>
        <pt x="299" y="258" on="1"/>
        <pt x="170" y="258" on="1"/>
        <pt x="170" y="0" on="1"/>
        <pt x="84" y="0" on="1"/>
      </contour>
      <contour>
        <pt x="277" y="-54" on="1"/>
        <pt x="366" y="-54" on="1"/>
        <pt x="305" y="-172" on="1"/>
        <pt x="237" y="-172" on="1"/>
      </contour>
    </TTGlyph>
    <TTGlyph name="L" xMin="89" yMin="0" xMax="516" yMax="740">
      <contour>
        <pt x="89" y="740" on="1"/>
        <pt x="178" y="740" on="1"/>
        <pt x="178" y="74" on="1"/>
        <pt x="516" y="74" on="1"/>
        <pt x="516" y="0" on="1"/>
        <pt x="89" y="0" on="1"/>
      </contour>
    </TTGlyph>
    <TTGlyph name="L.sc" xMin="84" yMin="0" xMax="465" yMax="577">
      <contour>
        <pt x="84" y="577" on="1"/>
        <pt x="170" y="577" on="1"/>
        <pt x="170" y="70" on="1"/>
        <pt x="465" y="70" on="1"/>
        <pt x="465" y="0" on="1"/>
        <pt x="84" y="0" on="1"/>
      </contour>
    </TTGlyph>
    <TTGlyph name="Lacute" xMin="89" yMin="0" xMax="516" yMax="947">
      <contour>
        <pt x="100" y="807" on="1"/>
        <pt x="174" y="947" on="1"/>
        <pt x="266" y="947" on="1"/>
        <pt x="168" y="800" on="1"/>
      </contour>
      <contour>
        <pt x="89" y="740" on="1"/>
        <pt x="178" y="740" on="1"/>
        <pt x="178" y="74" on="1"/>
        <pt x="516" y="74" on="1"/>
        <pt x="516" y="0" on="1"/>
        <pt x="89" y="0" on="1"/>
      </contour>
    </TTGlyph>
    <TTGlyph name="Lacute.sc" xMin="84" yMin="0" xMax="466" yMax="746">
      <contour>
        <pt x="84" y="577" on="1"/>
        <pt x="170" y="577" on="1"/>
        <pt x="170" y="70" on="1"/>
        <pt x="466" y="70" on="1"/>
        <pt x="466" y="0" on="1"/>
        <pt x="84" y="0" on="1"/>
      </contour>
      <contour>
        <pt x="95" y="631" on="1"/>
        <pt x="159" y="746" on="1"/>
        <pt x="247" y="746" on="1"/>
        <pt x="160" y="625" on="1"/>
      </contour>
    </TTGlyph>
    <TTGlyph name="Lcaron" xMin="89" yMin="0" xMax="516" yMax="759">
      <contour>
        <pt x="395" y="759" on="1"/>
        <pt x="468" y="759" on="1"/>
        <pt x="439" y="531" on="1"/>
        <pt x="395" y="531" on="1"/>
      </contour>
      <contour>
        <pt x="89" y="740" on="1"/>
        <pt x="178" y="740" on="1"/>
        <pt x="178" y="74" on="1"/>
        <pt x="516" y="74" on="1"/>
        <pt x="516" y="0" on="1"/>
        <pt x="89" y="0" on="1"/>
      </contour>
    </TTGlyph>
    <TTGlyph name="Lcaron.sc" xMin="84" yMin="0" xMax="465" yMax="598">
      <contour>
        <pt x="84" y="577" on="1"/>
        <pt x="170" y="577" on="1"/>
        <pt x="170" y="70" on="1"/>
        <pt x="465" y="70" on="1"/>
        <pt x="465" y="0" on="1"/>
        <pt x="84" y="0" on="1"/>
      </contour>
      <contour>
        <pt x="355" y="598" on="1"/>
        <pt x="424" y="598" on="1"/>
        <pt x="398" y="421" on="1"/>
        <pt x="355" y="421" on="1"/>
      </contour>
    </TTGlyph>
    <TTGlyph name="Lcommaaccent" xMin="89" yMin="-220" xMax="516" yMax="740">
      <contour>
        <pt x="259" y="-69" on="1"/>
        <pt x="351" y="-69" on="1"/>
        <pt x="283" y="-220" on="1"/>
        <pt x="211" y="-220" on="1"/>
      </contour>
      <contour>
        <pt x="89" y="740" on="1"/>
        <pt x="178" y="740" on="1"/>
        <pt x="178" y="74" on="1"/>
        <pt x="516" y="74" on="1"/>
        <pt x="516" y="0" on="1"/>
        <pt x="89" y="0" on="1"/>
      </contour>
    </TTGlyph>
    <TTGlyph name="Lcommaaccent.sc" xMin="84" yMin="-172" xMax="465" yMax="577">
      <contour>
        <pt x="84" y="577" on="1"/>
        <pt x="170" y="577" on="1"/>
        <pt x="170" y="70" on="1"/>
        <pt x="465" y="70" on="1"/>
        <pt x="465" y="0" on="1"/>
        <pt x="84" y="0" on="1"/>
      </contour>
      <contour>
        <pt x="231" y="-54" on="1"/>
        <pt x="319" y="-54" on="1"/>
        <pt x="258" y="-172" on="1"/>
        <pt x="190" y="-172" on="1"/>
      </contour>
    </TTGlyph>
    <TTGlyph name="Ldot" xMin="89" yMin="0" xMax="516" yMax="740">
      <contour>
        <pt x="89" y="740" on="1"/>
        <pt x="178" y="740" on="1"/>
        <pt x="178" y="74" on="1"/>
        <pt x="516" y="74" on="1"/>
        <pt x="516" y="0" on="1"/>
        <pt x="89" y="0" on="1"/>
      </contour>
      <contour>
        <pt x="432" y="322" on="1"/>
        <pt x="404" y="322" on="0"/>
        <pt x="375" y="348" on="0"/>
        <pt x="375" y="377" on="1"/>
        <pt x="375" y="433" on="0"/>
        <pt x="432" y="433" on="1"/>
        <pt x="489" y="433" on="0"/>
        <pt x="489" y="377" on="1"/>
        <pt x="489" y="322" on="0"/>
      </contour>
    </TTGlyph>
    <TTGlyph name="Ldot.sc" xMin="84" yMin="0" xMax="465" yMax="577">
      <contour>
        <pt x="84" y="577" on="1"/>
        <pt x="170" y="577" on="1"/>
        <pt x="170" y="70" on="1"/>
        <pt x="465" y="70" on="1"/>
        <pt x="465" y="0" on="1"/>
        <pt x="84" y="0" on="1"/>
      </contour>
      <contour>
        <pt x="393" y="247" on="1"/>
        <pt x="341" y="247" on="0"/>
        <pt x="341" y="297" on="1"/>
        <pt x="341" y="347" on="0"/>
        <pt x="393" y="347" on="1"/>
        <pt x="447" y="347" on="0"/>
        <pt x="447" y="297" on="1"/>
        <pt x="447" y="247" on="0"/>
      </contour>
    </TTGlyph>
    <TTGlyph name="Lslash" xMin="15" yMin="0" xMax="537" yMax="740">
      <contour>
        <pt x="15" y="299" on="1"/>
        <pt x="110" y="357" on="1"/>
        <pt x="110" y="740" on="1"/>
        <pt x="199" y="740" on="1"/>
        <pt x="199" y="412" on="1"/>
        <pt x="358" y="511" on="1"/>
        <pt x="358" y="437" on="1"/>
        <pt x="199" y="338" on="1"/>
        <pt x="199" y="74" on="1"/>
        <pt x="537" y="74" on="1"/>
        <pt x="537" y="0" on="1"/>
        <pt x="110" y="0" on="1"/>
        <pt x="110" y="283" on="1"/>
        <pt x="15" y="224" on="1"/>
      </contour>
    </TTGlyph>
    <TTGlyph name="Lslash.sc" xMin="21" yMin="0" xMax="484" yMax="577">
      <contour>
        <pt x="21" y="243" on="1"/>
        <pt x="103" y="290" on="1"/>
        <pt x="103" y="577" on="1"/>
        <pt x="188" y="577" on="1"/>
        <pt x="188" y="328" on="1"/>
        <pt x="327" y="406" on="1"/>
        <pt x="327" y="338" on="1"/>
        <pt x="188" y="261" on="1"/>
        <pt x="188" y="70" on="1"/>
        <pt x="484" y="70" on="1"/>
        <pt x="484" y="0" on="1"/>
        <pt x="103" y="0" on="1"/>
        <pt x="103" y="222" on="1"/>
        <pt x="21" y="175" on="1"/>
      </contour>
    </TTGlyph>
    <TTGlyph name="M" xMin="89" yMin="0" xMax="842" yMax="740">
      <contour>
        <pt x="89" y="740" on="1"/>
        <pt x="211" y="740" on="1"/>
        <pt x="400" y="288" on="1"/>
        <pt x="461" y="128" on="1"/>
        <pt x="468" y="128" on="1"/>
        <pt x="530" y="288" on="1"/>
        <pt x="719" y="740" on="1"/>
        <pt x="842" y="740" on="1"/>
        <pt x="842" y="0" on="1"/>
        <pt x="759" y="0" on="1"/>
        <pt x="759" y="626" on="1"/>
        <pt x="753" y="626" on="1"/>
        <pt x="670" y="418" on="1"/>
        <pt x="506" y="30" on="1"/>
        <pt x="424" y="30" on="1"/>
        <pt x="260" y="418" on="1"/>
        <pt x="177" y="626" on="1"/>
        <pt x="171" y="626" on="1"/>
        <pt x="171" y="0" on="1"/>
        <pt x="89" y="0" on="1"/>
      </contour>
    </TTGlyph>
    <TTGlyph name="M.sc" xMin="84" yMin="0" xMax="751" yMax="577">
      <contour>
        <pt x="84" y="577" on="1"/>
        <pt x="198" y="577" on="1"/>
        <pt x="360" y="242" on="1"/>
        <pt x="414" y="119" on="1"/>
        <pt x="421" y="119" on="1"/>
        <pt x="475" y="242" on="1"/>
        <pt x="637" y="577" on="1"/>
        <pt x="751" y="577" on="1"/>
        <pt x="751" y="0" on="1"/>
        <pt x="673" y="0" on="1"/>
        <pt x="673" y="476" on="1"/>
        <pt x="667" y="476" on="1"/>
        <pt x="591" y="307" on="1"/>
        <pt x="455" y="23" on="1"/>
        <pt x="380" y="23" on="1"/>
        <pt x="244" y="307" on="1"/>
        <pt x="168" y="476" on="1"/>
        <pt x="163" y="476" on="1"/>
        <pt x="163" y="0" on="1"/>
        <pt x="84" y="0" on="1"/>
      </contour>
    </TTGlyph>
    <TTGlyph name="N" xMin="89" yMin="0" xMax="692" yMax="740">
      <contour>
        <pt x="89" y="740" on="1"/>
        <pt x="166" y="740" on="1"/>
        <pt x="546" y="224" on="1"/>
        <pt x="604" y="136" on="1"/>
        <pt x="611" y="136" on="1"/>
        <pt x="611" y="740" on="1"/>
        <pt x="692" y="740" on="1"/>
        <pt x="692" y="0" on="1"/>
        <pt x="614" y="0" on="1"/>
        <pt x="233" y="516" on="1"/>
        <pt x="176" y="603" on="1"/>
        <pt x="170" y="602" on="1"/>
        <pt x="170" y="0" on="1"/>
        <pt x="89" y="0" on="1"/>
      </contour>
    </TTGlyph>
    <TTGlyph name="N.sc" xMin="84" yMin="0" xMax="611" yMax="577">
      <contour>
        <pt x="84" y="577" on="1"/>
        <pt x="155" y="577" on="1"/>
        <pt x="474" y="193" on="1"/>
        <pt x="528" y="124" on="1"/>
        <pt x="533" y="124" on="1"/>
        <pt x="533" y="577" on="1"/>
        <pt x="611" y="577" on="1"/>
        <pt x="611" y="0" on="1"/>
        <pt x="540" y="0" on="1"/>
        <pt x="221" y="383" on="1"/>
        <pt x="168" y="452" on="1"/>
        <pt x="162" y="452" on="1"/>
        <pt x="162" y="0" on="1"/>
        <pt x="84" y="0" on="1"/>
      </contour>
    </TTGlyph>
    <TTGlyph name="Nacute" xMin="89" yMin="0" xMax="692" yMax="947">
      <contour>
        <pt x="343" y="807" on="1"/>
        <pt x="417" y="947" on="1"/>
        <pt x="509" y="947" on="1"/>
        <pt x="411" y="800" on="1"/>
      </contour>
      <contour>
        <pt x="89" y="740" on="1"/>
        <pt x="166" y="740" on="1"/>
        <pt x="546" y="224" on="1"/>
        <pt x="604" y="136" on="1"/>
        <pt x="611" y="136" on="1"/>
        <pt x="611" y="740" on="1"/>
        <pt x="692" y="740" on="1"/>
        <pt x="692" y="0" on="1"/>
        <pt x="614" y="0" on="1"/>
        <pt x="233" y="516" on="1"/>
        <pt x="176" y="603" on="1"/>
        <pt x="170" y="602" on="1"/>
        <pt x="170" y="0" on="1"/>
        <pt x="89" y="0" on="1"/>
      </contour>
    </TTGlyph>
    <TTGlyph name="Nacute.sc" xMin="84" yMin="0" xMax="611" yMax="746">
      <contour>
        <pt x="84" y="577" on="1"/>
        <pt x="155" y="577" on="1"/>
        <pt x="474" y="193" on="1"/>
        <pt x="528" y="124" on="1"/>
        <pt x="533" y="124" on="1"/>
        <pt x="533" y="577" on="1"/>
        <pt x="611" y="577" on="1"/>
        <pt x="611" y="0" on="1"/>
        <pt x="540" y="0" on="1"/>
        <pt x="221" y="383" on="1"/>
        <pt x="168" y="452" on="1"/>
        <pt x="162" y="452" on="1"/>
        <pt x="162" y="0" on="1"/>
        <pt x="84" y="0" on="1"/>
      </contour>
      <contour>
        <pt x="303" y="631" on="1"/>
        <pt x="367" y="746" on="1"/>
        <pt x="455" y="746" on="1"/>
        <pt x="368" y="625" on="1"/>
      </contour>
    </TTGlyph>
    <TTGlyph name="Ncaron" xMin="89" yMin="0" xMax="692" yMax="953">
      <contour>
        <pt x="227" y="953" on="1"/>
        <pt x="392" y="879" on="1"/>
        <pt x="557" y="953" on="1"/>
        <pt x="557" y="882" on="1"/>
        <pt x="391" y="808" on="1"/>
        <pt x="227" y="882" on="1"/>
      </contour>
      <contour>
        <pt x="89" y="740" on="1"/>
        <pt x="166" y="740" on="1"/>
        <pt x="546" y="224" on="1"/>
        <pt x="604" y="136" on="1"/>
        <pt x="611" y="136" on="1"/>
        <pt x="611" y="740" on="1"/>
        <pt x="692" y="740" on="1"/>
        <pt x="692" y="0" on="1"/>
        <pt x="614" y="0" on="1"/>
        <pt x="233" y="516" on="1"/>
        <pt x="176" y="603" on="1"/>
        <pt x="170" y="602" on="1"/>
        <pt x="170" y="0" on="1"/>
        <pt x="89" y="0" on="1"/>
      </contour>
    </TTGlyph>
    <TTGlyph name="Ncaron.sc" xMin="84" yMin="0" xMax="611" yMax="751">
      <contour>
        <pt x="84" y="577" on="1"/>
        <pt x="155" y="577" on="1"/>
        <pt x="474" y="193" on="1"/>
        <pt x="528" y="124" on="1"/>
        <pt x="533" y="124" on="1"/>
        <pt x="533" y="577" on="1"/>
        <pt x="611" y="577" on="1"/>
        <pt x="611" y="0" on="1"/>
        <pt x="540" y="0" on="1"/>
        <pt x="221" y="383" on="1"/>
        <pt x="168" y="452" on="1"/>
        <pt x="162" y="452" on="1"/>
        <pt x="162" y="0" on="1"/>
        <pt x="84" y="0" on="1"/>
      </contour>
      <contour>
        <pt x="201" y="688" on="1"/>
        <pt x="201" y="751" on="1"/>
        <pt x="349" y="693" on="1"/>
        <pt x="497" y="751" on="1"/>
        <pt x="497" y="688" on="1"/>
        <pt x="349" y="630" on="1"/>
      </contour>
    </TTGlyph>
    <TTGlyph name="Ncommaaccent" xMin="89" yMin="-220" xMax="692" yMax="740">
      <contour>
        <pt x="361" y="-69" on="1"/>
        <pt x="453" y="-69" on="1"/>
        <pt x="385" y="-220" on="1"/>
        <pt x="313" y="-220" on="1"/>
      </contour>
      <contour>
        <pt x="89" y="740" on="1"/>
        <pt x="166" y="740" on="1"/>
        <pt x="546" y="224" on="1"/>
        <pt x="604" y="136" on="1"/>
        <pt x="611" y="136" on="1"/>
        <pt x="611" y="740" on="1"/>
        <pt x="692" y="740" on="1"/>
        <pt x="692" y="0" on="1"/>
        <pt x="614" y="0" on="1"/>
        <pt x="233" y="516" on="1"/>
        <pt x="176" y="603" on="1"/>
        <pt x="170" y="602" on="1"/>
        <pt x="170" y="0" on="1"/>
        <pt x="89" y="0" on="1"/>
      </contour>
    </TTGlyph>
    <TTGlyph name="Ncommaaccent.sc" xMin="84" yMin="-172" xMax="611" yMax="577">
      <contour>
        <pt x="84" y="577" on="1"/>
        <pt x="155" y="577" on="1"/>
        <pt x="474" y="193" on="1"/>
        <pt x="528" y="124" on="1"/>
        <pt x="533" y="124" on="1"/>
        <pt x="533" y="577" on="1"/>
        <pt x="611" y="577" on="1"/>
        <pt x="611" y="0" on="1"/>
        <pt x="540" y="0" on="1"/>
        <pt x="221" y="383" on="1"/>
        <pt x="168" y="452" on="1"/>
        <pt x="162" y="452" on="1"/>
        <pt x="162" y="0" on="1"/>
        <pt x="84" y="0" on="1"/>
      </contour>
      <contour>
        <pt x="317" y="-54" on="1"/>
        <pt x="405" y="-54" on="1"/>
        <pt x="344" y="-172" on="1"/>
        <pt x="276" y="-172" on="1"/>
      </contour>
    </TTGlyph>
    <TTGlyph name="Ndotaccent" xMin="89" yMin="0" xMax="692" yMax="925">
      <contour>
        <pt x="390" y="814" on="1"/>
        <pt x="362" y="814" on="0"/>
        <pt x="334" y="840" on="0"/>
        <pt x="334" y="869" on="1"/>
        <pt x="334" y="925" on="0"/>
        <pt x="390" y="925" on="1"/>
        <pt x="447" y="925" on="0"/>
        <pt x="447" y="869" on="1"/>
        <pt x="447" y="840" on="0"/>
        <pt x="418" y="814" on="0"/>
      </contour>
      <contour>
        <pt x="89" y="740" on="1"/>
        <pt x="166" y="740" on="1"/>
        <pt x="546" y="224" on="1"/>
        <pt x="604" y="136" on="1"/>
        <pt x="611" y="136" on="1"/>
        <pt x="611" y="740" on="1"/>
        <pt x="692" y="740" on="1"/>
        <pt x="692" y="0" on="1"/>
        <pt x="614" y="0" on="1"/>
        <pt x="233" y="516" on="1"/>
        <pt x="176" y="603" on="1"/>
        <pt x="170" y="602" on="1"/>
        <pt x="170" y="0" on="1"/>
        <pt x="89" y="0" on="1"/>
      </contour>
    </TTGlyph>
    <TTGlyph name="Ndotaccent.sc" xMin="84" yMin="0" xMax="611" yMax="734">
      <contour>
        <pt x="84" y="577" on="1"/>
        <pt x="155" y="577" on="1"/>
        <pt x="474" y="193" on="1"/>
        <pt x="528" y="124" on="1"/>
        <pt x="533" y="124" on="1"/>
        <pt x="533" y="577" on="1"/>
        <pt x="611" y="577" on="1"/>
        <pt x="611" y="0" on="1"/>
        <pt x="540" y="0" on="1"/>
        <pt x="221" y="383" on="1"/>
        <pt x="168" y="452" on="1"/>
        <pt x="162" y="452" on="1"/>
        <pt x="162" y="0" on="1"/>
        <pt x="84" y="0" on="1"/>
      </contour>
      <contour>
        <pt x="349" y="633" on="1"/>
        <pt x="322" y="633" on="0"/>
        <pt x="295" y="657" on="0"/>
        <pt x="295" y="684" on="1"/>
        <pt x="295" y="734" on="0"/>
        <pt x="349" y="734" on="1"/>
        <pt x="402" y="734" on="0"/>
        <pt x="402" y="684" on="1"/>
        <pt x="402" y="633" on="0"/>
      </contour>
    </TTGlyph>
    <TTGlyph name="Ntilde" xMin="89" yMin="0" xMax="692" yMax="936">
      <contour>
        <pt x="195" y="861" on="1"/>
        <pt x="223" y="898" on="0"/>
        <pt x="289" y="936" on="0"/>
        <pt x="321" y="936" on="1"/>
        <pt x="345" y="936" on="0"/>
        <pt x="387" y="923" on="0"/>
        <pt x="427" y="908" on="0"/>
        <pt x="467" y="895" on="0"/>
        <pt x="490" y="895" on="1"/>
        <pt x="535" y="895" on="0"/>
        <pt x="579" y="933" on="1"/>
        <pt x="603" y="906" on="1"/>
        <pt x="577" y="870" on="0"/>
        <pt x="508" y="830" on="0"/>
        <pt x="473" y="830" on="1"/>
        <pt x="451" y="830" on="0"/>
        <pt x="409" y="843" on="0"/>
        <pt x="368" y="858" on="0"/>
        <pt x="328" y="871" on="0"/>
        <pt x="307" y="871" on="1"/>
        <pt x="284" y="871" on="0"/>
        <pt x="242" y="854" on="0"/>
        <pt x="219" y="834" on="1"/>
      </contour>
      <contour>
        <pt x="89" y="740" on="1"/>
        <pt x="166" y="740" on="1"/>
        <pt x="546" y="224" on="1"/>
        <pt x="604" y="136" on="1"/>
        <pt x="611" y="136" on="1"/>
        <pt x="611" y="740" on="1"/>
        <pt x="692" y="740" on="1"/>
        <pt x="692" y="0" on="1"/>
        <pt x="614" y="0" on="1"/>
        <pt x="233" y="516" on="1"/>
        <pt x="176" y="603" on="1"/>
        <pt x="170" y="602" on="1"/>
        <pt x="170" y="0" on="1"/>
        <pt x="89" y="0" on="1"/>
      </contour>
    </TTGlyph>
    <TTGlyph name="Ntilde.sc" xMin="84" yMin="0" xMax="611" yMax="739">
      <contour>
        <pt x="174" y="672" on="1"/>
        <pt x="198" y="704" on="0"/>
        <pt x="258" y="739" on="0"/>
        <pt x="287" y="739" on="1"/>
        <pt x="308" y="739" on="0"/>
        <pt x="346" y="729" on="0"/>
        <pt x="382" y="718" on="0"/>
        <pt x="418" y="708" on="0"/>
        <pt x="438" y="708" on="1"/>
        <pt x="458" y="708" on="0"/>
        <pt x="496" y="721" on="0"/>
        <pt x="517" y="736" on="1"/>
        <pt x="538" y="715" on="1"/>
        <pt x="514" y="682" on="0"/>
        <pt x="452" y="647" on="0"/>
        <pt x="421" y="647" on="1"/>
        <pt x="401" y="647" on="0"/>
        <pt x="364" y="657" on="0"/>
        <pt x="327" y="669" on="0"/>
        <pt x="290" y="679" on="0"/>
        <pt x="272" y="679" on="1"/>
        <pt x="252" y="679" on="0"/>
        <pt x="214" y="666" on="0"/>
        <pt x="194" y="649" on="1"/>
      </contour>
      <contour>
        <pt x="84" y="577" on="1"/>
        <pt x="155" y="577" on="1"/>
        <pt x="474" y="193" on="1"/>
        <pt x="528" y="124" on="1"/>
        <pt x="533" y="124" on="1"/>
        <pt x="533" y="577" on="1"/>
        <pt x="611" y="577" on="1"/>
        <pt x="611" y="0" on="1"/>
        <pt x="540" y="0" on="1"/>
        <pt x="221" y="383" on="1"/>
        <pt x="168" y="452" on="1"/>
        <pt x="162" y="452" on="1"/>
        <pt x="162" y="0" on="1"/>
        <pt x="84" y="0" on="1"/>
      </contour>
    </TTGlyph>
    <TTGlyph name="O" xMin="51" yMin="-10" xMax="696" yMax="750">
      <contour>
        <pt x="373" y="-10" on="1"/>
        <pt x="218" y="-10" on="0"/>
        <pt x="51" y="181" on="0"/>
        <pt x="51" y="369" on="1"/>
        <pt x="51" y="557" on="0"/>
        <pt x="218" y="750" on="0"/>
        <pt x="373" y="750" on="1"/>
        <pt x="529" y="750" on="0"/>
        <pt x="696" y="557" on="0"/>
        <pt x="696" y="369" on="1"/>
        <pt x="696" y="182" on="0"/>
        <pt x="529" y="-10" on="0"/>
      </contour>
      <contour>
        <pt x="373" y="66" on="1"/>
        <pt x="490" y="66" on="0"/>
        <pt x="605" y="215" on="0"/>
        <pt x="605" y="369" on="1"/>
        <pt x="605" y="675" on="0"/>
        <pt x="373" y="675" on="1"/>
        <pt x="257" y="675" on="0"/>
        <pt x="142" y="525" on="0"/>
        <pt x="142" y="369" on="1"/>
        <pt x="142" y="214" on="0"/>
        <pt x="256" y="66" on="0"/>
      </contour>
    </TTGlyph>
    <TTGlyph name="O.sc" xMin="50" yMin="-8" xMax="621" yMax="585">
      <contour>
        <pt x="337" y="-8" on="1"/>
        <pt x="199" y="-8" on="0"/>
        <pt x="50" y="142" on="0"/>
        <pt x="50" y="288" on="1"/>
        <pt x="50" y="434" on="0"/>
        <pt x="198" y="585" on="0"/>
        <pt x="337" y="585" on="1"/>
        <pt x="474" y="585" on="0"/>
        <pt x="621" y="434" on="0"/>
        <pt x="621" y="288" on="1"/>
        <pt x="621" y="142" on="0"/>
        <pt x="474" y="-8" on="0"/>
      </contour>
      <contour>
        <pt x="337" y="63" on="1"/>
        <pt x="439" y="63" on="0"/>
        <pt x="535" y="173" on="0"/>
        <pt x="535" y="288" on="1"/>
        <pt x="535" y="403" on="0"/>
        <pt x="438" y="514" on="0"/>
        <pt x="337" y="514" on="1"/>
        <pt x="234" y="514" on="0"/>
        <pt x="138" y="403" on="0"/>
        <pt x="138" y="288" on="1"/>
        <pt x="138" y="173" on="0"/>
        <pt x="234" y="63" on="0"/>
      </contour>
    </TTGlyph>
    <TTGlyph name="OE" xMin="51" yMin="-8" xMax="936" yMax="748">
      <contour>
        <pt x="377" y="-8" on="1"/>
        <pt x="220" y="-8" on="0"/>
        <pt x="51" y="183" on="0"/>
        <pt x="51" y="369" on="1"/>
        <pt x="51" y="556" on="0"/>
        <pt x="220" y="748" on="0"/>
        <pt x="377" y="748" on="1"/>
        <pt x="406" y="748" on="0"/>
        <pt x="458" y="745" on="0"/>
        <pt x="482" y="740" on="1"/>
        <pt x="927" y="740" on="1"/>
        <pt x="927" y="666" on="1"/>
        <pt x="570" y="666" on="1"/>
        <pt x="570" y="413" on="1"/>
        <pt x="902" y="413" on="1"/>
        <pt x="902" y="339" on="1"/>
        <pt x="570" y="339" on="1"/>
        <pt x="570" y="74" on="1"/>
        <pt x="936" y="74" on="1"/>
        <pt x="936" y="0" on="1"/>
        <pt x="482" y="0" on="1"/>
        <pt x="459" y="-4" on="0"/>
        <pt x="406" y="-8" on="0"/>
      </contour>
      <contour>
        <pt x="379" y="67" on="1"/>
        <pt x="408" y="67" on="0"/>
        <pt x="459" y="71" on="0"/>
        <pt x="481" y="77" on="1"/>
        <pt x="481" y="663" on="1"/>
        <pt x="458" y="669" on="0"/>
        <pt x="408" y="673" on="0"/>
        <pt x="379" y="673" on="1"/>
        <pt x="259" y="673" on="0"/>
        <pt x="141" y="524" on="0"/>
        <pt x="141" y="369" on="1"/>
        <pt x="141" y="215" on="0"/>
        <pt x="258" y="67" on="0"/>
      </contour>
    </TTGlyph>
    <TTGlyph name="OE.sc" xMin="51" yMin="-7" xMax="839" yMax="584">
      <contour>
        <pt x="339" y="-7" on="1"/>
        <pt x="201" y="-7" on="0"/>
        <pt x="51" y="142" on="0"/>
        <pt x="51" y="288" on="1"/>
        <pt x="51" y="434" on="0"/>
        <pt x="201" y="584" on="0"/>
        <pt x="339" y="584" on="1"/>
        <pt x="366" y="584" on="0"/>
        <pt x="412" y="581" on="0"/>
        <pt x="433" y="577" on="1"/>
        <pt x="831" y="577" on="1"/>
        <pt x="831" y="509" on="1"/>
        <pt x="518" y="509" on="1"/>
        <pt x="518" y="324" on="1"/>
        <pt x="810" y="324" on="1"/>
        <pt x="810" y="262" on="1"/>
        <pt x="518" y="262" on="1"/>
        <pt x="518" y="68" on="1"/>
        <pt x="839" y="68" on="1"/>
        <pt x="839" y="0" on="1"/>
        <pt x="433" y="0" on="1"/>
        <pt x="412" y="-3" on="0"/>
        <pt x="365" y="-7" on="0"/>
      </contour>
      <contour>
        <pt x="341" y="64" on="1"/>
        <pt x="367" y="64" on="0"/>
        <pt x="412" y="67" on="0"/>
        <pt x="432" y="71" on="1"/>
        <pt x="432" y="506" on="1"/>
        <pt x="412" y="510" on="0"/>
        <pt x="368" y="513" on="0"/>
        <pt x="341" y="513" on="1"/>
        <pt x="238" y="513" on="0"/>
        <pt x="138" y="404" on="0"/>
        <pt x="138" y="288" on="1"/>
        <pt x="138" y="171" on="0"/>
        <pt x="238" y="64" on="0"/>
      </contour>
    </TTGlyph>
    <TTGlyph name="Oacute" xMin="51" yMin="-10" xMax="696" yMax="947">
      <contour>
        <pt x="334" y="807" on="1"/>
        <pt x="408" y="947" on="1"/>
        <pt x="500" y="947" on="1"/>
        <pt x="402" y="800" on="1"/>
      </contour>
      <contour>
        <pt x="373" y="-10" on="1"/>
        <pt x="218" y="-10" on="0"/>
        <pt x="51" y="181" on="0"/>
        <pt x="51" y="369" on="1"/>
        <pt x="51" y="557" on="0"/>
        <pt x="218" y="750" on="0"/>
        <pt x="373" y="750" on="1"/>
        <pt x="529" y="750" on="0"/>
        <pt x="696" y="557" on="0"/>
        <pt x="696" y="369" on="1"/>
        <pt x="696" y="182" on="0"/>
        <pt x="529" y="-10" on="0"/>
      </contour>
      <contour>
        <pt x="373" y="66" on="1"/>
        <pt x="490" y="66" on="0"/>
        <pt x="605" y="215" on="0"/>
        <pt x="605" y="369" on="1"/>
        <pt x="605" y="675" on="0"/>
        <pt x="373" y="675" on="1"/>
        <pt x="257" y="675" on="0"/>
        <pt x="142" y="525" on="0"/>
        <pt x="142" y="369" on="1"/>
        <pt x="142" y="214" on="0"/>
        <pt x="256" y="66" on="0"/>
      </contour>
    </TTGlyph>
    <TTGlyph name="Oacute.sc" xMin="51" yMin="-8" xMax="622" yMax="746">
      <contour>
        <pt x="337" y="-8" on="1"/>
        <pt x="199" y="-8" on="0"/>
        <pt x="51" y="142" on="0"/>
        <pt x="51" y="288" on="1"/>
        <pt x="51" y="434" on="0"/>
        <pt x="199" y="585" on="0"/>
        <pt x="337" y="585" on="1"/>
        <pt x="474" y="585" on="0"/>
        <pt x="622" y="434" on="0"/>
        <pt x="622" y="288" on="1"/>
        <pt x="622" y="142" on="0"/>
        <pt x="474" y="-8" on="0"/>
      </contour>
      <contour>
        <pt x="337" y="63" on="1"/>
        <pt x="439" y="63" on="0"/>
        <pt x="535" y="173" on="0"/>
        <pt x="535" y="288" on="1"/>
        <pt x="535" y="403" on="0"/>
        <pt x="438" y="514" on="0"/>
        <pt x="337" y="514" on="1"/>
        <pt x="234" y="514" on="0"/>
        <pt x="138" y="403" on="0"/>
        <pt x="138" y="288" on="1"/>
        <pt x="138" y="173" on="0"/>
        <pt x="234" y="63" on="0"/>
      </contour>
      <contour>
        <pt x="300" y="631" on="1"/>
        <pt x="363" y="746" on="1"/>
        <pt x="451" y="746" on="1"/>
        <pt x="364" y="625" on="1"/>
      </contour>
    </TTGlyph>
</ttFont>
